<svg width="1062" height="1062" viewBox="0 0 1062 1062" fill="none" xmlns="http://www.w3.org/2000/svg">
<path d="M1035.24 687.198L879.447 424.662C874.802 416.834 867.384 411.288 858.552 409.053C849.744 406.825 840.612 408.16 832.846 412.805L773.868 447.769C761.323 455.21 755.327 469.5 757.76 483.08L733.936 493.658H599.87C597.414 493.658 595.004 494.306 592.871 495.538L549.076 520.817H340.171L312.207 504.701C319.656 489.06 314.095 469.92 298.888 460.819L239.877 425.84C232.088 421.218 222.948 419.907 214.125 422.15C205.277 424.394 197.875 429.916 193.254 437.721L26.7531 718.336C22.1238 726.149 20.8205 735.312 23.0877 744.121C25.3549 752.921 30.9005 760.315 38.6815 764.904L97.7088 799.947C103.136 803.162 109.116 804.694 115.001 804.694C126.606 804.694 137.934 798.762 144.262 788.065L144.294 788.01C155.495 794.464 198.706 819.411 209.127 825.431C195.832 847.369 198.628 876.383 217.556 895.32C233.023 910.787 255.246 915.48 274.812 909.405C276.194 921.807 281.621 933.846 291.085 943.333C306.576 958.816 328.83 963.525 348.414 957.418C349.82 970.271 355.468 982.145 364.663 991.346C380.147 1006.83 402.4 1011.53 421.992 1005.43C423.398 1018.31 429.046 1030.17 438.257 1039.35C449.364 1050.46 463.955 1056.01 478.554 1056.01C493.137 1056.01 507.728 1050.47 518.834 1039.35L541.134 1017.07C545.78 1019.76 550.432 1022.45 555.077 1025.12C562.835 1029.61 570.592 1034.08 578.35 1038.57C588.019 1044.15 598.589 1046.8 609.033 1046.8C630.321 1046.8 651.058 1035.76 662.45 1016.04C668.817 1005.02 671.535 992.538 670.413 980.04C681.22 983.279 692.77 983.46 703.993 980.458C719.919 976.193 733.192 966.034 741.366 951.853C747.733 940.809 750.45 928.319 749.329 915.807C776.021 923.794 805.779 912.774 820.338 887.62C826.871 876.292 829.375 863.725 828.309 851.583C839.1 854.814 850.641 854.995 861.851 851.993C877.784 847.728 891.071 837.569 899.231 823.412C907.439 809.224 909.619 792.627 905.346 776.709C904.248 772.609 902.755 768.683 900.898 764.978L917.014 755.68L917.764 756.936C922.409 764.765 929.827 770.31 938.659 772.546C941.447 773.249 944.275 773.597 947.072 773.597C953.123 773.597 959.056 771.977 964.333 768.809L1023.36 733.829C1031.16 729.208 1036.69 721.79 1038.93 712.959C1041.17 704.143 1039.86 694.987 1035.24 687.199L1035.24 687.198ZM111.969 775.848L52.919 740.79C51.0705 739.7 50.4148 738.041 50.1935 737.14C49.9645 736.247 49.7433 734.454 50.8255 732.613L217.335 451.978C218.409 450.153 220.1 449.497 221 449.268C221.387 449.181 221.917 449.079 222.541 449.079C223.425 449.079 224.5 449.268 225.59 449.916L284.544 484.863C287.412 486.57 288.36 490.291 286.677 493.142L120.168 773.778C118.493 776.598 114.813 777.539 111.969 775.848ZM278.32 875.502C267.031 886.79 248.649 886.806 237.344 875.502C226.221 864.379 226.221 845.594 237.344 834.471L316.594 755.221C322.045 749.77 329.313 746.784 337.078 746.784C344.844 746.784 352.119 749.786 357.562 755.229C362.974 760.64 365.967 767.931 365.967 775.737C365.967 783.55 362.989 790.833 357.562 796.245C357.578 796.245 278.32 875.502 278.32 875.502ZM351.914 923.515C340.602 934.828 322.196 934.828 310.908 923.539C299.832 912.416 299.824 893.639 310.876 882.509L310.884 882.501C355.225 838.222 377.4 816.058 377.4 816.058C388.712 804.745 407.118 804.745 418.431 816.058C429.506 827.133 429.506 845.887 418.431 857.034L351.914 923.515ZM384.477 971.529C379.05 966.102 376.072 958.811 376.072 950.999C376.08 943.241 379.027 936.013 384.383 930.65L438.211 876.822C449.515 865.534 467.89 865.534 479.187 876.822C484.598 882.234 487.592 889.525 487.592 897.331C487.592 905.143 484.614 912.427 479.187 917.839C479.179 917.847 479.179 917.847 479.179 917.863L425.509 971.533C414.18 982.853 395.775 982.853 384.478 971.533L384.477 971.529ZM499.037 1019.54C499.037 1019.55 499.022 1019.55 499.037 1019.54C487.733 1030.85 469.358 1030.85 458.039 1019.53C452.636 1014.16 449.658 1006.9 449.658 999.114C449.65 991.301 452.636 984.009 458.063 978.583L458.086 978.559C485.325 951.266 498.967 937.678 498.984 937.662L499.007 937.639C510.312 926.326 528.725 926.326 540.038 937.639C551.121 948.722 551.113 967.492 540.046 978.598L499.037 1019.54ZM874.985 809.405C870.546 817.091 863.31 822.621 854.613 824.943C845.915 827.274 836.886 826.112 829.208 821.673L630.619 707.048C623.912 703.185 615.357 705.484 611.494 712.175C607.631 718.882 609.93 727.437 616.621 731.3L783.81 827.787C783.818 827.787 783.818 827.795 783.833 827.795C799.814 837.085 805.304 857.624 796.086 873.604C786.82 889.616 766.241 895.131 750.228 885.888L590.924 793.927C584.217 790.064 575.662 792.363 571.799 799.054C567.936 805.761 570.235 814.316 576.926 818.179L705.816 892.586C712.997 897.057 718.148 904.048 720.367 912.383C722.698 921.088 721.537 930.141 717.097 937.852C712.665 945.538 705.429 951.068 696.748 953.39C688.059 955.721 679.022 954.559 671.328 950.12L595.578 906.403C588.871 902.54 580.316 904.839 576.453 911.53C572.59 918.237 574.889 926.793 581.58 930.655L625.921 956.228H625.929C633.616 960.659 639.137 967.895 641.468 976.592C643.798 985.298 642.645 994.327 638.197 1002C628.947 1018.03 608.376 1023.53 592.356 1014.28C584.59 1009.81 576.841 1005.32 569.091 1000.85C566.587 999.413 564.098 997.96 561.594 996.522C581.991 974.166 581.399 939.384 559.825 917.81C549.089 907.074 534.774 901.165 519.504 901.165C518.145 901.165 516.794 901.213 515.459 901.3C515.546 899.972 515.593 898.637 515.593 897.294C515.593 882.009 509.692 867.678 498.988 856.974C486.87 844.856 470.573 839.35 454.718 840.447C455.816 824.561 450.326 808.297 438.216 796.201C426.066 784.06 409.792 778.569 393.858 779.667C393.945 778.356 393.992 777.021 393.992 775.678C393.992 760.392 388.091 746.061 377.387 735.357C366.652 724.622 352.345 718.713 337.107 718.713C321.861 718.713 307.547 724.622 296.826 735.357L228.179 804.004C216.085 797.029 169.706 770.256 158.607 763.858L298.076 528.805L329.446 546.887C331.579 548.111 333.989 548.759 336.445 548.759H500.568L470.59 566.067C454.466 575.397 442.924 590.485 438.075 608.56C433.224 626.658 435.689 645.5 445.003 661.583C454.301 677.746 469.39 689.303 487.496 694.16C505.578 699.011 524.427 696.546 540.565 687.256L635.551 632.401L862.758 763.574C870.468 768.006 875.998 775.226 878.328 783.916C880.635 792.645 879.458 801.667 874.987 809.393L874.985 809.405ZM882.593 743.198C880.721 741.816 878.754 740.536 876.715 739.359L642.532 604.158C638.195 601.653 632.863 601.653 628.525 604.158L526.54 663.057C516.879 668.627 505.575 670.088 494.721 667.181C483.851 664.274 474.814 657.338 469.236 647.653C463.651 638.016 462.189 626.735 465.104 615.873C468.011 605.011 474.947 595.95 484.585 590.373L603.624 521.661H736.899C738.858 521.661 740.793 521.251 742.587 520.461L770.149 508.232L902.744 731.596L882.593 743.198ZM1009.07 709.735L950 744.754C948.191 745.828 946.422 745.622 945.537 745.401C944.629 745.172 942.954 744.516 941.856 742.652L786.004 480.116C784.338 477.304 785.317 473.536 788.137 471.861L847.148 436.881C847.172 436.873 847.18 436.857 847.204 436.849C848.27 436.217 849.321 436.02 850.182 436.02C850.782 436.02 851.304 436.107 851.667 436.202C852.576 436.431 854.25 437.094 855.348 438.943L1011.14 701.499C1012.8 704.319 1011.86 708.095 1009.08 709.746L1009.07 709.735Z" fill="#FF9829"/>
<path d="M494.717 326.241V134.31H546.726C556.805 134.31 566.482 138.735 566.482 155.233C566.482 181.95 566.482 216.662 566.482 225.246C566.482 236.512 556.725 244.962 543.501 244.962H494.717" stroke="#FF9829" stroke-width="25"/>
<path d="M538.259 244.157L576.158 323.424" stroke="#FF9829" stroke-width="25"/>
<path d="M731.378 234.5C731.378 349.352 638.08 442.5 522.939 442.5C407.798 442.5 314.5 349.352 314.5 234.5C314.5 119.648 407.798 26.5 522.939 26.5C638.08 26.5 731.378 119.648 731.378 234.5Z" stroke="#FF9829" stroke-width="25"/>
<path d="M680.578 234.5C680.578 321.352 610.024 391.801 522.939 391.801C435.854 391.801 365.3 321.352 365.3 234.5C365.3 147.648 435.854 77.199 522.939 77.199C610.024 77.199 680.578 147.648 680.578 234.5Z" stroke="#FF9829" stroke-width="25"/>
</svg>
