<svg id="Object" xmlns="http://www.w3.org/2000/svg" viewBox="0 0 1898.52 1485.11"><defs><style>.cls-1{fill:none;stroke:#e6e7e8;stroke-miterlimit:10;stroke-width:20px;}.cls-2{opacity:0.06;}.cls-3{fill:#231f20;}.cls-4{fill:#fff;}.cls-5{fill:#d0d2d3;}.cls-6{fill:#a6a8ab;}.cls-7{opacity:0.1;}.cls-8{fill:#7500e7;}.cls-9{fill:#5a5a8c;}.cls-10{fill:#537df4;}.cls-11{fill:#e6e7e8;}.cls-12{fill:#bbbdbf;}.cls-13{fill:#c9dafc;}.cls-14{fill:#2fba20;}.cls-15{opacity:0.17;}.cls-16{fill:#ff8c17;}.cls-17{fill:#ffd245;}.cls-18{fill:#fc9e49;}.cls-19{fill:#f6561e;}.cls-20{fill:#f67e1e;}.cls-21{opacity:0.2;}.cls-22{fill:#ed7e61;}.cls-23{fill:#d34a51;}</style></defs><title>Artboard 766 copy 2</title><polyline class="cls-1" points="1159.07 297.93 820.73 107.33 107.77 516.91 107.77 245.52"/><g class="cls-2"><polygon class="cls-3" points="518.81 490.31 -0.54 787.06 383.26 1010.49 903.18 712.17 518.81 490.31"/></g><g class="cls-2"><polygon class="cls-3" points="775.46 962.96 256.11 1259.7 639.91 1483.13 1159.83 1184.82 775.46 962.96"/></g><g class="cls-2"><polygon class="cls-3" points="1467.23 552.57 947.88 849.32 1331.68 1072.75 1851.6 774.43 1467.23 552.57"/></g><polygon class="cls-4" points="775.46 908.02 256.11 1204.77 639.91 1428.2 1159.83 1129.88 775.46 908.02"/><polygon class="cls-5" points="639.91 1428.2 1159.83 1129.88 1159.83 1143.68 639.91 1442 639.91 1428.2"/><polygon class="cls-6" points="639.91 1428.2 256.11 1204.77 256.11 1218.57 639.91 1442 639.91 1428.2"/><g class="cls-7"><polygon class="cls-8" points="707.3 982.85 314.91 1201.82 504.37 1312.12 897.05 1092.37 707.3 982.85"/></g><path class="cls-9" d="M765.67,956.22l-6.92-4,6.73-3.89L785.66,960l-6.73,3.89-6.89-4-23.3,13.45-6.37-3.67Z"/><path class="cls-9" d="M782.66,985.36l-6.57,3.79L758,978.71l30-17.35,17.67,10.21-6.56,3.79-11.36-6.56-5.07,2.92,10,5.78-6.35,3.66-10-5.77-5.49,3.17Z"/><path class="cls-9" d="M831.1,986.22l-30,17.35-5.25-3,6.06-15-16,9.24-6.25-3.61,30-17.34,5.25,3-6.07,15,16-9.24Z"/><path class="cls-9" d="M835.61,988.83,846.26,995q3.71,2.13,4.72,4.85a6.06,6.06,0,0,1-.79,5.59,18,18,0,0,1-6.36,5.49,32.45,32.45,0,0,1-9.52,3.68,29.1,29.1,0,0,1-9.67.45,22.1,22.1,0,0,1-8.41-2.72l-10.66-6.15Zm-12.86,19.43a12,12,0,0,0,6.84,1.42,17.89,17.89,0,0,0,7.8-2.48q3.87-2.24,4.3-4.51c.29-1.52-.53-2.83-2.47-4l-4-2.32-16.48,9.51Z"/><path class="cls-9" d="M856.81,1028.17l-6.57,3.79-18.09-10.44,30-17.35,17.67,10.2-6.57,3.79-11.36-6.55-5.06,2.92,10,5.78-6.35,3.66-10-5.77-5.49,3.17Z"/><path class="cls-9" d="M871.61,1035.08l-3.48-2-8,4.61-6.37-3.68,30-17.34,10.3,6a8.94,8.94,0,0,1,4,3.84,4.44,4.44,0,0,1-.39,4.24,12.68,12.68,0,0,1-4.68,4.11,22.61,22.61,0,0,1-6.83,2.62,21.3,21.3,0,0,1-7.06.31l-4.58,8.26-6.82-3.94Zm17.23-6.45c.11-.83-.5-1.63-1.8-2.38l-3.54-2-8.8,5.08,3.54,2a7.57,7.57,0,0,0,4.1,1.05,9,9,0,0,0,4.23-1.3C888,1030.28,888.73,1029.46,888.84,1028.63Z"/><path class="cls-9" d="M920.15,1057.48a8.22,8.22,0,0,1-3.52,3.3,15.76,15.76,0,0,1-8.47,2.14,19.12,19.12,0,0,1-9-2.74l-12.17-7,30-17.34,11.52,6.65q4.31,2.49,4.44,5c.09,1.69-1.07,3.22-3.48,4.61a15.92,15.92,0,0,1-9.54,2A3.34,3.34,0,0,1,920.15,1057.48Zm-9-1q3-1.76-.3-3.69l-5.34-3.08-6.1,3.52,5.35,3.08A6,6,0,0,0,911.14,1056.51Zm6-13.51-5.79,3.34,4.37,2.53a5.76,5.76,0,0,0,6.14.17c1.92-1.1,1.8-2.27-.34-3.51Z"/><path class="cls-9" d="M941.75,1050.1l6.37,3.68-30,17.34-6.37-3.67Z"/><path class="cls-9" d="M952.66,1056.4l10.65,6.15c2.46,1.43,4,3,4.72,4.86a6.06,6.06,0,0,1-.8,5.59,17.89,17.89,0,0,1-6.36,5.49,32.26,32.26,0,0,1-9.51,3.67,29.16,29.16,0,0,1-9.68.46,22,22,0,0,1-8.41-2.73l-10.65-6.15Zm-12.87,19.43a11.82,11.82,0,0,0,6.84,1.42,17.67,17.67,0,0,0,7.81-2.48c2.57-1.48,4-3,4.29-4.5s-.53-2.84-2.46-4l-4-2.32-16.48,9.51Z"/><polygon class="cls-10" points="729.57 1159.71 580.24 1073.5 587.74 1069.17 737.06 1155.38 729.57 1159.71"/><polygon class="cls-10" points="716.1 1167.49 566.77 1081.28 574.27 1076.95 723.59 1163.16 716.1 1167.49"/><polygon class="cls-10" points="702.63 1175.26 553.3 1089.05 560.8 1084.72 710.12 1170.94 702.63 1175.26"/><polygon class="cls-10" points="689.15 1183.04 539.83 1096.83 547.33 1092.5 696.65 1178.71 689.15 1183.04"/><polygon class="cls-10" points="675.68 1190.82 526.36 1104.61 533.86 1100.28 683.18 1186.49 675.68 1190.82"/><polygon class="cls-10" points="662.21 1198.6 512.89 1112.38 520.39 1108.06 669.71 1194.27 662.21 1198.6"/><polygon class="cls-10" points="648.74 1206.37 499.42 1120.16 506.92 1115.83 656.24 1202.05 648.74 1206.37"/><polygon class="cls-10" points="635.27 1214.15 485.95 1127.94 493.45 1123.61 642.77 1209.82 635.27 1214.15"/><polygon class="cls-10" points="621.8 1221.93 472.48 1135.72 479.98 1131.39 629.3 1217.6 621.8 1221.93"/><polygon class="cls-10" points="566.13 1205.34 459.01 1143.49 466.5 1139.16 573.63 1201.01 566.13 1205.34"/><path class="cls-8" d="M391.81,1182.29s59.18-3.62,67.2,36.4c7.24,36.12,71.06-20.09,129.63,22.39l-76.58,44.21-149.32-86.22Z"/><path class="cls-10" d="M668.85,1064.32a44.21,44.21,0,0,1-19.2-3.85l-9.67,5.58-7.48-4.32,9.42-5.43a34.06,34.06,0,0,1-8.31-7.39q-3.11-4-3.41-7.36l14.65-3.7a14.45,14.45,0,0,0,2.6,6.18,23.32,23.32,0,0,0,5.78,5.73l14.42-8.32a38.28,38.28,0,0,1-5.7-7.08,8,8,0,0,1-.81-6.61q1-3.43,6.81-6.78a35.69,35.69,0,0,1,16.83-4.49,43.25,43.25,0,0,1,19.31,3.92l9.59-5.54,7.48,4.32-9.41,5.44q8.32,5.81,9.91,11.8l-14.36,4a19.61,19.61,0,0,0-6.95-9.2l-14.68,8.47a37.52,37.52,0,0,1,5.71,6.94,7.9,7.9,0,0,1,.82,6.56q-1,3.45-6.73,6.74A35.21,35.21,0,0,1,668.85,1064.32Zm9.71-33.93a6.44,6.44,0,0,0,1.78,3.72l12.27-7.08a17.62,17.62,0,0,0-6.65-1,12,12,0,0,0-5.28,1.49C679.24,1028.35,678.53,1029.31,678.56,1030.39Zm-11.23,24.53a10.86,10.86,0,0,0,5.06-1.37c1.44-.83,2.16-1.78,2.16-2.84A6.55,6.55,0,0,0,673,1047l-11.92,6.88A17.28,17.28,0,0,0,667.33,1054.92Z"/><polygon class="cls-11" points="924.44 1107.37 532.04 1326.34 644.96 1391.56 1037.64 1171.82 924.44 1107.37"/><polygon class="cls-12" points="924.53 1210.58 853.18 1169.64 860.67 1165.31 932.03 1206.25 924.53 1210.58"/><polygon class="cls-8" points="959.27 1187.64 887.92 1146.7 917.71 1131.78 989.06 1172.72 959.27 1187.64"/><polygon class="cls-12" points="1082.42 1146.45 1011.06 1105.51 1031.31 1095.68 1102.66 1136.62 1082.42 1146.45"/><polygon class="cls-12" points="911.06 1218.36 839.71 1177.41 847.2 1173.09 918.56 1214.03 911.06 1218.36"/><polygon class="cls-12" points="897.59 1226.13 826.24 1185.19 833.73 1180.86 905.09 1221.81 897.59 1226.13"/><polygon class="cls-12" points="884.12 1233.91 812.76 1192.97 820.26 1188.64 891.62 1229.58 884.12 1233.91"/><polygon class="cls-12" points="870.65 1241.69 799.29 1200.74 806.79 1196.42 878.14 1237.36 870.65 1241.69"/><polygon class="cls-12" points="857.18 1249.46 785.82 1208.52 793.32 1204.19 864.67 1245.14 857.18 1249.46"/><polygon class="cls-12" points="843.71 1257.24 772.35 1216.3 779.85 1211.97 851.2 1252.91 843.71 1257.24"/><polygon class="cls-12" points="830.24 1265.02 758.88 1224.08 766.38 1219.75 837.73 1260.69 830.24 1265.02"/><polygon class="cls-12" points="816.77 1272.8 745.41 1231.85 752.91 1227.53 824.26 1268.47 816.77 1272.8"/><polygon class="cls-12" points="761.1 1256.21 731.94 1239.63 739.44 1235.3 768.59 1251.88 761.1 1256.21"/><polygon class="cls-12" points="769.64 1298.28 698.28 1257.33 705.78 1253.01 777.13 1293.95 769.64 1298.28"/><polygon class="cls-12" points="756.17 1306.05 684.81 1265.11 692.31 1260.78 763.66 1301.72 756.17 1306.05"/><polygon class="cls-12" points="742.7 1313.83 671.34 1272.89 678.84 1268.56 750.19 1309.5 742.7 1313.83"/><polygon class="cls-12" points="729.23 1321.61 657.87 1280.66 665.37 1276.34 736.72 1317.28 729.23 1321.61"/><polygon class="cls-12" points="715.75 1329.38 644.4 1288.44 651.9 1284.11 723.25 1325.06 715.75 1329.38"/><polygon class="cls-12" points="702.28 1337.16 630.93 1296.22 638.43 1291.89 709.78 1332.83 702.28 1337.16"/><polygon class="cls-12" points="688.81 1344.94 617.46 1304 624.96 1299.67 696.31 1340.61 688.81 1344.94"/><polygon class="cls-12" points="675.34 1352.71 603.99 1311.77 611.49 1307.44 682.84 1348.39 675.34 1352.71"/><polygon class="cls-12" points="661.87 1360.49 590.52 1319.55 598.02 1315.22 669.37 1356.16 661.87 1360.49"/><polygon class="cls-12" points="606.2 1343.9 577.05 1327.33 584.54 1323 613.7 1339.58 606.2 1343.9"/><polygon class="cls-4" points="518.81 436.49 -0.54 733.24 383.26 956.67 903.18 658.35 518.81 436.49"/><polygon class="cls-5" points="383.26 956.67 903.18 658.35 903.18 672.15 383.26 970.47 383.26 956.67"/><polygon class="cls-6" points="383.26 956.67 -0.54 733.24 -0.54 747.04 383.26 970.47 383.26 956.67"/><polygon class="cls-13" points="450.65 511.32 58.26 730.3 247.72 840.59 640.4 620.85 450.65 511.32"/><path class="cls-9" d="M509,484.7l-6.92-4,6.73-3.89L529,488.46l-6.73,3.89-6.89-4-23.3,13.46-6.37-3.68Z"/><path class="cls-9" d="M526,513.83l-6.57,3.79-18.08-10.44,30-17.34L549.06,500l-6.56,3.79-11.36-6.56-5.07,2.92,10,5.78-6.35,3.67-10-5.78L514.23,507Z"/><path class="cls-9" d="M574.45,514.7l-30,17.34-5.25-3,6.06-15-16,9.24L523,519.66l30-17.34,5.25,3-6.06,15,16-9.24Z"/><path class="cls-9" d="M579,517.3l10.65,6.15q3.71,2.13,4.72,4.85a6.05,6.05,0,0,1-.79,5.59,18,18,0,0,1-6.36,5.49,32.34,32.34,0,0,1-9.52,3.68,29.38,29.38,0,0,1-9.67.46,22.29,22.29,0,0,1-8.41-2.73l-10.66-6.15ZM566.1,536.73a11.89,11.89,0,0,0,6.84,1.42,17.89,17.89,0,0,0,7.8-2.48q3.87-2.24,4.3-4.51c.29-1.52-.53-2.83-2.47-3.95l-4-2.32-16.47,9.51Z"/><path class="cls-9" d="M600.16,556.64l-6.57,3.79L575.51,550l30-17.34,17.67,10.2-6.56,3.79-11.37-6.56L600.22,543l10,5.78-6.35,3.67-10-5.78-5.49,3.17Z"/><path class="cls-9" d="M615,563.55l-3.47-2-8,4.61-6.37-3.68,30-17.34,10.3,6a8.94,8.94,0,0,1,4,3.84,4.44,4.44,0,0,1-.39,4.24,12.6,12.6,0,0,1-4.68,4.11,22.61,22.61,0,0,1-6.83,2.62,21.29,21.29,0,0,1-7.06.31l-4.58,8.26-6.82-3.94Zm17.23-6.45c.11-.83-.49-1.63-1.8-2.38l-3.54-2.05-8.8,5.08,3.54,2a7.57,7.57,0,0,0,4.1,1.05,9.09,9.09,0,0,0,4.24-1.29C631.33,558.75,632.08,557.93,632.19,557.1Z"/><path class="cls-9" d="M663.5,586a8.16,8.16,0,0,1-3.52,3.3,15.67,15.67,0,0,1-8.47,2.14,19,19,0,0,1-9-2.74l-12.17-7,30-17.34,11.52,6.65q4.3,2.49,4.44,5c.09,1.68-1.07,3.22-3.48,4.6a15.73,15.73,0,0,1-9.54,2A3.34,3.34,0,0,1,663.5,586Zm-9-1q3-1.77-.3-3.7l-5.34-3.08-6.1,3.52,5.35,3.08A6,6,0,0,0,654.49,585Zm6-13.52-5.79,3.35,4.37,2.52a5.78,5.78,0,0,0,6.14.18c1.92-1.11,1.8-2.28-.34-3.52Z"/><path class="cls-9" d="M685.1,578.58l6.37,3.67-30,17.35-6.37-3.68Z"/><path class="cls-9" d="M696,584.87,706.66,591q3.71,2.15,4.72,4.86a6.06,6.06,0,0,1-.8,5.59,17.8,17.8,0,0,1-6.36,5.49,32,32,0,0,1-9.51,3.67,29.16,29.16,0,0,1-9.68.46,22.16,22.16,0,0,1-8.41-2.72L666,602.22ZM683.14,604.3a11.83,11.83,0,0,0,6.84,1.42,17.67,17.67,0,0,0,7.81-2.48q3.86-2.22,4.29-4.5c.29-1.52-.53-2.83-2.46-4l-4-2.32L679.12,602Z"/><polygon class="cls-10" points="472.92 688.18 323.59 601.97 331.09 597.64 480.41 683.85 472.92 688.18"/><polygon class="cls-10" points="459.45 695.96 310.12 609.75 317.62 605.42 466.94 691.63 459.45 695.96"/><polygon class="cls-10" points="445.98 703.74 296.65 617.52 304.15 613.2 453.47 699.41 445.98 703.74"/><polygon class="cls-10" points="432.5 711.51 283.18 625.3 290.68 620.97 440 707.18 432.5 711.51"/><polygon class="cls-10" points="419.03 719.29 269.71 633.08 277.21 628.75 426.53 714.96 419.03 719.29"/><polygon class="cls-10" points="405.56 727.07 256.24 640.86 263.74 636.53 413.06 722.74 405.56 727.07"/><polygon class="cls-10" points="392.09 734.85 242.77 648.63 250.27 644.3 399.59 730.52 392.09 734.85"/><polygon class="cls-10" points="378.62 742.62 229.3 656.41 236.8 652.08 386.12 738.29 378.62 742.62"/><polygon class="cls-10" points="365.15 750.4 215.83 664.19 223.33 659.86 372.65 746.07 365.15 750.4"/><polygon class="cls-10" points="309.48 733.81 202.36 671.97 209.85 667.64 316.98 729.48 309.48 733.81"/><path class="cls-14" d="M135.16,710.76s59.18-3.62,67.2,36.4c7.24,36.12,71.06-20.09,129.63,22.39l-76.58,44.21L106.09,727.55Z"/><path class="cls-10" d="M412.2,592.79a44.21,44.21,0,0,1-19.2-3.85l-9.67,5.58-7.48-4.32,9.42-5.43a34.06,34.06,0,0,1-8.31-7.39q-3.1-4-3.41-7.35l14.65-3.71a14.49,14.49,0,0,0,2.6,6.19,23.66,23.66,0,0,0,5.78,5.73L411,569.91a38.28,38.28,0,0,1-5.7-7.08,8,8,0,0,1-.81-6.6q1-3.45,6.81-6.79A35.69,35.69,0,0,1,428.13,545a43.25,43.25,0,0,1,19.31,3.92l9.59-5.53,7.48,4.31-9.41,5.44q8.32,5.8,9.91,11.8l-14.36,4a19.61,19.61,0,0,0-6.95-9.2L429,568.14a37.52,37.52,0,0,1,5.71,6.94,7.91,7.91,0,0,1,.82,6.56q-1,3.45-6.73,6.74A35.21,35.21,0,0,1,412.2,592.79Zm9.71-33.93a6.41,6.41,0,0,0,1.78,3.72L436,555.5a17.62,17.62,0,0,0-6.65-1A12,12,0,0,0,424,556C422.59,556.82,421.88,557.78,421.91,558.86Zm-11.23,24.53a10.86,10.86,0,0,0,5.06-1.37c1.44-.83,2.16-1.78,2.16-2.84a6.55,6.55,0,0,0-1.58-3.71l-11.92,6.89A17.47,17.47,0,0,0,410.68,583.39Z"/><polygon class="cls-11" points="667.79 635.84 275.39 854.81 388.31 920.03 780.99 700.29 667.79 635.84"/><polygon class="cls-12" points="667.88 739.05 596.53 698.11 604.02 693.78 675.38 734.72 667.88 739.05"/><polygon class="cls-10" points="702.62 716.11 631.27 675.17 661.06 660.25 732.41 701.19 702.62 716.11"/><polygon class="cls-12" points="825.77 674.92 754.41 633.98 774.66 624.15 846.01 665.09 825.77 674.92"/><polygon class="cls-12" points="654.41 746.83 583.06 705.88 590.55 701.56 661.91 742.5 654.41 746.83"/><polygon class="cls-12" points="640.94 754.6 569.59 713.66 577.08 709.33 648.44 750.28 640.94 754.6"/><polygon class="cls-12" points="627.47 762.38 556.12 721.44 563.61 717.11 634.97 758.05 627.47 762.38"/><polygon class="cls-12" points="614 770.16 542.64 729.22 550.14 724.89 621.5 765.83 614 770.16"/><polygon class="cls-12" points="600.53 777.94 529.17 736.99 536.67 732.67 608.02 773.61 600.53 777.94"/><polygon class="cls-12" points="587.06 785.71 515.7 744.77 523.2 740.44 594.55 781.38 587.06 785.71"/><polygon class="cls-12" points="573.59 793.49 502.23 752.55 509.73 748.22 581.08 789.16 573.59 793.49"/><polygon class="cls-12" points="560.12 801.27 488.76 760.33 496.26 756 567.61 796.94 560.12 801.27"/><polygon class="cls-12" points="504.45 784.68 475.29 768.1 482.79 763.77 511.94 780.35 504.45 784.68"/><polygon class="cls-12" points="512.99 826.75 441.63 785.8 449.13 781.48 520.48 822.42 512.99 826.75"/><polygon class="cls-12" points="499.52 834.52 428.16 793.58 435.66 789.25 507.01 830.2 499.52 834.52"/><polygon class="cls-12" points="486.05 842.3 414.69 801.36 422.19 797.03 493.54 837.97 486.05 842.3"/><polygon class="cls-12" points="472.58 850.08 401.22 809.14 408.72 804.81 480.07 845.75 472.58 850.08"/><polygon class="cls-12" points="459.11 857.86 387.75 816.91 395.25 812.59 466.6 853.53 459.11 857.86"/><polygon class="cls-12" points="445.63 865.63 374.28 824.69 381.78 820.36 453.13 861.3 445.63 865.63"/><polygon class="cls-12" points="432.17 873.41 360.81 832.47 368.31 828.14 439.66 869.08 432.17 873.41"/><polygon class="cls-12" points="418.69 881.19 347.34 840.25 354.84 835.92 426.19 876.86 418.69 881.19"/><polygon class="cls-12" points="405.22 888.96 333.87 848.02 341.37 843.69 412.72 884.64 405.22 888.96"/><polygon class="cls-12" points="349.55 872.38 320.4 855.8 327.9 851.47 357.05 868.05 349.55 872.38"/><g class="cls-2"><polygon class="cls-3" points="1197.47 103.8 678.12 400.54 1061.92 623.98 1581.84 325.65 1197.47 103.8"/></g><polygon class="cls-4" points="1197.47 50.54 678.12 347.31 1061.92 570.75 1581.84 272.4 1197.47 50.54"/><polygon class="cls-5" points="1061.92 570.75 1581.84 272.42 1581.84 286.22 1061.92 584.54 1061.92 570.75"/><polygon class="cls-6" points="1061.92 570.36 678.12 346.93 678.12 360.73 1061.92 584.16 1061.92 570.36"/><g class="cls-15"><polygon class="cls-16" points="1129.31 125.4 736.92 344.37 926.38 454.67 1319.06 234.92 1129.31 125.4"/></g><path class="cls-9" d="M1187.68,98.77l-6.92-4,6.74-3.89,20.17,11.65-6.73,3.89-6.89-4-23.3,13.45-6.37-3.68Z"/><path class="cls-9" d="M1204.67,127.9l-6.56,3.79L1180,121.25l30-17.34,17.66,10.2-6.56,3.79-11.36-6.56-5.06,2.92,10,5.78-6.35,3.67-10-5.78-5.49,3.17Z"/><path class="cls-9" d="M1253.12,128.77l-30,17.34-5.25-3,6.06-15-16,9.24-6.24-3.6,30-17.35,5.25,3-6.06,15,16-9.24Z"/><path class="cls-9" d="M1257.62,131.37l10.65,6.15q3.7,2.13,4.72,4.85a6.05,6.05,0,0,1-.79,5.59,18.09,18.09,0,0,1-6.36,5.5,32.32,32.32,0,0,1-9.52,3.67,29.1,29.1,0,0,1-9.67.46,22.11,22.11,0,0,1-8.41-2.73l-10.66-6.15Zm-12.86,19.43a11.89,11.89,0,0,0,6.84,1.42,17.72,17.72,0,0,0,7.8-2.48q3.87-2.24,4.3-4.51t-2.46-3.95l-4-2.32-16.47,9.52Z"/><path class="cls-9" d="M1278.82,170.71l-6.57,3.79-18.08-10.44,30-17.34,17.67,10.2-6.56,3.79L1284,154.15l-5.07,2.92,10,5.78-6.35,3.67-10-5.78-5.49,3.17Z"/><path class="cls-9" d="M1293.62,177.62l-3.47-2-8,4.6-6.38-3.68,30-17.34,10.3,6a8.94,8.94,0,0,1,4,3.84,4.44,4.44,0,0,1-.39,4.24,12.6,12.6,0,0,1-4.68,4.11,23,23,0,0,1-6.82,2.63,21.62,21.62,0,0,1-7.07.3l-4.58,8.26-6.82-3.94Zm17.23-6.45c.11-.83-.49-1.62-1.8-2.38l-3.54-2-8.8,5.07,3.54,2.05a7.5,7.5,0,0,0,4.1,1,9.09,9.09,0,0,0,4.24-1.29C1310,172.82,1310.74,172,1310.85,171.17Z"/><path class="cls-9" d="M1342.16,200a8.16,8.16,0,0,1-3.52,3.3,15.67,15.67,0,0,1-8.47,2.14,19,19,0,0,1-9-2.74l-12.17-7,30-17.34,11.52,6.65q4.32,2.49,4.44,5t-3.47,4.61a15.9,15.9,0,0,1-4.63,1.76,15.44,15.44,0,0,1-4.92.25A3.29,3.29,0,0,1,1342.16,200Zm-9-1q3-1.77-.3-3.69l-5.34-3.09-6.09,3.52,5.34,3.08A6,6,0,0,0,1333.15,199.06Zm6-13.52-5.79,3.35,4.37,2.52a5.78,5.78,0,0,0,6.14.18c1.92-1.11,1.8-2.28-.34-3.52Z"/><path class="cls-9" d="M1363.76,192.65l6.37,3.68-30,17.34-6.37-3.68Z"/><path class="cls-9" d="M1374.67,199l10.65,6.15q3.71,2.13,4.72,4.85a6.09,6.09,0,0,1-.79,5.59,18,18,0,0,1-6.36,5.49,32.15,32.15,0,0,1-9.52,3.67,28.9,28.9,0,0,1-9.68.46,22.16,22.16,0,0,1-8.41-2.72l-10.65-6.15Zm-12.86,19.42a11.88,11.88,0,0,0,6.83,1.43,17.93,17.93,0,0,0,7.81-2.48c2.57-1.49,4-3,4.29-4.51s-.53-2.83-2.46-3.95l-4-2.32-16.48,9.51Z"/><polygon class="cls-16" points="1151.58 302.25 1002.25 216.04 1009.75 211.71 1159.07 297.93 1151.58 302.25"/><polygon class="cls-16" points="1138.11 310.03 988.78 223.82 996.28 219.49 1145.6 305.7 1138.11 310.03"/><polygon class="cls-16" points="1124.64 317.81 975.31 231.6 982.81 227.27 1132.13 313.48 1124.64 317.81"/><polygon class="cls-16" points="1111.17 325.58 961.84 239.37 969.34 235.04 1118.66 321.26 1111.17 325.58"/><polygon class="cls-16" points="1097.7 333.36 948.37 247.15 955.87 242.82 1105.19 329.03 1097.7 333.36"/><polygon class="cls-16" points="1084.22 341.14 934.9 254.93 942.4 250.6 1091.72 336.81 1084.22 341.14"/><polygon class="cls-16" points="1070.76 348.92 921.43 262.7 928.93 258.38 1078.25 344.59 1070.76 348.92"/><polygon class="cls-16" points="1057.28 356.69 907.96 270.48 915.46 266.15 1064.78 352.37 1057.28 356.69"/><polygon class="cls-16" points="1043.81 364.47 894.49 278.26 901.99 273.93 1051.31 360.14 1043.81 364.47"/><polygon class="cls-16" points="988.14 347.88 881.02 286.04 888.52 281.71 995.64 343.56 988.14 347.88"/><path class="cls-17" d="M795.94,334.45s102.23-32.33,109.53,7.83c15.65,86.05,54.76,31.29,105.18,41.34l-76.58,44.21L784.75,341.62Z"/><path class="cls-16" d="M1090.86,206.86a44.24,44.24,0,0,1-19.2-3.85l-9.67,5.58-7.48-4.32,9.42-5.43a33.82,33.82,0,0,1-8.3-7.39q-3.12-4-3.42-7.35l14.65-3.71a14.49,14.49,0,0,0,2.6,6.19,23.84,23.84,0,0,0,5.78,5.73l14.42-8.33a37.76,37.76,0,0,1-5.69-7.08,8,8,0,0,1-.82-6.6q1-3.45,6.81-6.79A35.82,35.82,0,0,1,1106.8,159a43.24,43.24,0,0,1,19.3,3.92l9.59-5.53,7.48,4.32-9.41,5.43q8.33,5.81,9.91,11.81l-14.36,4a19.66,19.66,0,0,0-7-9.2l-14.68,8.48a37.18,37.18,0,0,1,5.71,6.93,7.91,7.91,0,0,1,.82,6.56c-.68,2.3-2.93,4.55-6.72,6.74A35.17,35.17,0,0,1,1090.86,206.86Zm9.72-33.93a6.29,6.29,0,0,0,1.78,3.72l12.26-7.08a17.41,17.41,0,0,0-6.65-1,11.89,11.89,0,0,0-5.28,1.48C1101.25,170.9,1100.54,171.85,1100.58,172.93Zm-11.24,24.53a10.86,10.86,0,0,0,5.06-1.37c1.44-.83,2.16-1.78,2.16-2.84a6.5,6.5,0,0,0-1.58-3.7l-11.92,6.88A17.47,17.47,0,0,0,1089.34,197.46Z"/><polygon class="cls-11" points="1346.45 249.91 954.05 468.88 1066.97 534.11 1459.65 314.36 1346.45 249.91"/><polygon class="cls-12" points="1346.54 353.12 1275.19 312.18 1282.68 307.85 1354.04 348.79 1346.54 353.12"/><polygon class="cls-16" points="1381.28 330.19 1309.93 289.24 1339.72 274.32 1411.07 315.26 1381.28 330.19"/><polygon class="cls-12" points="1504.43 288.99 1433.08 248.05 1453.32 238.22 1524.68 279.16 1504.43 288.99"/><polygon class="cls-12" points="1333.07 360.9 1261.72 319.96 1269.21 315.63 1340.57 356.57 1333.07 360.9"/><polygon class="cls-12" points="1319.6 368.68 1248.25 327.73 1255.74 323.41 1327.1 364.35 1319.6 368.68"/><polygon class="cls-12" points="1306.13 376.45 1234.78 335.51 1242.27 331.18 1313.63 372.13 1306.13 376.45"/><polygon class="cls-12" points="1292.66 384.23 1221.31 343.29 1228.8 338.96 1300.16 379.9 1292.66 384.23"/><polygon class="cls-12" points="1279.19 392.01 1207.84 351.07 1215.33 346.74 1286.69 387.68 1279.19 392.01"/><polygon class="cls-12" points="1265.72 399.79 1194.37 358.84 1201.86 354.51 1273.22 395.46 1265.72 399.79"/><polygon class="cls-12" points="1252.25 407.56 1180.89 366.62 1188.39 362.29 1259.75 403.23 1252.25 407.56"/><polygon class="cls-12" points="1238.78 415.34 1167.42 374.4 1174.92 370.07 1246.28 411.01 1238.78 415.34"/><polygon class="cls-12" points="1183.11 398.75 1153.95 382.17 1161.45 377.85 1190.61 394.42 1183.11 398.75"/><polygon class="cls-12" points="1191.65 440.82 1120.3 399.88 1127.79 395.55 1199.15 436.49 1191.65 440.82"/><polygon class="cls-12" points="1178.18 448.6 1106.83 407.65 1114.32 403.32 1185.67 444.27 1178.18 448.6"/><polygon class="cls-12" points="1164.71 456.37 1093.35 415.43 1100.85 411.1 1172.2 452.04 1164.71 456.37"/><polygon class="cls-12" points="1151.24 464.15 1079.88 423.21 1087.38 418.88 1158.73 459.82 1151.24 464.15"/><polygon class="cls-12" points="1137.77 471.93 1066.41 430.99 1073.91 426.66 1145.26 467.6 1137.77 471.93"/><polygon class="cls-12" points="1124.3 479.7 1052.94 438.76 1060.44 434.43 1131.79 475.38 1124.3 479.7"/><polygon class="cls-12" points="1110.83 487.48 1039.47 446.54 1046.97 442.21 1118.32 483.15 1110.83 487.48"/><polygon class="cls-12" points="1097.36 495.26 1026 454.32 1033.5 449.99 1104.85 490.93 1097.36 495.26"/><polygon class="cls-12" points="1083.88 503.04 1012.53 462.09 1020.03 457.76 1091.38 498.71 1083.88 503.04"/><polygon class="cls-12" points="1028.21 486.45 999.06 469.87 1006.56 465.54 1035.71 482.12 1028.21 486.45"/><path class="cls-18" d="M172.33,106.1,156,96.7l0,0a17.75,17.75,0,0,0-18.44-.34L40,152.38a38.35,38.35,0,0,0-19.19,33.21V344.3a11.88,11.88,0,0,0,6.38,10.58v0l16.45,9.48,2.61-6.83-4.75-4.41,110-63.22a25.74,25.74,0,0,0,12.89-22.31V111.91c0-.26,0-.49,0-.74Z"/><path class="cls-19" d="M81.51,201.49,24.76,168.75A38.26,38.26,0,0,1,40,152.38l6.31-3.64,35.14,20.32Z"/><path class="cls-19" d="M20.92,183.71l25.54,14.77V350.31l-4.92,2.83,4.75,4.41-2.61,6.83L27.23,354.9v0a11.88,11.88,0,0,1-6.38-10.58V185.59C20.85,185,20.88,184.33,20.92,183.71Z"/><path class="cls-20" d="M154.12,105.93l-97.5,56a38.35,38.35,0,0,0-19.19,33.21V353.85a12,12,0,0,0,18,10.4l112.68-64.77A25.77,25.77,0,0,0,181,277.16V121.46A17.92,17.92,0,0,0,154.12,105.93Z"/><path class="cls-4" d="M141.92,215.79q5.94,5.46,6.17,18.16a61.86,61.86,0,0,1-3.78,21.71A75.52,75.52,0,0,1,132,277.56a77.49,77.49,0,0,1-20.9,18.09,70.49,70.49,0,0,1-18.2,7.93q-9,2.42-15.72.86l8.45-30.26a23,23,0,0,0,11.6.27,40.56,40.56,0,0,0,12.62-5.08,31.17,31.17,0,0,0,10-9.22,19.18,19.18,0,0,0,3.55-11.26q-.22-11.35-13.47-3.37l-10.29,6.2-.39-20.87,15-31.89L80,219.58,79.54,194l62.69-37.8.39,20.71-17.46,36.88Q136,210.34,141.92,215.79Z"/><path class="cls-14" d="M1467.24,342.11l388.37,224.17L1331.67,866.9,943.88,641.15l523.36-299m0-23.06L903.85,641,1331.6,890l564.11-323.67L1467.29,319.05Z"/><polygon class="cls-21" points="383.26 970.47 -0.54 747.04 -0.54 733.24 518.81 436.49 903.18 658.35 903.18 672.15 383.26 970.47"/><polygon class="cls-21" points="1061.9 584.15 678.1 360.72 678.1 346.92 1197.45 50.18 1581.82 272.03 1581.82 285.83 1061.9 584.15"/><polygon class="cls-21" points="639.91 1442 256.11 1218.57 256.11 1204.77 775.46 908.02 1159.83 1129.88 1159.83 1143.68 639.91 1442"/><polygon class="cls-4" points="1467.23 306.17 947.88 602.92 1331.68 826.35 1851.6 528.03 1467.23 306.17"/><polygon class="cls-5" points="1331.68 826.35 1851.6 528.03 1851.6 541.83 1331.68 840.15 1331.68 826.35"/><polygon class="cls-6" points="1331.68 826.35 947.88 602.92 947.88 616.72 1331.68 840.15 1331.68 826.35"/><g class="cls-7"><polygon class="cls-22" points="1399.08 381 1006.68 599.98 1196.14 710.27 1588.82 490.53 1399.08 381"/></g><path class="cls-9" d="M1457.44,354.38l-6.92-4,6.74-3.89,20.18,11.65L1470.7,362l-6.89-4-23.3,13.46-6.37-3.68Z"/><path class="cls-9" d="M1474.43,383.51l-6.56,3.79-18.09-10.44,30-17.34,17.67,10.2-6.57,3.79L1479.56,367l-5.06,2.92,10,5.78-6.35,3.67-10-5.78-5.5,3.17Z"/><path class="cls-9" d="M1522.88,384.38l-30,17.34-5.24-3,6.06-15-16,9.24-6.24-3.61,30-17.34,5.25,3-6.06,15,16-9.24Z"/><path class="cls-9" d="M1527.38,387l10.66,6.15c2.46,1.42,4,3,4.72,4.85a6.06,6.06,0,0,1-.8,5.59,18,18,0,0,1-6.36,5.49,32,32,0,0,1-9.51,3.68,29.17,29.17,0,0,1-9.68.46,22.35,22.35,0,0,1-8.41-2.73l-10.65-6.15Zm-12.86,19.43a11.89,11.89,0,0,0,6.84,1.42,17.85,17.85,0,0,0,7.8-2.48q3.87-2.24,4.3-4.51t-2.46-3.95l-4-2.32-16.48,9.51Z"/><path class="cls-9" d="M1548.58,426.32l-6.56,3.79-18.09-10.44,30-17.34,17.66,10.2-6.56,3.79-11.36-6.56-5.07,2.92,10,5.78-6.35,3.67-10-5.78-5.49,3.17Z"/><path class="cls-9" d="M1563.38,433.23l-3.47-2-8,4.61-6.37-3.68,30-17.34,10.3,5.95a8.89,8.89,0,0,1,4,3.84,4.44,4.44,0,0,1-.39,4.24,12.56,12.56,0,0,1-4.67,4.11,23.11,23.11,0,0,1-6.83,2.63,21.62,21.62,0,0,1-7.07.3l-4.58,8.26-6.82-3.94Zm17.23-6.45c.11-.83-.49-1.63-1.8-2.38l-3.54-2-8.8,5.07,3.54,2.05a7.59,7.59,0,0,0,4.1,1,9.06,9.06,0,0,0,4.24-1.29C1579.75,428.43,1580.5,427.61,1580.61,426.78Z"/><path class="cls-9" d="M1611.93,455.63a8.28,8.28,0,0,1-3.52,3.3,15.72,15.72,0,0,1-8.48,2.14,19,19,0,0,1-9-2.74l-12.17-7,30-17.34,11.52,6.65q4.32,2.49,4.44,5c.09,1.68-1.07,3.22-3.47,4.6a15.64,15.64,0,0,1-4.63,1.77,15.44,15.44,0,0,1-4.92.25A3.32,3.32,0,0,1,1611.93,455.63Zm-9-1q3.06-1.77-.3-3.69l-5.34-3.09-6.09,3.52,5.34,3.08A6,6,0,0,0,1602.91,454.67Zm6-13.52-5.79,3.35,4.38,2.52a5.76,5.76,0,0,0,6.13.18c1.92-1.11,1.8-2.28-.34-3.52Z"/><path class="cls-9" d="M1633.52,448.26l6.37,3.68-30,17.34-6.38-3.68Z"/><path class="cls-9" d="M1644.43,454.56l10.65,6.15q3.7,2.13,4.72,4.85a6.06,6.06,0,0,1-.79,5.59,18,18,0,0,1-6.36,5.49,32,32,0,0,1-9.52,3.67,29.11,29.11,0,0,1-9.67.46,22.1,22.1,0,0,1-8.41-2.72l-10.66-6.15ZM1631.57,474a11.9,11.9,0,0,0,6.84,1.43,17.78,17.78,0,0,0,7.8-2.49q3.87-2.22,4.3-4.5c.29-1.52-.53-2.83-2.47-3.95l-4-2.32-16.47,9.51Z"/><polygon class="cls-22" points="1421.34 557.86 1272.02 471.65 1279.51 467.32 1428.84 553.53 1421.34 557.86"/><polygon class="cls-22" points="1407.87 565.64 1258.55 479.43 1266.04 475.1 1415.37 561.31 1407.87 565.64"/><polygon class="cls-22" points="1394.4 573.42 1245.08 487.2 1252.57 482.88 1401.89 569.09 1394.4 573.42"/><polygon class="cls-22" points="1380.93 581.19 1231.61 494.98 1239.1 490.65 1388.42 576.87 1380.93 581.19"/><polygon class="cls-22" points="1367.46 588.97 1218.13 502.76 1225.63 498.43 1374.95 584.64 1367.46 588.97"/><polygon class="cls-22" points="1353.99 596.75 1204.66 510.54 1212.16 506.21 1361.48 592.42 1353.99 596.75"/><polygon class="cls-22" points="1340.52 604.52 1191.19 518.31 1198.69 513.99 1348.01 600.2 1340.52 604.52"/><polygon class="cls-22" points="1327.05 612.3 1177.72 526.09 1185.22 521.76 1334.54 607.97 1327.05 612.3"/><polygon class="cls-22" points="1313.58 620.08 1164.25 533.87 1171.75 529.54 1321.07 615.75 1313.58 620.08"/><polygon class="cls-22" points="1257.9 603.49 1150.78 541.64 1158.28 537.32 1265.4 599.16 1257.9 603.49"/><path class="cls-23" d="M1083.59,580.44s59.17-3.62,67.19,36.4c7.24,36.12,71.07-20.09,129.63,22.39l-76.57,44.21-149.33-86.21Z"/><path class="cls-22" d="M1360.62,462.47a44.17,44.17,0,0,1-19.19-3.85l-9.67,5.58-7.48-4.32,9.41-5.43a33.82,33.82,0,0,1-8.3-7.39q-3.12-4-3.42-7.35l14.65-3.71a14.49,14.49,0,0,0,2.6,6.19,23.84,23.84,0,0,0,5.78,5.73l14.42-8.33a37.76,37.76,0,0,1-5.69-7.08,8,8,0,0,1-.82-6.6c.68-2.3,3-4.56,6.81-6.79a35.7,35.7,0,0,1,16.84-4.49,43.31,43.31,0,0,1,19.31,3.92l9.58-5.53,7.48,4.31-9.41,5.44q8.32,5.81,9.91,11.8l-14.36,4a19.61,19.61,0,0,0-7-9.2l-14.68,8.47a37.12,37.12,0,0,1,5.71,6.94,7.87,7.87,0,0,1,.82,6.56q-1,3.45-6.72,6.74A35.26,35.26,0,0,1,1360.62,462.47Zm9.72-33.93a6.41,6.41,0,0,0,1.78,3.72l12.26-7.08a17.62,17.62,0,0,0-6.65-1,12,12,0,0,0-5.28,1.49C1371,426.5,1370.31,427.46,1370.34,428.54Zm-11.23,24.53a10.89,10.89,0,0,0,5.06-1.37c1.44-.83,2.15-1.78,2.16-2.84a6.7,6.7,0,0,0-1.58-3.71L1352.83,452A17.47,17.47,0,0,0,1359.11,453.07Z"/><polygon class="cls-11" points="1616.21 505.52 1223.81 724.49 1336.73 789.72 1729.41 569.97 1616.21 505.52"/><polygon class="cls-12" points="1616.31 608.73 1544.95 567.79 1552.45 563.46 1623.8 604.4 1616.31 608.73"/><polygon class="cls-22" points="1651.04 585.79 1579.69 544.85 1609.48 529.93 1680.84 570.87 1651.04 585.79"/><polygon class="cls-12" points="1774.19 544.6 1702.84 503.66 1723.09 493.83 1794.44 534.77 1774.19 544.6"/><polygon class="cls-12" points="1602.84 616.51 1531.48 575.57 1538.98 571.24 1610.33 612.18 1602.84 616.51"/><polygon class="cls-12" points="1589.36 624.28 1518.01 583.34 1525.51 579.01 1596.86 619.96 1589.36 624.28"/><polygon class="cls-12" points="1575.89 632.06 1504.54 591.12 1512.04 586.79 1583.39 627.73 1575.89 632.06"/><polygon class="cls-12" points="1562.42 639.84 1491.07 598.9 1498.57 594.57 1569.92 635.51 1562.42 639.84"/><polygon class="cls-12" points="1548.95 647.62 1477.6 606.67 1485.1 602.35 1556.45 643.29 1548.95 647.62"/><polygon class="cls-12" points="1535.48 655.39 1464.13 614.45 1471.63 610.12 1542.98 651.07 1535.48 655.39"/><polygon class="cls-12" points="1522.01 663.17 1450.66 622.23 1458.15 617.9 1529.51 658.84 1522.01 663.17"/><polygon class="cls-12" points="1508.54 670.95 1437.19 630.01 1444.68 625.68 1516.04 666.62 1508.54 670.95"/><polygon class="cls-12" points="1452.87 654.36 1423.72 637.78 1431.21 633.46 1460.37 650.03 1452.87 654.36"/><polygon class="cls-12" points="1461.41 696.43 1390.06 655.49 1397.55 651.16 1468.91 692.1 1461.41 696.43"/><polygon class="cls-12" points="1447.94 704.2 1376.59 663.26 1384.08 658.93 1455.44 699.88 1447.94 704.2"/><polygon class="cls-12" points="1434.47 711.98 1363.12 671.04 1370.61 666.71 1441.97 707.65 1434.47 711.98"/><polygon class="cls-12" points="1421 719.76 1349.65 678.82 1357.14 674.49 1428.5 715.43 1421 719.76"/><polygon class="cls-12" points="1407.53 727.54 1336.17 686.59 1343.67 682.27 1415.03 723.21 1407.53 727.54"/><polygon class="cls-12" points="1394.06 735.31 1322.7 694.37 1330.2 690.04 1401.56 730.99 1394.06 735.31"/><polygon class="cls-12" points="1380.59 743.09 1309.23 702.15 1316.73 697.82 1388.09 738.76 1380.59 743.09"/><polygon class="cls-12" points="1367.12 750.87 1295.76 709.93 1303.26 705.6 1374.62 746.54 1367.12 750.87"/><polygon class="cls-12" points="1353.65 758.64 1282.29 717.7 1289.79 713.38 1361.14 754.32 1353.65 758.64"/><polygon class="cls-12" points="1297.98 742.06 1268.82 725.48 1276.32 721.15 1305.47 737.73 1297.98 742.06"/></svg>