<svg id="Layer_1" data-name="Layer 1" xmlns="http://www.w3.org/2000/svg" viewBox="0 0 64 64"><defs><style>.cls-1{fill:#ff9829;}.cls-2{fill:none;stroke:#ff9829;stroke-miterlimit:2;stroke-width:2px;}</style></defs><title>award-orange-64px</title><path class="cls-1" d="M41,10H23v4H22v2h1V28H22v2h1v4H41ZM39,32H25V30h2V28H25V16h2V14H25V12H39Z"/><rect class="cls-1" x="29" y="14" width="8" height="2"/><rect class="cls-1" x="29" y="17" width="5" height="2"/><path class="cls-1" d="M37,21H29v9h8Zm-2,7H31V23h4Z"/><polygon class="cls-1" points="0 44 11 44 11 64 13 64 13 42 0 42 0 44"/><rect class="cls-1" x="1" y="46" width="8" height="2"/><rect class="cls-1" x="1" y="49" width="5" height="2"/><path class="cls-1" d="M1,62H9V53H1Zm2-7H7v5H3Z"/><polygon class="cls-1" points="23 46 22 46 22 48 23 48 23 60 22 60 22 62 23 62 23 64 25 64 25 62 27 62 27 60 25 60 25 48 27 48 27 46 25 46 25 44 39 44 39 64 41 64 41 42 23 42 23 46"/><rect class="cls-1" x="29" y="46" width="8" height="2"/><rect class="cls-1" x="29" y="49" width="5" height="2"/><path class="cls-1" d="M29,62h8V53H29Zm2-7h4v5H31Z"/><polygon class="cls-1" points="52 46 51 46 51 48 52 48 52 60 51 60 51 62 52 62 52 64 54 64 54 62 56 62 56 60 54 60 54 48 56 48 56 46 54 46 54 44 64 44 64 42 52 42 52 46"/><rect class="cls-1" x="58" y="46" width="6" height="2"/><rect class="cls-1" x="58" y="49" width="5" height="2"/><polygon class="cls-1" points="58 62 64 62 64 60 60 60 60 55 64 55 64 53 58 53 58 62"/><polygon class="cls-1" points="52 13 52 17 51 17 51 19 52 19 52 31 51 31 51 33 52 33 52 37 64 37 64 35 54 35 54 33 56 33 56 31 54 31 54 19 56 19 56 17 54 17 54 15 64 15 64 13 52 13"/><rect class="cls-1" x="58" y="17" width="6" height="2"/><rect class="cls-1" x="58" y="20" width="5" height="2"/><polygon class="cls-1" points="58 33 64 33 64 31 60 31 60 26 64 26 64 24 58 24 58 33"/><polygon class="cls-1" points="0 15 11 15 11 35 0 35 0 37 13 37 13 13 0 13 0 15"/><rect class="cls-1" x="1" y="17" width="8" height="2"/><rect class="cls-1" x="1" y="20" width="5" height="2"/><path class="cls-1" d="M1,33H9V24H1Zm2-7H7v5H3Z"/><rect class="cls-1" x="45" y="5" width="2" height="2"/><rect class="cls-1" x="45" y="21" width="2" height="2"/><rect class="cls-1" x="45" y="25" width="2" height="2"/><rect class="cls-1" x="45" y="29" width="2" height="2"/><rect class="cls-1" x="45" y="17" width="2" height="2"/><rect class="cls-1" x="45" y="13" width="2" height="2"/><rect class="cls-1" x="45" y="9" width="2" height="2"/><rect class="cls-1" x="45" y="33" width="2" height="2"/><rect class="cls-1" x="45" y="37" width="2" height="2"/><rect class="cls-1" x="37" y="37" width="2" height="2"/><rect class="cls-1" x="29" y="37" width="2" height="2"/><rect class="cls-1" x="21" y="37" width="2" height="2"/><rect class="cls-1" x="33" y="37" width="2" height="2"/><rect class="cls-1" x="25" y="37" width="2" height="2"/><rect class="cls-1" x="41" y="37" width="2" height="2"/><rect class="cls-1" x="17" y="37" width="2" height="2"/><rect class="cls-1" x="17" y="33" width="2" height="2"/><rect class="cls-1" x="17" y="21" width="2" height="2"/><rect class="cls-1" x="17" y="13" width="2" height="2"/><rect class="cls-1" x="17" y="9" width="2" height="2"/><rect class="cls-1" x="17" y="17" width="2" height="2"/><rect class="cls-1" x="17" y="29" width="2" height="2"/><rect class="cls-1" x="17" y="25" width="2" height="2"/><rect class="cls-1" x="17" y="5" width="2" height="2"/><rect class="cls-1" x="21" y="5" width="2" height="2"/><rect class="cls-1" x="41" y="5" width="2" height="2"/><polyline class="cls-2" points="28 4 31 7 37 1"/></svg>