<svg width="512" height="512" viewBox="0 0 512 512" fill="none" xmlns="http://www.w3.org/2000/svg">
<path d="M256 512C397.4 512 512 397.4 512 256C512 114.6 397.4 0 256 0C114.6 0 0 114.6 0 256C0 397.4 114.6 512 256 512ZM216 336H240V272H216C202.7 272 192 261.3 192 248C192 234.7 202.7 224 216 224H264C277.3 224 288 234.7 288 248V336H296C309.3 336 320 346.7 320 360C320 373.3 309.3 384 296 384H216C202.7 384 192 373.3 192 360C192 346.7 202.7 336 216 336ZM256 192C238.3 192 224 177.7 224 160C224 142.3 238.3 128 256 128C273.7 128 288 142.3 288 160C288 177.7 273.7 192 256 192Z" fill="#F49D46"/>
</svg>
