<svg id="Object" xmlns="http://www.w3.org/2000/svg" viewBox="0 0 1898.52 1485.11"><defs><style>.cls-1,.cls-2{opacity:0.06;}.cls-2{fill:#231f20;}.cls-3,.cls-41{fill:none;}.cls-3{stroke:#e6e7e8;stroke-miterlimit:10;stroke-width:20px;}.cls-4{fill:#fc9e49;}.cls-5{fill:#f6561e;}.cls-6{fill:#f67e1e;}.cls-7{fill:#fff;}.cls-8{fill:#f9baa9;}.cls-9{fill:#5874c0;}.cls-10{fill:#485083;}.cls-11{fill:#f0f1f2;}.cls-12{fill:#f9a4a9;}.cls-13{fill:#ff8f49;}.cls-14{fill:#5e617f;}.cls-15{fill:#feb41f;}.cls-16{fill:#ffcb05;}.cls-17{fill:#ffdc7a;}.cls-18{fill:#58549d;}.cls-19{fill:#a8714f;}.cls-20{fill:#f7bd67;}.cls-21{fill:#4e5ea6;}.cls-22{fill:#415393;}.cls-23{fill:#bec1c5;}.cls-24{fill:#9c6449;}.cls-25{fill:#424459;}.cls-26{fill:#4f4f7c;}.cls-27{fill:#474573;}.cls-28{fill:#5a5a8c;}.cls-29{fill:#92a6b7;}.cls-30{fill:#afc1d3;}.cls-31{fill:#c9dafc;}.cls-32{fill:#ea8365;}.cls-33{fill:#f48f76;}.cls-34{fill:#5f5363;}.cls-35{fill:#ffad94;}.cls-36{fill:#d0d2d3;}.cls-37{fill:#a6a8ab;}.cls-38{fill:#e6e7e8;}.cls-39{fill:#bbbdbf;}.cls-40{fill:#3d4956;}.cls-41{stroke:#808184;stroke-linecap:round;stroke-linejoin:round;stroke-width:10px;}</style></defs><title>Artboard 766 copy 3</title><polygon class="cls-1" points="1393.07 335.19 715.37 722.42 1216.19 1013.97 1894.63 624.7 1393.07 335.19"/><polygon class="cls-1" points="111.63 1016.01 -2.2 1075.77 617.59 1436.58 721.2 1376.38 111.63 1016.01"/><polygon class="cls-1" points="1215.1 1163.24 949.26 1314.69 1249.5 1484.41 1505.12 1336.6 1215.1 1163.24"/><polygon class="cls-1" points="962.36 906.51 513.3 1165.07 766.82 1312.93 1204.99 1053.9 962.36 906.51"/><path class="cls-2" d="M752,895.49c0,31-62,56.11-138.48,56.11s-138.47-25.12-138.47-56.11,62-56.11,138.47-56.11S752,864.51,752,895.49Z"/><polyline class="cls-3" points="1413.33 441.15 820.73 107.33 107.77 516.91 107.77 245.52"/><path class="cls-4" d="M172.33,106.1,156,96.7l0,0a17.75,17.75,0,0,0-18.44-.34L40,152.38a38.35,38.35,0,0,0-19.19,33.21V344.3a11.88,11.88,0,0,0,6.38,10.58v0l16.45,9.48,2.61-6.83-4.75-4.41,110-63.22a25.74,25.74,0,0,0,12.89-22.31V111.91c0-.26,0-.49,0-.74Z"/><path class="cls-5" d="M81.51,201.49,24.76,168.75A38.26,38.26,0,0,1,40,152.38l6.31-3.64,35.14,20.32Z"/><path class="cls-5" d="M20.92,183.71l25.54,14.77V350.31l-4.92,2.83,4.75,4.41-2.61,6.83L27.23,354.9v0a11.88,11.88,0,0,1-6.38-10.58V185.59C20.85,185,20.88,184.33,20.92,183.71Z"/><path class="cls-6" d="M154.12,105.93l-97.5,56a38.35,38.35,0,0,0-19.19,33.21V353.85a12,12,0,0,0,18,10.4l112.68-64.77A25.77,25.77,0,0,0,181,277.16V121.46A17.92,17.92,0,0,0,154.12,105.93Z"/><path class="cls-7" d="M156.58,246.32l-13.67,7.9v23.49l-25.38,14.65V268.87L68.88,297V274.34l41.28-100.45,27-15.56L99.65,251.67l18.67-10.78V220l24.59-14.2v20.86l13.67-7.89Z"/><path class="cls-8" d="M242,481c-1-28.51,10.26-80,34.32-116.54l-22-20.89s-33.65,56.63-35.18,137.64c-5.93,17-5.51,22.08-3.58,31.86s3.37,13.15,11.54,15.88S237.22,523,237.22,523c-1.89-15.72,1-24.7,1-24.7s3.67,1.39,4.63,8.76,5.31,5.14,5.31,5.14,2.35-2,.43-11S242,481,242,481Z"/><path class="cls-9" d="M328.84,763.63c-4.17-5.14-21.39-16.09-23.31-18.18s.53-10.16.53-10.16l-32.39-6.09a86.7,86.7,0,0,0-6.07,32.07c18.46,10.32,48.73,21.49,56.42,21.06S333,768.76,328.84,763.63Z"/><path class="cls-9" d="M421.2,752.7c-5.06-4.25-24-11.74-26.33-13.43s-1.4-10.07-1.4-10.07l-33,.16a86.56,86.56,0,0,0,.13,32.64c20.07,6.63,51.91,11.86,59.39,10S426.27,757,421.2,752.7Z"/><path class="cls-10" d="M379.43,471.41s15.77,126.48,18.34,258c0,0-18.13,7.84-42.66,3.57,0,0-7.12-144.17-18.28-206.55l-7.91-38.81-.54-25.51,47.05-13.58Z"/><path class="cls-8" d="M482.45,436.93c-8.3-6.77-15.86-8.6-20-9.1,0,0,0,0,0,0-.91-.56-.11-.92-.07-.94a97.16,97.16,0,0,1,10.34-.79c6,.59,2.44-3.51,2.44-3.51C463.26,418,449,423,449,423s-44.24-21.54-62.84-71.57l-20.57,17.32s18.47,45.48,76.62,72c3.67,4.11,11.25,3.85,15.94,5.64a37.08,37.08,0,0,1,11.16,6.11c4.06,3.05,9.69,2.67,13.22-3C487.54,441.53,482.45,436.93,482.45,436.93Z"/><path class="cls-11" d="M397.52,359c-9.4-26.68-20-59.68-20-59.68l-8,29,6,49.37C386.46,372.91,393.78,364.33,397.52,359Z"/><path class="cls-12" d="M318,270.82a87.46,87.46,0,0,1-2.44,15.74l2.43,14.8,25.41,13.55h8.2l2.28-9.62s-3.15-20-1.23-27.12Z"/><path class="cls-10" d="M283.74,457.52s-.19,135.54-1,152.31S267.59,729.2,267.59,729.2s6.72,14.33,43.6,8.9l17.35-120,8.29-112.31-1.2-29Z"/><path class="cls-11" d="M358.38,301.58l.15-3.06-5.92-3.67C347,310.66,313.72,289,313.72,289l-.58,1.41-3-1.41-6,10.28,10.38,119.45,11.71,53.17s16.33,3.73,37.32-5.6l6-167Z"/><path class="cls-13" d="M377.5,299.29l-25.19-8.05.43,7.27,2.71,29.57s1.95,74.66.24,156.36c-.08,4.05,3.68,9.65,7.72,9.84s12.85-3.59,18.17-6.31a6.9,6.9,0,0,0,3.75-6.4C384.6,460.31,381.16,362.11,377.5,299.29Z"/><path class="cls-13" d="M315.59,286.56c-36.29,11.17-50.41,26.55-50.41,26.55,13.84,33.43,11.29,133.32,10.19,163a12,12,0,0,0,8.6,12c11.93,3.6,31.87,7.64,41.06,9a5.8,5.8,0,0,0,6.75-5.62C328.91,343.94,315.59,286.56,315.59,286.56Z"/><path class="cls-8" d="M308.62,262.25s4,27.19,30.79,28.75c30.94,1.79,35.67-35.44,33.09-53.19-2.42-16.6-22.17-37.3-44.54-26.13C311.17,220.07,304.36,237.28,308.62,262.25Z"/><path class="cls-11" d="M289.76,347.84c-.52-16.14-3.89-49.15-24.6-34.78,0,0-18,27.78-30.44,56.11,4.62,6.18,16.22,17,33.78,21.17,4.86-10.44,7-17.09,12.73-26.62C285.1,357.29,289.9,352.35,289.76,347.84Z"/><path class="cls-14" d="M374.22,221.36a38,38,0,0,0-26.41-17.71,37.51,37.51,0,0,0-29.33,8.4c-16.11,13.53-20.32,39.47-10.35,57.8a31.9,31.9,0,0,0,5.23,6.74c.44.47,3.6,3,3.6,3.52l4.9-8.5c-4.74-1.52-5.78-9.14-5.78-9.14-1.84-12.27,7.2-9.67,7.2-9.67-.8,5.37.72,13.63.72,13.63,1.13,1.6,6.42,1.32,6.42,1.32-2.08-10.58,3.21-22.61,3.21-22.61,26.81-4,39.15,1.91,39.44,2,.69.3,2.56-2.32,2.8-2.69,4.3-6.73,2.5-16-1.29-22.53Z"/><path class="cls-14" d="M449,423a96.05,96.05,0,0,1-8.72-5.14c-8.65,5.11-10.57,12.18-10.86,16.33,4.06,2.26,8.26,4.47,12.79,6.53C441,429.77,449,423,449,423Z"/><path class="cls-15" d="M296.37,241.21s-.81,12.14,22.74,18.8a118.84,118.84,0,0,0,33.25,4.61A135.54,135.54,0,0,0,369,263.41c7.5-1,16.84-2.82,21.3-9.66,2.19-3.35,1.3-7.28-1.13-10.24a42.47,42.47,0,0,0-10.2-8.74c-3.86-2.36-30.22-11.57-52.08-8.5S296.68,233.1,296.37,241.21Z"/><path class="cls-16" d="M373.2,216.11c-9.83-14.83-32.65-18.33-48.24-12.29-12.36,4.78-22.95,15.27-24.38,28.91a21.38,21.38,0,0,0-.18,6.18s7.25,23.83,63.83,17c0,0,12.31-1.64,17.11-7.18a4.63,4.63,0,0,0,1-3.79C381.22,237.57,377.87,223.14,373.2,216.11Z"/><path class="cls-17" d="M373.2,216.11c-9.83-14.83-32.65-18.33-48.24-12.29a44,44,0,0,0-9.58,5.2,42.45,42.45,0,0,1,4.32-2c15.57-6.28,38.41-2.53,48.3,13.05,4.69,7.39,8.1,22.52,9.21,30.21a5.57,5.57,0,0,1,0,1.58,14.75,14.75,0,0,0,4.18-3.14,4.63,4.63,0,0,0,1-3.79C381.22,237.57,377.87,223.14,373.2,216.11Z"/><path class="cls-18" d="M329.26,779c-32.28-6.2-54.4-18.26-61.55-22.58-.16,3-.11,4.82-.11,4.82,18.46,10.32,48.73,21.49,56.42,21.06A6.52,6.52,0,0,0,329.26,779Z"/><path class="cls-18" d="M424.54,767.5c-35.08-.21-57.73-7.93-64.77-10.72.42,3.26.87,5.22.87,5.22,20.07,6.63,51.91,11.86,59.39,10A6.56,6.56,0,0,0,424.54,767.5Z"/><path class="cls-14" d="M220,463.32c-.46,5.83-.78,11.79-.89,17.9C235.36,477.37,242,481,242,481a133.72,133.72,0,0,1,.64-17.16C234.57,462.26,226,462.66,220,463.32Z"/><path class="cls-19" d="M487.43,470.1a97,97,0,0,1-10.14-7.23s-1-15.08-10-24.15c0,0-5.2-1.68-2.25,3.64a97.7,97.7,0,0,1,3.39,9.79c0,.05,0,.92-.89.32,0,0,0,0,0,0-2.1-3.6-6.8-9.81-16.31-14.71,0,0-6.25-2.84-11.59,4.9-3.79,5.5-1.9,10.82,2.52,13.32a36.82,36.82,0,0,1,10.05,7.8c3.51,3.59,6.29,10.65,11.53,12.38,3.95,3.57,7.92,6.8,11.87,9.78Z"/><path class="cls-20" d="M704.69,492.14c-4.24-43.43-37.49-53.52-37.49-53.52l9.49-37.79S727.4,422.58,731.57,492c4.11,68.5-50.55,73.83-50.55,73.83l-3.32-23.93S708.18,527.93,704.69,492.14Z"/><path class="cls-21" d="M556.64,876.77a47,47,0,0,1,11.89,5.41c8.34,5.32,13.55,0,13.55,0L611.14,884c3.44,4.15,2.19,35.8,2.19,35.8-7.44,3.62-17.3,3.47-25.31,2.73-18.66-1.71-35.6-11.1-49.63-23.61a25.85,25.85,0,0,1-2.71-2.83C537.83,873.81,552.94,875.91,556.64,876.77Z"/><path class="cls-22" d="M536.61,891.66c14.72,13.12,32.49,23,52.07,24.77,7.8.71,17.24.86,24.8-2.15-.06,3.27-.15,5.47-.15,5.47-7.44,3.62-17.3,3.47-25.31,2.73-18.66-1.71-35.6-11.1-49.63-23.61a25.85,25.85,0,0,1-2.71-2.83,42.82,42.82,0,0,1,.72-4.6C536.48,891.51,536.54,891.59,536.61,891.66Z"/><path class="cls-21" d="M633.49,865.09a46.64,46.64,0,0,1,11.89,5.41c8.33,5.32,13.54,0,13.54,0L688,872.27c3.44,4.15,2.19,35.79,2.19,35.79-7.44,3.63-17.3,3.48-25.31,2.74-18.67-1.72-35.6-11.1-49.63-23.61a25.85,25.85,0,0,1-2.71-2.83C614.67,862.13,629.78,864.23,633.49,865.09Z"/><path class="cls-22" d="M613.46,880c14.72,13.12,32.48,23,52.07,24.77,7.8.71,17.24.86,24.8-2.15-.07,3.27-.15,5.46-.15,5.46-7.44,3.63-17.3,3.48-25.31,2.74-18.67-1.72-35.6-11.1-49.63-23.61a25.85,25.85,0,0,1-2.71-2.83,40.1,40.1,0,0,1,.72-4.6C613.33,879.83,613.38,879.91,613.46,880Z"/><polygon class="cls-23" points="655.74 387.95 651.52 389.18 652.78 394.68 655.74 387.95"/><path class="cls-22" d="M685.65,565.85s-2.16,45.83-3.39,75.44l13.81,227.45a3.72,3.72,0,0,1-1.78,3.3c-5.25,3.34-21.49,9.31-48,6.22a4.86,4.86,0,0,1-4.4-4.45L628.68,568.3Z"/><path class="cls-22" d="M576.84,583.05l58.52-20.4s1.61,28-7.35,63l-9.53,259.05a4.31,4.31,0,0,1-3.14,3.69,88.14,88.14,0,0,1-49.06-.16,3.41,3.41,0,0,1-2.52-3.34Z"/><path class="cls-21" d="M574.22,584.73c.14-.92.29-1.82.41-2.66,1.58-11,2.27-22.15,2.89-33.2,1.22-22-.41-43.63-.36-65.55.06-20.87,1.36-41.84,1.36-62.74a10.09,10.09,0,0,1,.07-2.08l30.91-12.65,46.24-9.78,17,3.9c7.35.43,13.41,5.34,14.76,11.93,2.42,11.86,5.1,31,1.59,46.56-2.31,10.31-2.14,31.72-4.3,50.26-.21,1.93,4,53.25,5.53,68.16,0,0,.39,3-3.63,6.07-11.6,9.72-27.49,13.46-42.15,15.42-21.19,2.83-43.1,2.1-64.28-.4C572.8,597.08,573.37,590.4,574.22,584.73Z"/><path class="cls-24" d="M652.59,381.27c-1.44,1.41.15,2.23-1.48,3.35-9.7,6.67-24.44,9.13-36.27,12-1.88.46-3.93.86-6,1.19l.68,8.05a68.55,68.55,0,0,0,33,.06c6.48-1.64,11.77-3.64,11.77-9.84l-.7-15.29Z"/><path class="cls-20" d="M655.74,388,660,397s-21,24-56.55,11.32l5.37-5.43S641.43,407.28,655.74,388Z"/><path class="cls-19" d="M650.37,313.21c-22-8.76-47.29-.37-58.27,18.87-10.12,17.74-10,42.1,1.15,59.52,6.4,10,26.28,6.93,36.42,5,14.09-2.68,28.41-8.85,36-20.52,8.33-12.84,10.3-30.19,4.58-44.21C666.6,323,659.23,316.74,650.37,313.21Z"/><path class="cls-25" d="M627,310.07a49,49,0,0,1,23.37,3.14c8.86,3.53,16.23,9.77,19.86,18.66,5.72,14,3.75,31.37-4.58,44.21-7.58,11.67-21.89,17.84-36,20.52a102.07,102.07,0,0,1-16.87,1.95l-3.13-13.68c5.11,0,8.27-5.7,9.22-12.25s-2.78-8.72-6-8.89-4,13.2-4,13.2l-4.74-1.38c.67-9.24-.87-21.88-.87-21.88a30.89,30.89,0,0,1-22.56-8.55S581.36,313.1,627,310.07Z"/><path class="cls-25" d="M588.29,386.05c-1.78-4.31-.65-6.38-.65-6.38,7,0,11.11,9.45,11.11,9.45,4.81-2.31,5.48-14.53,5.48-14.53l4.68,2.34.76,7.94,3.13,3.81v9.87a111.45,111.45,0,0,1-11,9.66,3.87,3.87,0,0,1-5-.16c-5.44-5.41-3.37-16.2-3.37-16.2a4.28,4.28,0,0,0,2.35-.54C594.63,386.36,588.29,386.05,588.29,386.05Z"/><path class="cls-20" d="M595.09,434.9c-7.6-18.13-16.43-16.46-16.43-16.46S558.84,480.7,544.27,481c0,0-34.24,1.91-61.76-20.68h0c-4-1.86-6.48,1.75-6.48,1.76l-12,18.2a2.35,2.35,0,0,0,.76,2.4c7.37,6.05,41,32,77.11,32.9a35.29,35.29,0,0,0,8.14-.81c28.18-6,40-34.46,45.05-57.59C598,442.74,595.09,434.9,595.09,434.9Z"/><polygon class="cls-26" points="582 1155.86 582 1179.41 536.02 1152.89 536.02 1129.35 582 1155.86"/><polygon class="cls-27" points="582 1155.86 582 1179.41 976.89 950.06 976.89 926.52 582 1155.86"/><polygon class="cls-28" points="536.02 1129.35 582 1155.86 976.89 926.52 930.91 900.01 536.02 1129.35"/><polygon class="cls-26" points="644.58 1192.04 644.58 1215.58 598.6 1189.07 598.6 1165.52 644.58 1192.04"/><polygon class="cls-27" points="644.58 1192.04 644.58 1215.58 1039.48 986.24 1039.48 962.69 644.58 1192.04"/><polygon class="cls-28" points="598.6 1165.52 644.58 1192.04 1039.48 962.69 993.5 936.18 598.6 1165.52"/><polygon class="cls-26" points="707.17 1228.21 707.17 1251.75 661.19 1225.24 661.19 1201.7 707.17 1228.21"/><polygon class="cls-27" points="707.17 1228.21 707.17 1251.75 1102.07 1022.41 1102.07 998.87 707.17 1228.21"/><polygon class="cls-28" points="661.19 1201.7 707.17 1228.21 1102.07 998.87 1056.09 972.35 661.19 1201.7"/><polygon class="cls-26" points="769.76 1264.38 769.76 1287.92 723.78 1261.41 723.78 1237.87 769.76 1264.38"/><polygon class="cls-27" points="769.76 1264.38 769.76 1287.92 1164.65 1058.58 1164.65 1035.04 769.76 1264.38"/><polygon class="cls-28" points="723.78 1237.87 769.76 1264.38 1164.65 1035.04 1118.68 1008.53 723.78 1237.87"/><polygon class="cls-26" points="582 1122.21 582 1145.76 536.02 1119.24 536.02 1095.7 582 1122.21"/><polygon class="cls-27" points="582 1122.21 582 1145.76 976.89 916.41 976.89 892.87 582 1122.21"/><polygon class="cls-28" points="536.02 1095.7 582 1122.21 976.89 892.87 930.91 866.36 536.02 1095.7"/><polygon class="cls-26" points="644.58 1158.39 644.58 1181.93 598.6 1155.42 598.6 1131.88 644.58 1158.39"/><polygon class="cls-27" points="644.58 1158.39 644.58 1181.93 1039.48 952.59 1039.48 929.04 644.58 1158.39"/><polygon class="cls-28" points="598.6 1131.88 644.58 1158.39 1039.48 929.04 993.5 902.53 598.6 1131.88"/><polygon class="cls-26" points="707.17 1194.56 707.17 1218.1 661.19 1191.59 661.19 1168.05 707.17 1194.56"/><polygon class="cls-27" points="707.17 1194.56 707.17 1218.1 1102.07 988.76 1102.07 965.22 707.17 1194.56"/><polygon class="cls-28" points="661.19 1168.05 707.17 1194.56 1102.07 965.22 1056.09 938.71 661.19 1168.05"/><polygon class="cls-26" points="769.76 1230.73 769.76 1254.28 723.78 1227.76 723.78 1204.22 769.76 1230.73"/><polygon class="cls-27" points="769.76 1230.73 769.76 1254.28 1164.65 1024.93 1164.65 1001.39 769.76 1230.73"/><polygon class="cls-28" points="723.78 1204.22 769.76 1230.73 1164.65 1001.39 1118.68 974.88 723.78 1204.22"/><polygon class="cls-26" points="582 1088.57 582 1112.11 536.02 1085.6 536.02 1062.05 582 1088.57"/><polygon class="cls-27" points="582 1088.57 582 1112.11 976.89 882.76 976.89 859.22 582 1088.57"/><polygon class="cls-28" points="536.02 1062.05 582 1088.57 976.89 859.22 930.91 832.71 536.02 1062.05"/><polygon class="cls-26" points="644.58 1124.74 644.58 1148.28 598.6 1121.77 598.6 1098.23 644.58 1124.74"/><polygon class="cls-27" points="644.58 1124.74 644.58 1148.28 1039.48 918.94 1039.48 895.39 644.58 1124.74"/><polygon class="cls-28" points="598.6 1098.23 644.58 1124.74 1039.48 895.39 993.5 868.88 598.6 1098.23"/><polygon class="cls-26" points="707.17 1160.91 707.17 1184.45 661.19 1157.94 661.19 1134.4 707.17 1160.91"/><polygon class="cls-27" points="707.17 1160.91 707.17 1184.45 1102.07 955.11 1102.07 931.57 707.17 1160.91"/><polygon class="cls-28" points="661.19 1134.4 707.17 1160.91 1102.07 931.57 1056.09 905.06 661.19 1134.4"/><polygon class="cls-26" points="769.76 1197.08 769.76 1220.63 723.78 1194.11 723.78 1170.57 769.76 1197.08"/><polygon class="cls-27" points="769.76 1197.08 769.76 1220.63 1164.65 991.28 1164.65 967.74 769.76 1197.08"/><polygon class="cls-28" points="723.78 1170.57 769.76 1197.08 1164.65 967.74 1118.68 941.23 723.78 1170.57"/><polygon class="cls-26" points="582 1054.92 582 1078.46 536.02 1051.95 536.02 1028.4 582 1054.92"/><polygon class="cls-27" points="582 1054.92 582 1078.46 976.89 849.12 976.89 825.57 582 1054.92"/><polygon class="cls-28" points="536.02 1028.4 582 1054.92 976.89 825.57 930.91 799.06 536.02 1028.4"/><polygon class="cls-26" points="644.58 1091.09 644.58 1114.63 598.6 1088.12 598.6 1064.58 644.58 1091.09"/><polygon class="cls-27" points="644.58 1091.09 644.58 1114.63 1039.48 885.29 1039.48 861.75 644.58 1091.09"/><polygon class="cls-28" points="598.6 1064.58 644.58 1091.09 1039.48 861.75 993.5 835.23 598.6 1064.58"/><polygon class="cls-26" points="707.17 1127.26 707.17 1150.81 661.19 1124.29 661.19 1100.75 707.17 1127.26"/><polygon class="cls-27" points="707.17 1127.26 707.17 1150.81 1102.07 921.46 1102.07 897.92 707.17 1127.26"/><polygon class="cls-28" points="661.19 1100.75 707.17 1127.26 1102.07 897.92 1056.09 871.41 661.19 1100.75"/><polygon class="cls-29" points="145.7 1103.53 145.7 1132.96 227.81 1085.61 227.81 1056.19 145.7 1103.53"/><polygon class="cls-30" points="145.7 1103.53 145.7 1132.96 -1.02 1048.24 -1.02 1018.81 145.7 1103.53"/><polygon class="cls-31" points="227.81 1056.19 145.7 1103.53 -1.02 1018.81 81.09 971.47 227.81 1056.19"/><polygon class="cls-29" points="145.7 1070.13 145.7 1099.56 227.81 1052.21 227.81 1022.78 145.7 1070.13"/><polygon class="cls-30" points="145.7 1070.13 145.7 1099.56 -1.02 1014.83 -1.02 985.41 145.7 1070.13"/><polygon class="cls-31" points="227.81 1022.78 145.7 1070.13 -1.02 985.41 81.09 938.07 227.81 1022.78"/><polygon class="cls-29" points="303.71 1194.44 303.71 1223.87 385.82 1176.52 385.82 1147.1 303.71 1194.44"/><polygon class="cls-30" points="303.71 1194.44 303.71 1223.87 157 1139.15 157 1109.72 303.71 1194.44"/><polygon class="cls-31" points="385.82 1147.1 303.71 1194.44 157 1109.72 239.1 1062.38 385.82 1147.1"/><polygon class="cls-29" points="303.71 1161.04 303.71 1190.47 385.82 1143.12 385.82 1113.69 303.71 1161.04"/><polygon class="cls-30" points="303.71 1161.04 303.71 1190.47 157 1105.74 157 1076.32 303.71 1161.04"/><polygon class="cls-31" points="385.82 1113.69 303.71 1161.04 157 1076.32 239.1 1028.98 385.82 1113.69"/><polygon class="cls-29" points="461.73 1285.35 461.73 1314.78 543.83 1267.43 543.83 1238.01 461.73 1285.35"/><polygon class="cls-30" points="461.73 1285.35 461.73 1314.78 315.01 1230.06 315.01 1200.63 461.73 1285.35"/><polygon class="cls-31" points="543.83 1238.01 461.73 1285.35 315.01 1200.63 397.11 1153.29 543.83 1238.01"/><polygon class="cls-29" points="461.73 1251.95 461.73 1281.38 543.83 1234.03 543.83 1204.61 461.73 1251.95"/><polygon class="cls-30" points="461.73 1251.95 461.73 1281.38 315.01 1196.65 315.01 1167.23 461.73 1251.95"/><polygon class="cls-31" points="543.83 1204.61 461.73 1251.95 315.01 1167.23 397.11 1119.89 543.83 1204.61"/><polygon class="cls-29" points="619.74 1376.26 619.74 1405.69 701.84 1358.35 701.84 1328.92 619.74 1376.26"/><polygon class="cls-30" points="619.74 1376.26 619.74 1405.69 473.02 1320.97 473.02 1291.54 619.74 1376.26"/><polygon class="cls-31" points="701.84 1328.92 619.74 1376.26 473.02 1291.54 555.12 1244.2 701.84 1328.92"/><polygon class="cls-29" points="619.74 1342.86 619.74 1372.29 701.84 1324.94 701.84 1295.52 619.74 1342.86"/><polygon class="cls-30" points="619.74 1342.86 619.74 1372.29 473.02 1287.57 473.02 1258.14 619.74 1342.86"/><polygon class="cls-31" points="701.84 1295.52 619.74 1342.86 473.02 1258.14 555.12 1210.8 701.84 1295.52"/><polygon class="cls-32" points="1226.11 1162.11 1226.11 1247.74 1292.92 1209.18 1292.92 1123.55 1226.11 1162.11"/><polygon class="cls-33" points="1226.11 1162.11 1226.11 1247.74 1145.75 1201.27 1145.75 1115.64 1226.11 1162.11"/><polygon class="cls-34" points="1218.1 1168.22 1218.1 1193.29 1193.39 1179 1193.39 1153.94 1218.1 1168.22"/><polygon class="cls-35" points="1292.92 1123.55 1226.11 1162.11 1145.75 1115.64 1212.57 1077.08 1292.92 1123.55"/><polygon class="cls-32" points="1140.02 1211.69 1140.02 1297.33 1206.84 1258.77 1206.84 1173.14 1140.02 1211.69"/><polygon class="cls-33" points="1140.02 1211.69 1140.02 1297.33 1059.67 1250.86 1059.67 1165.22 1140.02 1211.69"/><polygon class="cls-34" points="1132.02 1217.81 1132.02 1242.87 1107.31 1228.59 1107.31 1203.52 1132.02 1217.81"/><polygon class="cls-35" points="1206.84 1173.14 1140.02 1211.69 1059.67 1165.22 1126.48 1126.67 1206.84 1173.14"/><polygon class="cls-32" points="1053.94 1261.27 1053.94 1346.91 1120.76 1308.35 1120.76 1222.72 1053.94 1261.27"/><polygon class="cls-33" points="1053.94 1261.27 1053.94 1346.91 973.59 1300.44 973.59 1214.8 1053.94 1261.27"/><polygon class="cls-34" points="1045.94 1267.39 1045.94 1292.45 1021.23 1278.17 1021.23 1253.1 1045.94 1267.39"/><polygon class="cls-35" points="1120.76 1222.72 1053.94 1261.27 973.59 1214.8 1040.4 1176.25 1120.76 1222.72"/><polygon class="cls-32" points="1321.89 1217.85 1321.89 1303.49 1388.7 1264.93 1388.7 1179.3 1321.89 1217.85"/><polygon class="cls-33" points="1321.89 1217.85 1321.89 1303.49 1241.53 1257.02 1241.53 1171.38 1321.89 1217.85"/><polygon class="cls-34" points="1313.88 1223.97 1313.88 1249.03 1289.17 1234.75 1289.17 1209.68 1313.88 1223.97"/><polygon class="cls-35" points="1388.7 1179.3 1321.89 1217.85 1241.53 1171.38 1308.35 1132.83 1388.7 1179.3"/><polygon class="cls-32" points="1235.81 1267.43 1235.81 1353.07 1302.62 1314.51 1302.62 1228.88 1235.81 1267.43"/><polygon class="cls-33" points="1235.81 1267.43 1235.81 1353.07 1155.45 1306.6 1155.45 1220.96 1235.81 1267.43"/><polygon class="cls-34" points="1227.8 1273.55 1227.8 1298.62 1203.09 1284.33 1203.09 1259.27 1227.8 1273.55"/><polygon class="cls-35" points="1302.62 1228.88 1235.81 1267.43 1155.45 1220.96 1222.27 1182.41 1302.62 1228.88"/><polygon class="cls-32" points="1149.72 1317.02 1149.72 1402.65 1216.54 1364.1 1216.54 1278.46 1149.72 1317.02"/><polygon class="cls-33" points="1149.72 1317.02 1149.72 1402.65 1069.37 1356.18 1069.37 1270.55 1149.72 1317.02"/><polygon class="cls-34" points="1141.72 1323.13 1141.72 1348.2 1117.01 1333.91 1117.01 1308.85 1141.72 1323.13"/><polygon class="cls-35" points="1216.54 1278.46 1149.72 1317.02 1069.37 1270.55 1136.18 1231.99 1216.54 1278.46"/><polygon class="cls-32" points="1421.28 1274.24 1421.28 1359.88 1488.1 1321.32 1488.1 1235.69 1421.28 1274.24"/><polygon class="cls-33" points="1421.28 1274.24 1421.28 1359.88 1340.92 1313.41 1340.92 1227.77 1421.28 1274.24"/><polygon class="cls-34" points="1413.28 1280.36 1413.28 1305.42 1388.57 1291.14 1388.57 1266.07 1413.28 1280.36"/><polygon class="cls-35" points="1488.1 1235.69 1421.28 1274.24 1340.92 1227.77 1407.74 1189.22 1488.1 1235.69"/><polygon class="cls-32" points="1335.2 1323.82 1335.2 1409.46 1402.02 1370.9 1402.02 1285.27 1335.2 1323.82"/><polygon class="cls-33" points="1335.2 1323.82 1335.2 1409.46 1254.84 1362.99 1254.84 1277.36 1335.2 1323.82"/><polygon class="cls-34" points="1327.2 1329.94 1327.2 1355.01 1302.49 1340.72 1302.49 1315.66 1327.2 1329.94"/><polygon class="cls-35" points="1402.02 1285.27 1335.2 1323.82 1254.84 1277.36 1321.66 1238.8 1402.02 1285.27"/><polygon class="cls-32" points="1249.12 1373.41 1249.12 1459.04 1315.93 1420.48 1315.93 1334.85 1249.12 1373.41"/><polygon class="cls-33" points="1249.12 1373.41 1249.12 1459.04 1168.76 1412.58 1168.76 1326.94 1249.12 1373.41"/><polygon class="cls-34" points="1241.12 1379.53 1241.12 1404.59 1216.41 1390.3 1216.41 1365.24 1241.12 1379.53"/><polygon class="cls-35" points="1315.93 1334.85 1249.12 1373.41 1168.76 1326.94 1235.58 1288.38 1315.93 1334.85"/><polygon class="cls-7" points="1393.07 208.74 715.37 595.96 1216.19 887.52 1894.63 498.24 1393.07 208.74"/><polygon class="cls-36" points="1216.19 887.52 1894.63 498.24 1894.63 516.24 1216.19 905.52 1216.19 887.52"/><polygon class="cls-37" points="1216.19 887.52 715.37 595.96 715.37 613.97 1216.19 905.52 1216.19 887.52"/><polygon class="cls-2" points="1304.13 306.38 792.1 592.12 1039.33 736.05 1551.73 449.3 1304.13 306.38"/><path class="cls-28" d="M1351.87,288.2c-.72-2.42-.22-4.92,1.48-7.52s4.5-5,8.42-7.29a43.78,43.78,0,0,1,12.63-4.86,41.48,41.48,0,0,1,13-.86,26.73,26.73,0,0,1,10.9,3.29,12.22,12.22,0,0,1,5.36,5.29,7.44,7.44,0,0,1-.11,6.27l-11.67.63q1.72-4.29-2.34-6.65a13.46,13.46,0,0,0-5.66-1.65,21.19,21.19,0,0,0-6.85.61,26.08,26.08,0,0,0-6.88,2.78,15.45,15.45,0,0,0-4.82,4,4.69,4.69,0,0,0-1,4,5.47,5.47,0,0,0,2.86,3.27q4.08,2.35,11.52,1.35l-1.09,6.74a37,37,0,0,1-10.86.07,26,26,0,0,1-9.17-3.1C1354.48,292.71,1352.58,290.62,1351.87,288.2Z"/><path class="cls-28" d="M1382.34,305.76a8.91,8.91,0,0,1,1.44-7.57q2.54-3.92,8.35-7.27a43.25,43.25,0,0,1,12.6-4.82,42.24,42.24,0,0,1,13.11-.83,27.06,27.06,0,0,1,11,3.31q4.67,2.7,5.75,6.36a8.91,8.91,0,0,1-1.44,7.57q-2.54,3.92-8.35,7.27a43.25,43.25,0,0,1-12.6,4.82,42.25,42.25,0,0,1-13.11.84,27.22,27.22,0,0,1-11-3.32C1385,310.32,1383.06,308.21,1382.34,305.76Zm20.36,2.58a22.6,22.6,0,0,0,6.81-.63,25.88,25.88,0,0,0,6.9-2.78,15.24,15.24,0,0,0,4.8-4,4.87,4.87,0,0,0,1.09-3.93,4.94,4.94,0,0,0-2.63-3.13,12.5,12.5,0,0,0-5.43-1.52,22,22,0,0,0-6.81.63,25.71,25.71,0,0,0-6.9,2.77,15.24,15.24,0,0,0-4.8,4,4.88,4.88,0,0,0-1.09,3.93,5,5,0,0,0,2.63,3.14A12.7,12.7,0,0,0,1402.7,308.34Z"/><path class="cls-28" d="M1476.74,317.14l-39.2,22.63-6.84-4,7.91-19.55-20.89,12.06-8.14-4.7L1448.77,301l6.85,3.95-7.91,19.55,20.88-12.06Z"/><path class="cls-28" d="M1480.08,329.22l-9-5.21,8.79-5.08,26.33,15.2-8.79,5.08-9-5.19L1458,351.57l-8.32-4.8Z"/><path class="cls-28" d="M1493.35,360l-4.53-2.62-10.41,6-8.32-4.8,39.2-22.63,13.43,7.76q4,2.3,5.17,5a5.78,5.78,0,0,1-.51,5.52,16.34,16.34,0,0,1-6.1,5.37,29.76,29.76,0,0,1-8.91,3.42,27.84,27.84,0,0,1-9.22.4l-6,10.78-8.91-5.14Zm22.49-8.42c.14-1.08-.65-2.12-2.36-3.1l-4.61-2.67-11.48,6.63,4.62,2.67a9.8,9.8,0,0,0,5.34,1.37,11.83,11.83,0,0,0,5.53-1.69Q1515.63,353.16,1515.84,351.54Z"/><path class="cls-28" d="M1528.48,383.47l-12.43-7.17-9.93,3.06-8.48-4.9,52.17-15.14,8.19,4.73-26.18,30.15-8.65-5Zm5.74-6.12,8.76-9.43L1526.66,373Z"/><path class="cls-28" d="M1541.94,397.94q-1.08-3.63,1.47-7.52t8.43-7.29a43.51,43.51,0,0,1,12.63-4.87,41.75,41.75,0,0,1,13-.85,26.72,26.72,0,0,1,10.9,3.28,12.24,12.24,0,0,1,5.36,5.3,7.44,7.44,0,0,1-.11,6.27l-11.68.63q1.74-4.31-2.33-6.65a13.46,13.46,0,0,0-5.67-1.66,21.39,21.39,0,0,0-6.84.61,26.29,26.29,0,0,0-6.88,2.78,15.6,15.6,0,0,0-4.82,4,4.61,4.61,0,0,0-1.05,3.95,5.44,5.44,0,0,0,2.86,3.27c2.71,1.57,6.56,2,11.52,1.35l-1.09,6.74a37.4,37.4,0,0,1-10.87.06,25.7,25.7,0,0,1-9.16-3.09Q1543,401.56,1541.94,397.94Z"/><path class="cls-28" d="M1601.16,399.12l-9-5.21,8.79-5.08,26.33,15.2-8.79,5.08-9-5.19-30.4,17.55-8.32-4.8Z"/><polygon class="cls-38" points="1587.47 468.86 1075.43 754.6 1222.78 839.71 1735.18 552.96 1587.47 468.86"/><polygon class="cls-39" points="1587.59 603.54 1494.48 550.12 1504.26 544.47 1597.37 597.89 1587.59 603.54"/><polygon class="cls-28" points="1632.92 573.61 1539.81 520.19 1578.69 500.72 1671.8 554.14 1632.92 573.61"/><polygon class="cls-39" points="1793.62 519.86 1700.51 466.43 1726.93 453.61 1820.04 507.04 1793.62 519.86"/><polygon class="cls-39" points="1570.01 613.69 1476.9 560.27 1486.69 554.62 1579.8 608.04 1570.01 613.69"/><polygon class="cls-39" points="1552.44 623.84 1459.33 570.41 1469.11 564.77 1562.22 618.19 1552.44 623.84"/><polygon class="cls-39" points="1534.86 633.99 1441.75 580.56 1451.53 574.92 1544.64 628.34 1534.86 633.99"/><polygon class="cls-39" points="1517.28 644.14 1424.17 590.71 1433.95 585.06 1527.06 638.49 1517.28 644.14"/><polygon class="cls-39" points="1499.7 654.28 1406.59 600.86 1416.38 595.21 1509.48 648.64 1499.7 654.28"/><polygon class="cls-39" points="1482.13 664.43 1389.02 611.01 1398.8 605.36 1491.91 658.79 1482.13 664.43"/><polygon class="cls-39" points="1464.55 674.58 1371.44 621.16 1381.22 615.51 1474.33 668.93 1464.55 674.58"/><polygon class="cls-39" points="1446.97 684.73 1353.86 631.31 1363.64 625.66 1456.75 679.08 1446.97 684.73"/><polygon class="cls-39" points="1374.33 663.09 1336.28 641.45 1346.07 635.81 1384.11 657.44 1374.33 663.09"/><polygon class="cls-39" points="1385.47 717.98 1292.36 664.55 1302.14 658.9 1395.25 712.33 1385.47 717.98"/><polygon class="cls-39" points="1367.89 728.13 1274.78 674.7 1284.57 669.05 1377.68 722.48 1367.89 728.13"/><polygon class="cls-39" points="1350.32 738.27 1257.21 684.85 1266.99 679.2 1360.1 732.63 1350.32 738.27"/><polygon class="cls-39" points="1332.74 748.42 1239.63 695 1249.41 689.35 1342.52 742.77 1332.74 748.42"/><polygon class="cls-39" points="1315.16 758.57 1222.05 705.15 1231.83 699.5 1324.94 752.92 1315.16 758.57"/><polygon class="cls-39" points="1297.58 768.72 1204.47 715.29 1214.26 709.65 1307.37 763.07 1297.58 768.72"/><polygon class="cls-39" points="1280.01 778.87 1186.9 725.44 1196.68 719.8 1289.79 773.22 1280.01 778.87"/><polygon class="cls-39" points="1262.43 789.02 1169.32 735.59 1179.1 729.94 1272.21 783.37 1262.43 789.02"/><polygon class="cls-39" points="1244.85 799.16 1151.74 745.74 1161.52 740.09 1254.63 793.52 1244.85 799.16"/><polygon class="cls-39" points="1172.21 777.52 1134.16 755.89 1143.94 750.24 1181.99 771.87 1172.21 777.52"/><path class="cls-2" d="M478.72,769.63c0,31-62,56.11-138.48,56.11s-138.47-25.12-138.47-56.11,62-56.11,138.47-56.11S478.72,738.65,478.72,769.63Z"/><path class="cls-2" d="M1795.61,1291.75c0,27-54,48.88-120.63,48.88s-120.63-21.88-120.63-48.88,54-48.88,120.63-48.88S1795.61,1264.76,1795.61,1291.75Z"/><path class="cls-8" d="M1766.19,914.43c4.09-44.06-27.09-60.47-27.09-60.47l13.58-31.88s48.21,27,39.08,97c-9,69-61.17,66.22-61.17,66.22l3-20.31S1762.82,950.73,1766.19,914.43Z"/><path class="cls-11" d="M1758.32,820.37s27.42,25.77,38.84,69.56c0,0-7,11.59-35.47,13l-19.3-30.29Z"/><path class="cls-9" d="M1705.07,1265.93a35.35,35.35,0,0,1,9.61,4.08c8.17,4.91,13.06-.36,13.06-.36l28.06.94c3.42,3.91,3.06,34.44,3.06,34.44-7.08,3.7-16.58,3.81-24.32,3.31-17.36-1.12-36.46-10.42-50-21.43-.39-.32-.19-2.84-.2-3.37a32.14,32.14,0,0,1,.11-3.67,22.69,22.69,0,0,1,1.66-7,12.45,12.45,0,0,1,11.88-7.75A27.76,27.76,0,0,1,1705.07,1265.93Z"/><path class="cls-9" d="M1597.3,1264.63a45,45,0,0,1,11.46,5.21c8,5.13,13.06,0,13.06,0l28,1.71c3.31,4,2.11,34.51,2.11,34.51-7.17,3.5-16.68,3.35-24.4,2.64-18-1.66-34.33-10.7-47.86-22.76a25,25,0,0,1-2.61-2.74C1579.16,1261.77,1593.73,1263.8,1597.3,1264.63Z"/><path class="cls-18" d="M1578,1279c14.19,12.65,31.32,22.15,50.2,23.88,7.52.69,16.62.84,23.91-2.07-.06,3.16-.14,5.27-.14,5.27-7.17,3.5-16.68,3.35-24.4,2.64-18-1.66-34.33-10.7-47.86-22.76a25,25,0,0,1-2.61-2.74,39.74,39.74,0,0,1,.69-4.43C1577.86,1278.84,1577.91,1278.92,1578,1279Z"/><path class="cls-40" d="M1699.48,1010.88,1696,1151.37l16.88,123s34.07,5.21,48.14-3L1746.79,1147l5.15-150.87Z"/><path class="cls-40" d="M1622.57,1144.05l22.53-141.44,60.83,9.66-35,138.82L1658.66,1283c-31.5,7.27-47-8.42-47-8.42Z"/><path class="cls-13" d="M1639.64,997.15c-.13-7.4,7.19-66.17,7.19-66.17.91-42.94,5.41-92.84,6.39-105.85a4.37,4.37,0,0,1,3.3-3.91l31-6.29,37.07-4.37,16.64,2.57c7.34.92,17.44,4.39,19,10.85,2.48,10,3.65,17.19,1.77,31.13-1.36,10.12-5.74,45.82-5.74,60.7,0,39.79,2,46.76.84,86.8,0,0,.21,3-3.72,5.85-30.22,24.14-108.68,1.77-108.68,1.77C1637.83,1009.23,1639.73,1002.94,1639.64,997.15Z"/><path class="cls-12" d="M1725.32,795.43a31.19,31.19,0,0,1-3.85,3.63c-8,6.26-20.56,10.31-30.1,12.71-1.52.39-3.17.71-4.85,1l1,2.19c9.84,3.55,19,6.76,26.06,4.9,5.22-1.39,10.72-3.62,11-9.75l.71-14.66Z"/><path class="cls-8" d="M1721.27,727.75a41.23,41.23,0,0,0-53.21,18.92c-9.25,17.79-9.09,42.21,1,59.69,5.85,10.08,24,6.95,33.27,5,12.86-2.68,25.94-8.88,32.85-20.58,7.61-12.87,9.41-30.27,4.19-44.33A32.88,32.88,0,0,0,1721.27,727.75Z"/><path class="cls-14" d="M1699.93,724.6a41.06,41.06,0,0,1,21.34,3.15,32.88,32.88,0,0,1,18.14,18.71c5.22,14.06,3.42,31.46-4.19,44.33-6.91,11.7-20,17.9-32.85,20.58a86.34,86.34,0,0,1-15.41,2l-2.86-13.72c4.67,0,7.56-5.72,8.42-12.29s-2.54-8.74-5.48-8.91-3.63,13.24-3.63,13.24l-4.33-1.39c.61-9.27-.8-21.94-.8-21.94s-10.91,1.29-20.6-8.58C1657.68,759.74,1658.25,727.64,1699.93,724.6Z"/><path class="cls-18" d="M1684.41,1281.49c13.83,11,32.91,20.11,50.32,21.23,7.65.5,17,.37,24.12-3,0,3.18,0,5.32,0,5.32-7.08,3.7-16.58,3.81-24.32,3.31-17.36-1.12-36.46-10.42-50-21.43-.39-.32-.19-2.84-.2-3.37C1684.33,1282.86,1684.39,1282.18,1684.41,1281.49Z"/><path class="cls-15" d="M1752.7,768.86s1.47-13.46-23-22.78c0,0-20.58-9-41.56-8s-38.09,6.76-39.57,15.14c-1,5.58,10.57,17.19,17.65,21.27,8.52,4.91,32.2,14.23,55.08,12S1752.23,778.36,1752.7,768.86Z"/><path class="cls-16" d="M1702.2,716.32a49.35,49.35,0,0,1,9,1.53c14.64,3.94,28.43,15.13,32.79,30.59a56.2,56.2,0,0,1,1.33,6c.66,3.74,1.18,7.28,1.62,10a7.93,7.93,0,0,1-4.08,8.29c-6.09,3.17-14.69,4.42-14.69,4.42-66.6,4.34-69.83-22.72-69.83-22.72,0-.44.08-.82.11-1.25.31-9.89,3.52-19.56,10.71-26.28C1677.92,718.7,1690.37,715.42,1702.2,716.32Z"/><path class="cls-17" d="M1737,769.49c-.44-3.09-1-7.08-1.62-11.3-.34-2.29-.77-4.56-1.33-6.78a49.08,49.08,0,0,0-32.79-34.51c-.93-.28-1.89-.48-2.84-.7,1.27,0,2.54,0,3.8.12a49.35,49.35,0,0,1,9,1.53c14.64,3.94,28.43,15.13,32.79,30.59a56.2,56.2,0,0,1,1.33,6c.66,3.74,1.18,7.28,1.62,10a7.92,7.92,0,0,1-4.08,8.28,38.39,38.39,0,0,1-6.86,2.64A9.88,9.88,0,0,0,1737,769.49Z"/><path class="cls-14" d="M1635,773.44l47.07-3.43a2.79,2.79,0,0,1,3,2.57l1.32,18.14a2.78,2.78,0,0,1-2.57,3l-47.08,3.43a2.79,2.79,0,0,1-3-2.57l-1.32-18.14A2.78,2.78,0,0,1,1635,773.44Z"/><path class="cls-8" d="M1621.35,804.07l17.39,9.43s-31.71,33.57-22.14,46.32c10.81,14.41,37.09-36.28,37.09-36.28,15.4,16.85,11.6,38.1,11.6,38.1-16.57,24.86-48.74,50.84-72.91,19C1566.19,846.14,1621.35,804.07,1621.35,804.07Z"/><path class="cls-11" d="M1656.52,821.22a25.73,25.73,0,0,0-11.3,7.62c-5.31,6-14.37,23.36-26.48,31,0,0,4,33.16,15.75,39.63,0,0,37.21-28.91,36.17-51.92C1670.66,847.53,1670.77,829.88,1656.52,821.22Z"/><path class="cls-8" d="M1627.34,785.33c1.24-5.31,9.87-6.76,13.48-5.76a48.44,48.44,0,0,0,7.35,1.19s4.94-3.86,7.31,3c0,0,0,.06,0,.1,1.19,2.6,1.62,6.35,2,7.54.62,1.82-3.79,15-9.07,16.47-3.51,1-7.44,3.8-9.71,5.61l-17.39-9.43A188.42,188.42,0,0,0,1627.34,785.33Z"/><path class="cls-11" d="M1737.29,877.52s-14.31,9.89-42,4.15V896.9s26.54,6,42-2.91Z"/><polygon class="cls-39" points="1494.6 455.98 1288.06 337.92 1297.85 332.27 1504.38 450.33 1494.6 455.98"/><polygon class="cls-39" points="1477.02 466.13 1270.49 348.06 1280.27 342.42 1486.81 460.48 1477.02 466.13"/><polygon class="cls-39" points="1459.44 476.27 1252.91 358.21 1262.69 352.57 1469.23 470.63 1459.44 476.27"/><polygon class="cls-39" points="1441.87 486.42 1235.33 368.36 1245.11 362.71 1451.65 480.77 1441.87 486.42"/><polygon class="cls-39" points="1424.29 496.57 1217.75 378.51 1227.54 372.86 1434.07 490.92 1424.29 496.57"/><polygon class="cls-39" points="1406.71 506.72 1200.18 388.66 1209.96 383.01 1416.49 501.07 1406.71 506.72"/><polygon class="cls-39" points="1389.13 516.87 1182.6 398.81 1192.38 393.16 1398.92 511.22 1389.13 516.87"/><polygon class="cls-39" points="1371.56 527.02 1165.02 408.96 1174.8 403.31 1381.34 521.37 1371.56 527.02"/><polygon class="cls-39" points="1353.98 537.16 1147.44 419.11 1157.22 413.46 1363.76 531.52 1353.98 537.16"/><polygon class="cls-39" points="1255.52 500.42 1129.87 429.25 1139.65 423.61 1265.3 494.77 1255.52 500.42"/><path class="cls-41" d="M878.42,503.19s42.6,23.89,51.49-6-26-22.11-26.52-7.87,8.49,31,18.23,36.45,39.67-4.14,39.67-4.14l5.32,17,12.95-1.1,1.7,20.83,18.87-6.37"/><polyline class="cls-41" points="1034.37 586.77 1047.11 562.88 1044.78 609.13 1062.14 576.13 1068.12 602.97 1090.58 592.5 1145.49 630.77"/><path class="cls-1" d="M1061.51,648c-30.24-16.56-57.68-29-73.31-33.79-12.44-10.6-37.72-27-68-43.56-45-24.61-83.76-40.22-86.7-34.85s31.12,29.66,76.06,54.27c30.24,16.56,57.69,29,73.32,33.79,12.43,10.6,37.72,27,67.95,43.56,45,24.61,83.76,40.22,86.7,34.85S1106.45,672.65,1061.51,648Z"/></svg>