<svg id="Layer_1" data-name="Layer 1" xmlns="http://www.w3.org/2000/svg" viewBox="0 0 64 64"><defs><style>.cls-1{fill:none;stroke:#ff9829;stroke-miterlimit:2;stroke-width:2px;}.cls-2{fill:#ff9829;}</style></defs><title>contract-orange-64px</title><rect class="cls-1" x="6" y="1" width="45" height="59"/><line class="cls-1" y1="13" x2="13" y2="13"/><polyline class="cls-1" points="9 63 54 63 54 5"/><line class="cls-1" x1="21" y1="11" x2="44" y2="11"/><line class="cls-1" x1="21" y1="15" x2="44" y2="15"/><line class="cls-1" x1="21" y1="25" x2="44" y2="25"/><line class="cls-1" x1="21" y1="29" x2="37" y2="29"/><circle class="cls-1" cx="13" cy="13" r="3"/><line class="cls-1" y1="47" x2="13" y2="47"/><circle class="cls-1" cx="13" cy="47" r="3"/><line class="cls-1" x1="26" y1="52" x2="44" y2="52"/><polyline class="cls-1" points="21 51 29 43 26 40 24 42 30 48 32 46 34 48 36 46 40 46"/><rect class="cls-2" x="41" y="42" width="2" height="2" transform="translate(-18.1 42.29) rotate(-45)"/><rect class="cls-1" x="59" y="24" width="4" height="31"/><rect class="cls-1" x="60" y="19" width="2" height="2"/></svg>