<svg width="1062" height="1062" viewBox="0 0 1062 1062" fill="none" xmlns="http://www.w3.org/2000/svg">
<path d="M894.375 167.768C826.814 100.204 736.961 63 641.383 63C545.841 63 455.98 100.203 388.426 167.768C260.771 295.385 250.32 496.055 356.281 636.116L308.467 684.023L297.328 672.868C294.176 669.716 289.929 667.955 285.466 667.955C281.002 667.955 276.742 669.716 273.603 672.868L66.9142 879.506C63.7616 882.658 62 886.922 62 891.367C62 895.83 63.7616 900.089 66.9142 903.228L158.806 995.087C161.958 998.239 166.205 1000 170.668 1000C175.132 1000 179.392 998.239 182.531 995.087L389.184 788.467C395.744 781.907 395.744 771.308 389.184 764.749L378.178 753.744L425.956 705.855C487.729 752.721 562.505 778.437 641.404 778.437C736.982 778.437 826.834 741.234 894.397 673.669C1033.87 534.172 1033.87 307.254 894.376 167.774L894.375 167.768ZM170.66 959.501L102.498 891.363L285.475 708.46L353.607 776.597L170.66 959.501ZM354.452 729.979L332.206 707.753L377.888 661.977C381.428 665.835 384.665 669.896 388.44 673.635C392.179 677.392 396.241 680.68 400.099 684.238L354.452 729.979ZM870.655 649.918C809.42 711.144 727.986 744.854 641.383 744.854C554.78 744.854 473.383 711.138 412.146 649.918C285.735 523.545 285.735 317.873 412.146 191.5C473.381 130.275 554.779 96.5641 641.383 96.5641C727.985 96.5641 809.418 130.28 870.655 191.5C997.084 317.873 997.084 523.527 870.655 649.918ZM854.417 207.738C797.495 150.838 721.886 119.506 641.402 119.506C560.958 119.506 485.294 150.838 428.424 207.738C310.987 325.156 310.987 516.245 428.424 633.663C485.314 690.562 560.955 721.894 641.402 721.894C721.881 721.894 797.511 690.562 854.417 633.663C971.854 516.245 971.854 325.156 854.417 207.738ZM830.692 609.947C780.127 660.503 712.906 688.348 641.406 688.348C569.902 688.348 502.701 660.503 452.147 609.947C347.783 505.599 347.783 335.81 452.147 231.481C502.712 180.924 569.915 153.079 641.406 153.079C712.897 153.079 780.147 180.924 830.692 231.481C935.038 335.81 935.038 505.599 830.692 609.947ZM648.931 228.672C573.89 228.672 497.941 251.719 497.941 295.768V547.36C497.941 591.409 573.89 614.456 648.931 614.456C723.971 614.456 799.921 591.409 799.921 547.36V295.768C799.921 251.719 723.958 228.672 648.931 228.672ZM766.368 463.49C766.368 473.236 725.216 497.038 648.931 497.038C572.646 497.038 531.494 473.236 531.494 463.49V423.25C560.619 438.717 604.857 446.716 648.931 446.716C692.97 446.716 737.242 438.699 766.368 423.25V463.49ZM766.368 379.62C766.368 389.366 725.216 413.168 648.931 413.168C572.646 413.168 531.494 389.366 531.494 379.62V339.38C560.619 354.861 604.857 362.864 648.931 362.864C692.97 362.864 737.242 354.847 766.368 339.38V379.62ZM648.931 262.22C725.216 262.22 766.368 286.021 766.368 295.768C766.368 305.496 725.216 329.316 648.931 329.316C572.646 329.316 531.494 305.496 531.494 295.768C531.494 286.021 572.649 262.22 648.931 262.22ZM648.931 580.908C572.646 580.908 531.494 557.106 531.494 547.36V507.12C560.619 522.587 604.857 530.586 648.931 530.586C692.97 530.586 737.242 522.569 766.368 507.12V547.36C766.368 557.106 725.198 580.908 648.931 580.908Z" fill="#FF9829"/>
</svg>
