<svg id="Layer_1" data-name="Layer 1" xmlns="http://www.w3.org/2000/svg" viewBox="0 0 64 64"><defs><style>.cls-1{fill:none;stroke:#ff9829;stroke-miterlimit:2;stroke-width:2px;}.cls-2{fill:#ff9829;}</style></defs><title>implement-orange-64px</title><polyline class="cls-1" points="48 27 48 44 16 44 16 1 48 1 48 21"/><line class="cls-1" x1="64" y1="63" y2="63"/><line class="cls-1" y1="52" x2="64" y2="52"/><line class="cls-1" x1="12" y1="8" x2="20" y2="8"/><line class="cls-1" x1="12" y1="37" x2="20" y2="37"/><line class="cls-1" x1="24" y1="8" x2="43" y2="8"/><line class="cls-1" x1="24" y1="11" x2="43" y2="11"/><line class="cls-1" x1="24" y1="20" x2="39" y2="20"/><line class="cls-1" x1="24" y1="23" x2="35" y2="23"/><line class="cls-1" x1="28" y1="39" x2="43" y2="39"/><polyline class="cls-1" points="25 37 31 31 29 29 27 31 31 35 33 33 35 35 37 33 39 33"/><rect class="cls-2" x="41" y="29" width="2" height="2"/><polyline class="cls-1" points="59 20 63 24 59 28"/><line class="cls-1" x1="63" y1="24" x2="47" y2="24"/><polyline class="cls-1" points="7 21 11 25 7 29"/><line class="cls-1" x1="11" y1="25" y2="25"/><path class="cls-2" d="M5.5,55A2.5,2.5,0,1,0,8,57.5,2.5,2.5,0,0,0,5.5,55ZM6,58H5V57H6Z"/><path class="cls-2" d="M18.5,55A2.5,2.5,0,1,0,21,57.5,2.5,2.5,0,0,0,18.5,55Zm.5,3H18V57h1Z"/><path class="cls-2" d="M31.5,55A2.5,2.5,0,1,0,34,57.5,2.5,2.5,0,0,0,31.5,55Zm.5,3H31V57h1Z"/><path class="cls-2" d="M44.5,55A2.5,2.5,0,1,0,47,57.5,2.5,2.5,0,0,0,44.5,55Zm.5,3H44V57h1Z"/><path class="cls-2" d="M57.5,55A2.5,2.5,0,1,0,60,57.5,2.5,2.5,0,0,0,57.5,55Zm.5,3H57V57h1Z"/><polyline class="cls-1" points="19 47 51 47 51 27"/><line class="cls-1" x1="51" y1="21" x2="51" y2="4"/></svg>