<svg id="Object" xmlns="http://www.w3.org/2000/svg" xmlns:xlink="http://www.w3.org/1999/xlink" viewBox="0 0 1898.52 1485.11"><defs><style>.cls-1{fill:none;}.cls-2{fill:#e6e7e8;}.cls-3{fill:#3f357a;}.cls-4{opacity:0.62;}.cls-5{fill:#fff;}.cls-6{opacity:0.24;}.cls-7{opacity:0.06;}.cls-8{fill:#231f20;}.cls-9{fill:#d0d2d3;}.cls-10{fill:#a6a8ab;}.cls-11{opacity:0.1;}.cls-12{fill:#7500e7;}.cls-13{fill:#5a5a8c;}.cls-14{fill:#537df4;}.cls-15{fill:#bbbdbf;}.cls-16{opacity:0.04;}.cls-17{fill:#fc9e49;}.cls-18{fill:#f6561e;}.cls-19{fill:#f67e1e;}.cls-20{fill:#c9dafc;}.cls-21{fill:#2fba20;}.cls-22{fill:#f1f1f2;}.cls-23{fill:#ed7e61;}.cls-24{fill:#d34a51;}.cls-25{clip-path:url(#clip-path);}.cls-26{opacity:0.17;}.cls-27{fill:#ff8c17;}.cls-28{fill:#ffd245;}.cls-29{opacity:0.28;}.cls-30{opacity:0.2;}</style><clipPath id="clip-path"><path class="cls-1" d="M971.63,197.52,1440.36,470v48.41l-62.2,202.3L1035.67,861.29,512.38,626.36s-61.77-194.74-58.91-196S650.35,300,650.35,300Z"/></clipPath></defs><title>Artboard 766</title><polygon class="cls-2" points="89.98 629.71 89.98 236.22 109.98 236.22 109.98 594.98 887.01 144.25 962.37 186.22 952.64 203.7 887.21 167.25 89.98 629.71"/><path class="cls-3" d="M949,6.27,915.92,25v.2l-.35-.2V315.32L1504,656.92l33.27-19.08V348.09Zm22.25,238.05,26-14.86V212.64L1440,470v30.73l-15.31,8.79L971.28,245.93Z"/><g class="cls-4"><polygon class="cls-5" points="1504.03 366.55 1537.3 348.08 949.03 6.27 915.92 24.95 1504.03 366.55"/></g><g class="cls-6"><polygon class="cls-5" points="1440.36 518.38 1440.36 500.5 1424.71 509.48 1440.36 518.38"/></g><g class="cls-7"><polygon class="cls-8" points="1897.33 1142.06 1455.14 886.83 1051.43 1117.51 1019.2 1094.45 1577.59 757.28 1136.34 509.87 577.67 821.1 638.42 885.84 40.96 1227.22 482.49 1484.26 892.95 1248.74 1299.21 1485.25 1897.33 1142.06"/></g><polygon class="cls-5" points="639.56 628.65 42.1 970.03 483.63 1227.07 1081.75 883.88 639.56 628.65"/><polygon class="cls-9" points="483.63 1227.07 1081.75 883.88 1081.75 899.75 483.63 1242.95 483.63 1227.07"/><polygon class="cls-10" points="483.63 1227.07 42.1 970.03 42.1 985.91 483.63 1242.95 483.63 1227.07"/><g class="cls-11"><polygon class="cls-12" points="561.16 714.74 109.74 966.65 327.7 1093.53 779.44 840.74 561.16 714.74"/></g><path class="cls-13" d="M628.3,684.11l-8-4.6,7.75-4.47,23.21,13.4-7.75,4.47-7.92-4.57-26.81,15.48-7.33-4.24Z"/><path class="cls-13" d="M647.85,717.62,640.29,722l-20.8-12L654,690l20.33,11.74-7.56,4.36-13.06-7.55-5.83,3.36,11.51,6.65-7.3,4.22-11.52-6.65-6.31,3.65Z"/><path class="cls-13" d="M703.58,718.62l-34.56,20-6-3.48,7-17.24-18.41,10.63-7.18-4.14,34.55-20,6,3.48-7,17.23,18.42-10.63Z"/><path class="cls-13" d="M708.76,721.61,721,728.69q4.25,2.46,5.43,5.58a7,7,0,0,1-.92,6.43q-2.09,3.3-7.32,6.32a37,37,0,0,1-10.94,4.23,33.35,33.35,0,0,1-11.13.52,25.38,25.38,0,0,1-9.68-3.13l-12.25-7.08ZM694,744a13.66,13.66,0,0,0,7.87,1.64,20.42,20.42,0,0,0,9-2.85q4.44-2.57,4.94-5.19c.34-1.74-.61-3.26-2.83-4.54l-4.63-2.67-18.95,10.94Z"/><path class="cls-13" d="M733.15,766.87l-7.56,4.36-20.8-12,34.55-20L759.67,751l-7.56,4.36-13.06-7.54-5.83,3.36,11.52,6.65-7.31,4.22-11.52-6.65-6.31,3.65Z"/><path class="cls-13" d="M750.18,774.82l-4-2.31L737,777.82l-7.33-4.24,34.55-20,11.85,6.84c2.34,1.36,3.86,2.83,4.55,4.43a5.11,5.11,0,0,1-.44,4.87,14.58,14.58,0,0,1-5.38,4.73,26.21,26.21,0,0,1-7.86,3,24.45,24.45,0,0,1-8.12.35l-5.27,9.5-7.85-4.53ZM770,767.4c.12-1-.57-1.87-2.08-2.74l-4.07-2.35-10.12,5.84,4.07,2.36a8.74,8.74,0,0,0,4.72,1.21,10.58,10.58,0,0,0,4.87-1.49C769,769.3,769.87,768.35,770,767.4Z"/><path class="cls-13" d="M806,800.59a9.49,9.49,0,0,1-4,3.79,18.09,18.09,0,0,1-9.75,2.47,21.89,21.89,0,0,1-10.39-3.15l-14-8.08,34.55-20,13.25,7.65c3.31,1.91,5,3.84,5.11,5.77s-1.23,3.71-4,5.31a18.45,18.45,0,0,1-11,2.32A3.81,3.81,0,0,1,806,800.59Zm-10.37-1.11c2.34-1.35,2.22-2.76-.34-4.24l-6.15-3.55-7,4,6.15,3.55A6.91,6.91,0,0,0,795.65,799.48Zm6.94-15.54-6.67,3.84,5,2.91a6.65,6.65,0,0,0,7.06.2q3.3-1.9-.4-4Z"/><path class="cls-13" d="M830.86,792.11l7.33,4.23-34.55,19.95-7.33-4.23Z"/><path class="cls-13" d="M843.41,799.35l12.26,7.08q4.25,2.46,5.43,5.59a7,7,0,0,1-.92,6.42q-2.08,3.3-7.31,6.32a37.15,37.15,0,0,1-11,4.23,33.35,33.35,0,0,1-11.13.52,25.44,25.44,0,0,1-9.68-3.13l-12.25-7.08Zm-14.8,22.36a13.73,13.73,0,0,0,7.87,1.63,20.38,20.38,0,0,0,9-2.85q4.44-2.57,4.94-5.19c.34-1.74-.61-3.26-2.83-4.54l-4.63-2.67L824,819Z"/><polygon class="cls-14" points="586.77 918.2 414.99 819.02 423.61 814.04 595.39 913.22 586.77 918.2"/><polygon class="cls-14" points="571.27 927.15 399.49 827.97 408.11 822.99 579.9 922.17 571.27 927.15"/><polygon class="cls-14" points="555.77 936.09 383.99 836.91 392.62 831.93 564.4 931.11 555.77 936.09"/><polygon class="cls-14" points="540.28 945.04 368.5 845.86 377.12 840.88 548.9 940.06 540.28 945.04"/><polygon class="cls-14" points="524.78 953.99 353 854.81 361.62 849.83 533.41 949.01 524.78 953.99"/><polygon class="cls-14" points="509.29 962.93 337.5 863.75 346.13 858.78 517.91 957.95 509.29 962.93"/><polygon class="cls-14" points="493.79 971.88 322.01 872.7 330.63 867.72 502.41 966.9 493.79 971.88"/><polygon class="cls-14" points="478.29 980.83 306.51 881.65 315.13 876.67 486.92 975.85 478.29 980.83"/><polygon class="cls-14" points="462.8 989.77 291.01 890.6 299.64 885.62 471.42 984.79 462.8 989.77"/><polygon class="cls-14" points="398.75 970.69 275.52 899.54 284.14 894.56 407.38 965.71 398.75 970.69"/><path class="cls-12" d="M198.22,944.17S266.29,940,275.52,986c8.33,41.56,81.75-23.11,149.12,25.76l-88.09,50.86L164.77,963.48Z"/><path class="cls-14" d="M516.92,808.46A50.84,50.84,0,0,1,494.84,804l-11.13,6.42-8.6-5,10.83-6.25a38.93,38.93,0,0,1-9.56-8.5c-2.38-3.06-3.69-5.87-3.92-8.46L489.31,778a16.6,16.6,0,0,0,3,7.12,27,27,0,0,0,6.65,6.59l16.59-9.58A43.54,43.54,0,0,1,509,774a9.19,9.19,0,0,1-.94-7.6q1.17-4,7.84-7.81a41.14,41.14,0,0,1,19.36-5.17,50,50,0,0,1,22.21,4.51l11-6.36,8.61,5-10.83,6.25q9.59,6.68,11.4,13.58l-16.52,4.57a22.62,22.62,0,0,0-8-10.58l-16.89,9.75a43,43,0,0,1,6.57,8,9.07,9.07,0,0,1,.94,7.54c-.78,2.65-3.37,5.23-7.74,7.75A40.34,40.34,0,0,1,516.92,808.46Zm11.17-39a7.51,7.51,0,0,0,2,4.29l14.11-8.15a20.25,20.25,0,0,0-7.65-1.14,13.51,13.51,0,0,0-6.07,1.71C528.87,767.08,528.06,768.18,528.09,769.42Zm-12.92,28.23a12.39,12.39,0,0,0,5.82-1.58c1.66-1,2.49-2.05,2.49-3.27a7.53,7.53,0,0,0-1.82-4.26L508,796.46A20,20,0,0,0,515.17,797.65Z"/><polygon class="cls-2" points="810.95 857.98 359.53 1109.89 489.44 1184.92 941.17 932.13 810.95 857.98"/><polygon class="cls-15" points="811.06 976.72 728.97 929.62 737.6 924.64 819.68 971.74 811.06 976.72"/><polygon class="cls-12" points="851.02 950.33 768.93 903.23 803.21 886.07 885.29 933.17 851.02 950.33"/><polygon class="cls-15" points="992.69 902.94 910.61 855.84 933.9 844.54 1015.98 891.64 992.69 902.94"/><polygon class="cls-15" points="795.56 985.66 713.47 938.57 722.1 933.59 804.18 980.69 795.56 985.66"/><polygon class="cls-15" points="780.06 994.61 697.98 947.51 706.6 942.53 788.69 989.63 780.06 994.61"/><polygon class="cls-15" points="764.57 1003.56 682.48 956.46 691.11 951.48 773.19 998.58 764.57 1003.56"/><polygon class="cls-15" points="749.07 1012.51 666.99 965.41 675.61 960.43 757.7 1007.53 749.07 1012.51"/><polygon class="cls-15" points="733.57 1021.45 651.49 974.35 660.11 969.37 742.2 1016.47 733.57 1021.45"/><polygon class="cls-15" points="718.08 1030.4 635.99 983.3 644.62 978.32 726.7 1025.42 718.08 1030.4"/><polygon class="cls-15" points="702.58 1039.35 620.5 992.25 629.12 987.27 711.21 1034.37 702.58 1039.35"/><polygon class="cls-15" points="687.09 1048.29 605 1001.19 613.62 996.22 695.71 1043.32 687.09 1048.29"/><polygon class="cls-15" points="623.04 1029.21 589.5 1010.14 598.13 1005.16 631.66 1024.23 623.04 1029.21"/><polygon class="cls-15" points="632.87 1077.61 550.78 1030.51 559.4 1025.53 641.49 1072.63 632.87 1077.61"/><polygon class="cls-15" points="617.37 1086.55 535.28 1039.45 543.91 1034.47 625.99 1081.57 617.37 1086.55"/><polygon class="cls-15" points="601.87 1095.5 519.79 1048.4 528.41 1043.42 610.5 1090.52 601.87 1095.5"/><polygon class="cls-15" points="586.38 1104.45 504.29 1057.35 512.91 1052.37 595 1099.47 586.38 1104.45"/><polygon class="cls-15" points="570.88 1113.39 488.79 1066.29 497.42 1061.31 579.5 1108.41 570.88 1113.39"/><polygon class="cls-15" points="555.38 1122.34 473.3 1075.24 481.92 1070.26 564.01 1117.36 555.38 1122.34"/><polygon class="cls-15" points="539.89 1131.29 457.8 1084.19 466.43 1079.21 548.51 1126.31 539.89 1131.29"/><polygon class="cls-15" points="524.39 1140.23 442.31 1093.13 450.93 1088.15 533.01 1135.25 524.39 1140.23"/><polygon class="cls-15" points="508.89 1149.18 426.81 1102.08 435.43 1097.1 517.52 1144.2 508.89 1149.18"/><polygon class="cls-15" points="444.85 1130.1 411.31 1111.03 419.94 1106.05 453.48 1125.12 444.85 1130.1"/><g class="cls-16"><polygon class="cls-8" points="639.56 628.65 42.1 970.03 483.63 1227.07 1081.75 883.88 639.56 628.65"/></g><path class="cls-17" d="M172.76,106.1l-16.33-9.4,0,0A17.75,17.75,0,0,0,138,96.38l-97.49,56a38.33,38.33,0,0,0-19.19,33.21V344.3a11.88,11.88,0,0,0,6.38,10.58v0l16.44,9.48,2.61-6.83L42,353.14l110-63.22a25.74,25.74,0,0,0,12.89-22.31V111.91c0-.26,0-.49-.05-.74Z"/><path class="cls-18" d="M82,201.49,25.19,168.75a38.34,38.34,0,0,1,15.29-16.37l6.31-3.64,35.14,20.32Z"/><path class="cls-18" d="M21.35,183.71,46.9,198.48V350.31L42,353.14l4.74,4.41-2.61,6.83L27.67,354.9v0a11.88,11.88,0,0,1-6.38-10.58V185.59C21.29,185,21.32,184.33,21.35,183.71Z"/><path class="cls-19" d="M154.55,105.93l-97.49,56a38.35,38.35,0,0,0-19.19,33.21V353.85a12,12,0,0,0,18,10.4l112.68-64.77a25.77,25.77,0,0,0,12.89-22.32V121.46A17.93,17.93,0,0,0,154.55,105.93Z"/><path class="cls-5" d="M149,244.15l.5,26.22L82,311.09l-.39-20.71,31.68-60.49a85,85,0,0,0,6.12-14.08,32.35,32.35,0,0,0,1.45-9.58c-.08-3.78-1.08-6.16-3-7.13s-4.73-.36-8.36,1.83a30.91,30.91,0,0,0-8.8,8.27,46.52,46.52,0,0,0-6.47,12.43L75.7,218.91a93.52,93.52,0,0,1,13.9-26.46,75.66,75.66,0,0,1,21.56-19.59q9.91-6,17.61-6.22t12.13,5.27q4.42,5.52,4.63,16.21a68.59,68.59,0,0,1-2.69,19.78Q140,218.18,131.5,234.09l-16,30.23Z"/><polygon class="cls-5" points="639.56 538.88 42.1 880.25 483.63 1137.29 1081.75 794.11 639.56 538.88"/><polygon class="cls-9" points="483.63 1137.29 1081.75 794.1 1081.75 809.97 483.63 1153.17 483.63 1137.29"/><polygon class="cls-10" points="483.63 1137.29 42.1 880.25 42.1 896.13 483.63 1153.17 483.63 1137.29"/><polygon class="cls-20" points="561.16 624.96 109.74 876.87 327.7 1003.75 779.44 750.96 561.16 624.96"/><path class="cls-13" d="M628.3,594.33l-8-4.6,7.75-4.47,23.21,13.4-7.75,4.47-7.92-4.57L608.82,614l-7.33-4.24Z"/><path class="cls-13" d="M647.85,627.84l-7.56,4.36-20.8-12,34.55-20L674.37,612l-7.56,4.36-13.06-7.55-5.83,3.36,11.51,6.65-7.3,4.22-11.52-6.65L634.3,620Z"/><path class="cls-13" d="M703.58,628.84,669,648.79l-6-3.48,7-17.24L651.55,638.7l-7.18-4.14,34.55-19.95,6,3.48-7,17.23,18.42-10.63Z"/><path class="cls-13" d="M708.76,631.83,721,638.91q4.25,2.46,5.43,5.58a7,7,0,0,1-.92,6.43q-2.09,3.3-7.32,6.32a37,37,0,0,1-10.94,4.23,33.35,33.35,0,0,1-11.13.52,25.38,25.38,0,0,1-9.68-3.13l-12.25-7.08ZM694,654.18a13.66,13.66,0,0,0,7.87,1.64,20.42,20.42,0,0,0,9-2.85q4.44-2.57,4.94-5.19c.34-1.74-.61-3.26-2.83-4.54l-4.63-2.67-18.95,10.94Z"/><path class="cls-13" d="M733.15,677.09l-7.56,4.36-20.8-12,34.55-20,20.33,11.73-7.56,4.36L739.05,658l-5.83,3.36,11.52,6.65-7.31,4.22-11.52-6.65-6.31,3.65Z"/><path class="cls-13" d="M750.18,685l-4-2.3L737,688l-7.33-4.24,34.55-19.95,11.85,6.84c2.34,1.36,3.86,2.83,4.55,4.43a5.11,5.11,0,0,1-.44,4.87,14.58,14.58,0,0,1-5.38,4.73,26.21,26.21,0,0,1-7.86,3,24.45,24.45,0,0,1-8.12.35l-5.27,9.5-7.85-4.53ZM770,677.62c.12-1-.57-1.87-2.08-2.74l-4.07-2.35-10.12,5.84,4.07,2.36a8.74,8.74,0,0,0,4.72,1.21,10.46,10.46,0,0,0,4.87-1.49C769,679.52,769.87,678.57,770,677.62Z"/><path class="cls-13" d="M806,710.81a9.49,9.49,0,0,1-4,3.79,18.09,18.09,0,0,1-9.75,2.47,21.89,21.89,0,0,1-10.39-3.15l-14-8.08,34.55-20,13.25,7.65c3.31,1.91,5,3.84,5.11,5.77s-1.23,3.71-4,5.31a18.45,18.45,0,0,1-11,2.32A3.81,3.81,0,0,1,806,710.81Zm-10.37-1.11c2.34-1.35,2.22-2.76-.34-4.24l-6.15-3.55-7,4,6.15,3.55A6.91,6.91,0,0,0,795.65,709.7Zm6.94-15.54L795.92,698l5,2.91a6.65,6.65,0,0,0,7.06.2q3.3-1.9-.4-4.05Z"/><path class="cls-13" d="M830.86,702.33l7.33,4.23-34.55,20-7.33-4.23Z"/><path class="cls-13" d="M843.41,709.57l12.26,7.08q4.25,2.46,5.43,5.59a7,7,0,0,1-.92,6.42q-2.08,3.3-7.31,6.32a37.15,37.15,0,0,1-11,4.23,33.35,33.35,0,0,1-11.13.52,25.44,25.44,0,0,1-9.68-3.13l-12.25-7.08Zm-14.8,22.36a13.73,13.73,0,0,0,7.87,1.63,20.38,20.38,0,0,0,9-2.85q4.44-2.57,4.94-5.19c.34-1.74-.61-3.26-2.83-4.54l-4.63-2.67-19,10.94Z"/><polygon class="cls-14" points="586.77 828.42 414.99 729.24 423.61 724.26 595.39 823.44 586.77 828.42"/><polygon class="cls-14" points="571.27 837.37 399.49 738.19 408.11 733.21 579.9 832.39 571.27 837.37"/><polygon class="cls-14" points="555.77 846.31 383.99 747.13 392.62 742.16 564.4 841.33 555.77 846.31"/><polygon class="cls-14" points="540.28 855.26 368.5 756.08 377.12 751.1 548.9 850.28 540.28 855.26"/><polygon class="cls-14" points="524.78 864.21 353 765.03 361.62 760.05 533.41 859.23 524.78 864.21"/><polygon class="cls-14" points="509.29 873.15 337.5 773.98 346.13 769 517.91 868.17 509.29 873.15"/><polygon class="cls-14" points="493.79 882.1 322.01 782.92 330.63 777.94 502.41 877.12 493.79 882.1"/><polygon class="cls-14" points="478.29 891.05 306.51 791.87 315.13 786.89 486.92 886.07 478.29 891.05"/><polygon class="cls-14" points="462.8 900 291.01 800.82 299.64 795.84 471.42 895.02 462.8 900"/><polygon class="cls-14" points="398.75 880.91 275.52 809.76 284.14 804.78 407.38 875.93 398.75 880.91"/><path class="cls-21" d="M198.22,854.39s68.07-4.16,77.3,41.88c8.33,41.55,81.75-23.12,149.12,25.75l-88.09,50.86L164.77,873.7Z"/><path class="cls-14" d="M516.92,718.68a50.84,50.84,0,0,1-22.08-4.43l-11.13,6.42-8.6-5,10.83-6.25a38.93,38.93,0,0,1-9.56-8.5c-2.38-3.06-3.69-5.87-3.92-8.46l16.85-4.26a16.6,16.6,0,0,0,3,7.12,27,27,0,0,0,6.65,6.59l16.59-9.58a43.23,43.23,0,0,1-6.55-8.14,9.19,9.19,0,0,1-.94-7.6q1.17-4,7.84-7.81a41.14,41.14,0,0,1,19.36-5.17,50,50,0,0,1,22.21,4.51l11-6.36,8.61,5L566.27,673q9.59,6.68,11.4,13.58l-16.52,4.57a22.62,22.62,0,0,0-8-10.58l-16.89,9.75a43,43,0,0,1,6.57,8,9.07,9.07,0,0,1,.94,7.54c-.78,2.65-3.37,5.23-7.74,7.75A40.34,40.34,0,0,1,516.92,718.68Zm11.17-39a7.51,7.51,0,0,0,2,4.29l14.11-8.15a20.25,20.25,0,0,0-7.65-1.14,13.51,13.51,0,0,0-6.07,1.71C528.87,677.31,528.06,678.4,528.09,679.64Zm-12.92,28.23a12.39,12.39,0,0,0,5.82-1.58c1.66-.95,2.49-2,2.49-3.27a7.53,7.53,0,0,0-1.82-4.26L508,706.68A20,20,0,0,0,515.17,707.87Z"/><polygon class="cls-2" points="810.95 768.2 359.53 1020.11 489.44 1095.14 941.17 842.35 810.95 768.2"/><polygon class="cls-15" points="811.06 886.94 728.97 839.84 737.6 834.86 819.68 881.96 811.06 886.94"/><polygon class="cls-14" points="851.02 860.55 768.93 813.45 803.21 796.29 885.29 843.39 851.02 860.55"/><polygon class="cls-15" points="992.69 813.16 910.61 766.06 933.9 754.76 1015.98 801.86 992.69 813.16"/><polygon class="cls-15" points="795.56 895.89 713.47 848.79 722.1 843.81 804.18 890.91 795.56 895.89"/><polygon class="cls-15" points="780.06 904.83 697.98 857.73 706.6 852.75 788.69 899.85 780.06 904.83"/><polygon class="cls-15" points="764.57 913.78 682.48 866.68 691.11 861.7 773.19 908.8 764.57 913.78"/><polygon class="cls-15" points="749.07 922.73 666.99 875.63 675.61 870.65 757.7 917.75 749.07 922.73"/><polygon class="cls-15" points="733.57 931.67 651.49 884.57 660.11 879.6 742.2 926.69 733.57 931.67"/><polygon class="cls-15" points="718.08 940.62 635.99 893.52 644.62 888.54 726.7 935.64 718.08 940.62"/><polygon class="cls-15" points="702.58 949.57 620.5 902.47 629.12 897.49 711.21 944.59 702.58 949.57"/><polygon class="cls-15" points="687.09 958.51 605 911.41 613.62 906.44 695.71 953.53 687.09 958.51"/><polygon class="cls-15" points="623.04 939.43 589.5 920.36 598.13 915.38 631.66 934.45 623.04 939.43"/><polygon class="cls-15" points="632.87 987.83 550.78 940.73 559.4 935.75 641.49 982.85 632.87 987.83"/><polygon class="cls-15" points="617.37 996.77 535.28 949.67 543.91 944.69 625.99 991.79 617.37 996.77"/><polygon class="cls-15" points="601.87 1005.72 519.79 958.62 528.41 953.64 610.5 1000.74 601.87 1005.72"/><polygon class="cls-15" points="586.38 1014.67 504.29 967.57 512.91 962.59 595 1009.69 586.38 1014.67"/><polygon class="cls-15" points="570.88 1023.61 488.79 976.51 497.42 971.53 579.5 1018.63 570.88 1023.61"/><polygon class="cls-15" points="555.38 1032.56 473.3 985.46 481.92 980.48 564.01 1027.58 555.38 1032.56"/><polygon class="cls-15" points="539.89 1041.51 457.8 994.41 466.43 989.43 548.51 1036.53 539.89 1041.51"/><polygon class="cls-15" points="524.39 1050.45 442.31 1003.35 450.93 998.38 533.01 1045.47 524.39 1050.45"/><polygon class="cls-15" points="508.89 1059.4 426.81 1012.3 435.43 1007.32 517.52 1054.42 508.89 1059.4"/><polygon class="cls-15" points="444.85 1040.32 411.31 1021.25 419.94 1016.27 453.48 1035.34 444.85 1040.32"/><g class="cls-16"><polygon class="cls-8" points="1026.08 825.95 591.15 566.19 639.56 538.88 1081.75 794.1 1081.75 809.97 1026.56 841.55 1026.08 825.95"/></g><polygon class="cls-22" points="1455.14 843.11 857.68 1184.49 1299.21 1441.52 1897.33 1098.34 1455.14 843.11"/><polygon class="cls-9" points="1299.21 1441.53 1897.33 1098.33 1897.33 1114.2 1299.21 1457.4 1299.21 1441.53"/><polygon class="cls-10" points="1299.21 1441.53 857.68 1184.49 857.68 1200.36 1299.21 1457.4 1299.21 1441.53"/><polygon class="cls-20" points="1376.74 929.19 925.32 1181.1 1143.28 1307.99 1595.02 1055.19 1376.74 929.19"/><path class="cls-13" d="M1443.88,898.56l-8-4.6,7.75-4.47,23.21,13.4-7.75,4.48-7.92-4.58-26.8,15.48-7.34-4.24Z"/><path class="cls-13" d="M1463.43,932.08l-7.56,4.36-20.8-12,34.55-19.95L1490,916.21l-7.55,4.36L1469.33,913l-5.83,3.37L1475,923l-7.31,4.22-11.51-6.65-6.32,3.65Z"/><path class="cls-13" d="M1519.16,933.07,1484.6,953l-6-3.48,7-17.24-18.41,10.63-7.18-4.14,34.55-19.95,6,3.48-7,17.24L1512,928.93Z"/><path class="cls-13" d="M1524.34,936.07l12.26,7.07q4.25,2.46,5.43,5.59a7,7,0,0,1-.92,6.42q-2.08,3.3-7.31,6.32a36.88,36.88,0,0,1-11,4.23,33.62,33.62,0,0,1-11.13.53,25.62,25.62,0,0,1-9.68-3.14L1489.79,956Zm-14.79,22.35a13.68,13.68,0,0,0,7.86,1.63,20.38,20.38,0,0,0,9-2.85q4.44-2.57,4.94-5.19c.34-1.74-.61-3.25-2.83-4.54l-4.63-2.67-18.95,10.94Z"/><path class="cls-13" d="M1548.73,981.32l-7.55,4.36-20.81-12,34.55-19.95,20.33,11.74-7.55,4.36-13.07-7.55-5.83,3.36,11.52,6.65L1553,976.5l-11.51-6.65-6.32,3.65Z"/><path class="cls-13" d="M1565.76,989.27l-4-2.3-9.18,5.3-7.33-4.24,34.55-19.95,11.85,6.85q3.51,2,4.55,4.42a5.09,5.09,0,0,1-.44,4.87,14.49,14.49,0,0,1-5.38,4.73,26.21,26.21,0,0,1-7.86,3,24.45,24.45,0,0,1-8.12.35l-5.27,9.5-7.85-4.53Zm19.82-7.42c.12-1-.57-1.87-2.08-2.74l-4.07-2.35-10.12,5.85,4.07,2.35a8.65,8.65,0,0,0,4.72,1.21,10.43,10.43,0,0,0,4.87-1.49C1584.59,983.75,1585.45,982.8,1585.58,981.85Z"/><path class="cls-13" d="M1621.6,1015.05a9.49,9.49,0,0,1-4,3.79,18.08,18.08,0,0,1-9.75,2.46,21.89,21.89,0,0,1-10.39-3.15l-14-8.08,34.55-20,13.26,7.65c3.3,1.91,5,3.84,5.11,5.78s-1.24,3.7-4,5.3a18.08,18.08,0,0,1-5.33,2,17.74,17.74,0,0,1-5.66.3A3.83,3.83,0,0,1,1621.6,1015.05Zm-10.37-1.12c2.34-1.34,2.22-2.76-.34-4.24l-6.15-3.55-7,4.05,6.15,3.54A6.89,6.89,0,0,0,1611.23,1013.93Zm6.94-15.54-6.67,3.84,5,2.91a6.63,6.63,0,0,0,7.06.2q3.3-1.9-.4-4.05Z"/><path class="cls-13" d="M1646.44,1006.56l7.33,4.23-34.55,20-7.33-4.23Z"/><path class="cls-13" d="M1659,1013.81l12.26,7.07q4.26,2.46,5.43,5.59a7,7,0,0,1-.92,6.42q-2.09,3.3-7.31,6.32a36.88,36.88,0,0,1-11,4.23,33.62,33.62,0,0,1-11.13.53,25.62,25.62,0,0,1-9.68-3.14l-12.25-7.07Zm-14.79,22.35a13.68,13.68,0,0,0,7.86,1.63,20.38,20.38,0,0,0,9-2.85q4.44-2.57,4.94-5.18c.34-1.75-.61-3.26-2.83-4.55l-4.63-2.67-19,11Z"/><polygon class="cls-14" points="1402.35 1132.65 1230.57 1033.47 1239.19 1028.49 1410.97 1127.67 1402.35 1132.65"/><polygon class="cls-14" points="1386.85 1141.6 1215.07 1042.42 1223.69 1037.44 1395.48 1136.62 1386.85 1141.6"/><polygon class="cls-14" points="1371.36 1150.55 1199.57 1051.37 1208.2 1046.39 1379.98 1145.57 1371.36 1150.55"/><polygon class="cls-14" points="1355.86 1159.49 1184.08 1060.31 1192.7 1055.33 1364.48 1154.51 1355.86 1159.49"/><polygon class="cls-14" points="1340.36 1168.44 1168.58 1069.26 1177.2 1064.28 1348.99 1163.46 1340.36 1168.44"/><polygon class="cls-14" points="1324.87 1177.38 1153.08 1078.21 1161.71 1073.23 1333.49 1172.41 1324.87 1177.38"/><polygon class="cls-14" points="1309.37 1186.33 1137.59 1087.15 1146.21 1082.17 1317.99 1181.35 1309.37 1186.33"/><polygon class="cls-14" points="1293.87 1195.28 1122.09 1096.1 1130.71 1091.12 1302.5 1190.3 1293.87 1195.28"/><polygon class="cls-14" points="1278.38 1204.23 1106.6 1105.05 1115.22 1100.07 1287 1199.25 1278.38 1204.23"/><polygon class="cls-14" points="1214.33 1185.14 1091.1 1113.99 1099.72 1109.02 1222.96 1180.16 1214.33 1185.14"/><path class="cls-21" d="M1013.8,1158.62s68.07-4.16,77.3,41.88c8.33,41.55,81.75-23.11,149.12,25.75l-88.09,50.86-171.78-99.17Z"/><path class="cls-14" d="M1332.5,1022.91a50.84,50.84,0,0,1-22.08-4.43l-11.13,6.42-8.6-5,10.83-6.25a38.49,38.49,0,0,1-9.55-8.5q-3.59-4.57-3.93-8.46l16.85-4.26a16.6,16.6,0,0,0,3,7.12,27,27,0,0,0,6.65,6.59l16.59-9.58a43.23,43.23,0,0,1-6.55-8.14,9.22,9.22,0,0,1-.94-7.6q1.17-4,7.84-7.81a41.14,41.14,0,0,1,19.36-5.16,49.67,49.67,0,0,1,22.21,4.51l11-6.37,8.61,5-10.83,6.25q9.59,6.68,11.4,13.58l-16.52,4.57a22.62,22.62,0,0,0-8-10.58l-16.89,9.75a43,43,0,0,1,6.57,8,9.09,9.09,0,0,1,.94,7.55c-.78,2.64-3.37,5.22-7.74,7.75A40.45,40.45,0,0,1,1332.5,1022.91Zm11.18-39a7.37,7.37,0,0,0,2,4.28l14.11-8.15a20.45,20.45,0,0,0-7.65-1.14,13.68,13.68,0,0,0-6.07,1.71Q1343.62,982,1343.68,983.88Zm-12.92,28.22a12.46,12.46,0,0,0,5.82-1.58c1.65-.95,2.48-2,2.48-3.27a7.53,7.53,0,0,0-1.82-4.26l-13.71,7.92A20,20,0,0,0,1330.76,1012.1Z"/><polygon class="cls-2" points="1626.53 1072.43 1175.12 1324.34 1305.02 1399.38 1756.76 1146.58 1626.53 1072.43"/><polygon class="cls-15" points="1626.64 1191.17 1544.55 1144.07 1553.18 1139.09 1635.26 1186.19 1626.64 1191.17"/><polygon class="cls-14" points="1666.6 1164.78 1584.52 1117.68 1618.79 1100.52 1700.88 1147.62 1666.6 1164.78"/><polygon class="cls-15" points="1808.27 1117.39 1726.19 1070.29 1749.48 1058.99 1831.56 1106.09 1808.27 1117.39"/><polygon class="cls-15" points="1611.14 1200.12 1529.06 1153.02 1537.68 1148.04 1619.77 1195.14 1611.14 1200.12"/><polygon class="cls-15" points="1595.64 1209.06 1513.56 1161.96 1522.18 1156.98 1604.27 1204.09 1595.64 1209.06"/><polygon class="cls-15" points="1580.15 1218.01 1498.06 1170.91 1506.69 1165.93 1588.77 1213.03 1580.15 1218.01"/><polygon class="cls-15" points="1564.65 1226.96 1482.57 1179.86 1491.19 1174.88 1573.28 1221.98 1564.65 1226.96"/><polygon class="cls-15" points="1549.15 1235.9 1467.07 1188.81 1475.69 1183.83 1557.78 1230.93 1549.15 1235.9"/><polygon class="cls-15" points="1533.66 1244.85 1451.57 1197.75 1460.2 1192.77 1542.28 1239.87 1533.66 1244.85"/><polygon class="cls-15" points="1518.16 1253.8 1436.08 1206.7 1444.7 1201.72 1526.79 1248.82 1518.16 1253.8"/><polygon class="cls-15" points="1502.67 1262.75 1420.58 1215.65 1429.2 1210.67 1511.29 1257.77 1502.67 1262.75"/><polygon class="cls-15" points="1438.62 1243.66 1405.08 1224.59 1413.71 1219.61 1447.25 1238.68 1438.62 1243.66"/><polygon class="cls-15" points="1448.45 1292.06 1366.36 1244.96 1374.99 1239.98 1457.07 1287.08 1448.45 1292.06"/><polygon class="cls-15" points="1432.95 1301 1350.87 1253.9 1359.49 1248.92 1441.58 1296.02 1432.95 1301"/><polygon class="cls-15" points="1417.45 1309.95 1335.37 1262.85 1343.99 1257.87 1426.08 1304.97 1417.45 1309.95"/><polygon class="cls-15" points="1401.96 1318.9 1319.87 1271.8 1328.5 1266.82 1410.58 1313.92 1401.96 1318.9"/><polygon class="cls-15" points="1386.46 1327.84 1304.38 1280.74 1313 1275.77 1395.09 1322.87 1386.46 1327.84"/><polygon class="cls-15" points="1370.96 1336.79 1288.88 1289.69 1297.5 1284.71 1379.59 1331.81 1370.96 1336.79"/><polygon class="cls-15" points="1355.47 1345.74 1273.38 1298.64 1282.01 1293.66 1364.09 1340.76 1355.47 1345.74"/><polygon class="cls-15" points="1339.97 1354.68 1257.89 1307.59 1266.51 1302.61 1348.6 1349.71 1339.97 1354.68"/><polygon class="cls-15" points="1324.47 1363.63 1242.39 1316.53 1251.01 1311.55 1333.1 1358.65 1324.47 1363.63"/><polygon class="cls-15" points="1260.43 1344.55 1226.89 1325.48 1235.52 1320.5 1269.06 1339.57 1260.43 1344.55"/><polygon class="cls-22" points="1455.14 804.67 857.68 1146.05 1299.21 1403.09 1897.33 1059.9 1455.14 804.67"/><polygon class="cls-9" points="1299.21 1403.09 1897.33 1059.9 1897.33 1075.77 1299.21 1418.96 1299.21 1403.09"/><polygon class="cls-10" points="1299.21 1403.09 857.68 1146.05 857.68 1161.92 1299.21 1418.96 1299.21 1403.09"/><polygon class="cls-20" points="1376.74 890.76 925.32 1142.66 1143.28 1269.55 1595.02 1016.75 1376.74 890.76"/><path class="cls-13" d="M1443.88,860.12l-8-4.59,7.75-4.48,23.21,13.41-7.75,4.47-7.92-4.57-26.8,15.47-7.34-4.23Z"/><path class="cls-13" d="M1463.43,893.64l-7.56,4.36-20.8-12,34.55-20L1490,877.77l-7.55,4.36-13.07-7.54L1463.5,878,1475,884.6l-7.31,4.22-11.51-6.65-6.32,3.65Z"/><path class="cls-13" d="M1519.16,894.64l-34.56,20-6-3.49,7-17.23-18.41,10.63-7.18-4.15,34.55-20,6,3.49-7,17.23L1512,890.49Z"/><path class="cls-13" d="M1524.34,897.63l12.26,7.07c2.83,1.64,4.64,3.51,5.43,5.59a7,7,0,0,1-.92,6.43Q1539,920,1533.8,923a37.13,37.13,0,0,1-11,4.22,33.36,33.36,0,0,1-11.13.53,25.45,25.45,0,0,1-9.68-3.14l-12.25-7.07ZM1509.55,920a13.69,13.69,0,0,0,7.86,1.64,20.53,20.53,0,0,0,9-2.86q4.44-2.57,4.94-5.18c.34-1.75-.61-3.26-2.83-4.54l-4.63-2.68-18.95,10.95Z"/><path class="cls-13" d="M1548.73,942.89l-7.55,4.36-20.81-12,34.55-20L1575.25,927l-7.55,4.36-13.07-7.55-5.83,3.37,11.52,6.65-7.31,4.21-11.51-6.64-6.32,3.64Z"/><path class="cls-13" d="M1565.76,950.84l-4-2.31-9.18,5.3-7.33-4.23,34.55-20,11.85,6.84a10.26,10.26,0,0,1,4.55,4.42,5.11,5.11,0,0,1-.44,4.88,14.58,14.58,0,0,1-5.38,4.73,26.48,26.48,0,0,1-7.86,3,25,25,0,0,1-8.12.35l-5.27,9.5-7.85-4.54Zm19.82-7.43c.12-.95-.57-1.86-2.08-2.73l-4.07-2.35-10.12,5.84,4.07,2.35a8.65,8.65,0,0,0,4.72,1.21,10.43,10.43,0,0,0,4.87-1.49C1584.59,945.31,1585.45,944.37,1585.58,943.41Z"/><path class="cls-13" d="M1621.6,976.61a9.49,9.49,0,0,1-4,3.79,18.09,18.09,0,0,1-9.75,2.47,22.11,22.11,0,0,1-10.39-3.15l-14-8.08L1618,951.69l13.26,7.65c3.3,1.91,5,3.83,5.11,5.77s-1.24,3.71-4,5.3a18.1,18.1,0,0,1-5.33,2,17.73,17.73,0,0,1-5.66.29A3.83,3.83,0,0,1,1621.6,976.61Zm-10.37-1.11c2.34-1.35,2.22-2.77-.34-4.25l-6.15-3.55-7,4,6.15,3.55A6.91,6.91,0,0,0,1611.23,975.5Zm6.94-15.55-6.67,3.85,5,2.91a6.65,6.65,0,0,0,7.06.2q3.3-1.92-.4-4Z"/><path class="cls-13" d="M1646.44,968.12l7.33,4.24-34.55,19.95-7.33-4.24Z"/><path class="cls-13" d="M1659,975.37l12.26,7.08c2.84,1.63,4.65,3.5,5.43,5.58a7,7,0,0,1-.92,6.43q-2.09,3.3-7.31,6.32a37.13,37.13,0,0,1-11,4.22,33.36,33.36,0,0,1-11.13.53,25.61,25.61,0,0,1-9.68-3.13l-12.25-7.08Zm-14.79,22.35a13.69,13.69,0,0,0,7.86,1.64,20.53,20.53,0,0,0,9-2.86c3-1.71,4.61-3.43,4.94-5.18s-.61-3.26-2.83-4.54l-4.63-2.67-19,10.94Z"/><polygon class="cls-14" points="1402.35 1094.21 1230.57 995.04 1239.19 990.06 1410.97 1089.24 1402.35 1094.21"/><polygon class="cls-14" points="1386.85 1103.16 1215.07 1003.98 1223.69 999 1395.48 1098.18 1386.85 1103.16"/><polygon class="cls-14" points="1371.36 1112.11 1199.57 1012.93 1208.2 1007.95 1379.98 1107.13 1371.36 1112.11"/><polygon class="cls-14" points="1355.86 1121.06 1184.08 1021.88 1192.7 1016.9 1364.48 1116.08 1355.86 1121.06"/><polygon class="cls-14" points="1340.36 1130 1168.58 1030.82 1177.2 1025.85 1348.99 1125.02 1340.36 1130"/><polygon class="cls-14" points="1324.87 1138.95 1153.08 1039.77 1161.71 1034.79 1333.49 1133.97 1324.87 1138.95"/><polygon class="cls-14" points="1309.37 1147.9 1137.59 1048.72 1146.21 1043.74 1317.99 1142.92 1309.37 1147.9"/><polygon class="cls-14" points="1293.87 1156.84 1122.09 1057.66 1130.71 1052.69 1302.5 1151.86 1293.87 1156.84"/><polygon class="cls-14" points="1278.38 1165.79 1106.6 1066.61 1115.22 1061.63 1287 1160.81 1278.38 1165.79"/><polygon class="cls-14" points="1214.33 1146.71 1091.1 1075.56 1099.72 1070.58 1222.96 1141.73 1214.33 1146.71"/><path class="cls-21" d="M1013.8,1120.19s68.07-4.16,77.3,41.87c8.33,41.55,81.75-23.11,149.12,25.76l-88.09,50.86L980.35,1139.5Z"/><path class="cls-14" d="M1332.5,984.48a50.71,50.71,0,0,1-22.08-4.44l-11.13,6.43-8.6-5,10.83-6.25a38.89,38.89,0,0,1-9.55-8.5q-3.59-4.59-3.93-8.46l16.85-4.27a16.55,16.55,0,0,0,3,7.12,27,27,0,0,0,6.65,6.59l16.59-9.58a42.91,42.91,0,0,1-6.55-8.14,9.22,9.22,0,0,1-.94-7.6q1.17-4,7.84-7.8a41,41,0,0,1,19.36-5.17A49.81,49.81,0,0,1,1373,934l11-6.37,8.61,5-10.83,6.25q9.59,6.68,11.4,13.58L1376.73,957a22.65,22.65,0,0,0-8-10.59l-16.89,9.75a43,43,0,0,1,6.57,8,9.09,9.09,0,0,1,.94,7.55c-.78,2.64-3.37,5.23-7.74,7.75A40.34,40.34,0,0,1,1332.5,984.48Zm11.18-39a7.37,7.37,0,0,0,2,4.28l14.11-8.14a20.27,20.27,0,0,0-7.65-1.15,13.81,13.81,0,0,0-6.07,1.71Q1343.62,943.58,1343.68,945.44Zm-12.92,28.22a12.57,12.57,0,0,0,5.82-1.57c1.65-1,2.48-2.05,2.48-3.27a7.48,7.48,0,0,0-1.82-4.26l-13.71,7.91A19.61,19.61,0,0,0,1330.76,973.66Z"/><polygon class="cls-2" points="1626.53 1034 1175.12 1285.9 1305.02 1360.94 1756.76 1108.14 1626.53 1034"/><polygon class="cls-15" points="1626.64 1152.73 1544.55 1105.63 1553.18 1100.66 1635.26 1147.76 1626.64 1152.73"/><polygon class="cls-14" points="1666.6 1126.35 1584.52 1079.25 1618.79 1062.08 1700.88 1109.18 1666.6 1126.35"/><polygon class="cls-15" points="1808.27 1078.96 1726.19 1031.86 1749.48 1020.55 1831.56 1067.65 1808.27 1078.96"/><polygon class="cls-15" points="1611.14 1161.68 1529.06 1114.58 1537.68 1109.6 1619.77 1156.7 1611.14 1161.68"/><polygon class="cls-15" points="1595.64 1170.63 1513.56 1123.53 1522.18 1118.55 1604.27 1165.65 1595.64 1170.63"/><polygon class="cls-15" points="1580.15 1179.58 1498.06 1132.48 1506.69 1127.5 1588.77 1174.6 1580.15 1179.58"/><polygon class="cls-15" points="1564.65 1188.52 1482.57 1141.42 1491.19 1136.44 1573.28 1183.54 1564.65 1188.52"/><polygon class="cls-15" points="1549.15 1197.47 1467.07 1150.37 1475.69 1145.39 1557.78 1192.49 1549.15 1197.47"/><polygon class="cls-15" points="1533.66 1206.42 1451.57 1159.32 1460.2 1154.34 1542.28 1201.44 1533.66 1206.42"/><polygon class="cls-15" points="1518.16 1215.36 1436.08 1168.26 1444.7 1163.28 1526.79 1210.38 1518.16 1215.36"/><polygon class="cls-15" points="1502.67 1224.31 1420.58 1177.21 1429.2 1172.23 1511.29 1219.33 1502.67 1224.31"/><polygon class="cls-15" points="1438.62 1205.23 1405.08 1186.16 1413.71 1181.18 1447.25 1200.25 1438.62 1205.23"/><polygon class="cls-15" points="1448.45 1253.62 1366.36 1206.52 1374.99 1201.54 1457.07 1248.64 1448.45 1253.62"/><polygon class="cls-15" points="1432.95 1262.57 1350.87 1215.47 1359.49 1210.49 1441.58 1257.59 1432.95 1262.57"/><polygon class="cls-15" points="1417.45 1271.52 1335.37 1224.41 1343.99 1219.44 1426.08 1266.54 1417.45 1271.52"/><polygon class="cls-15" points="1401.96 1280.46 1319.87 1233.36 1328.5 1228.38 1410.58 1275.48 1401.96 1280.46"/><polygon class="cls-15" points="1386.46 1289.41 1304.38 1242.31 1313 1237.33 1395.09 1284.43 1386.46 1289.41"/><polygon class="cls-15" points="1370.96 1298.36 1288.88 1251.26 1297.5 1246.28 1379.59 1293.38 1370.96 1298.36"/><polygon class="cls-15" points="1355.47 1307.3 1273.38 1260.2 1282.01 1255.22 1364.09 1302.32 1355.47 1307.3"/><polygon class="cls-15" points="1339.97 1316.25 1257.89 1269.15 1266.51 1264.17 1348.6 1311.27 1339.97 1316.25"/><polygon class="cls-15" points="1324.47 1325.2 1242.39 1278.1 1251.01 1273.12 1333.1 1320.22 1324.47 1325.2"/><polygon class="cls-15" points="1260.43 1306.11 1226.89 1287.04 1235.52 1282.06 1269.06 1301.13 1260.43 1306.11"/><polygon class="cls-5" points="1455.14 766.24 857.68 1107.62 1299.21 1364.65 1897.33 1021.46 1455.14 766.24"/><polygon class="cls-9" points="1299.21 1364.65 1897.33 1021.46 1897.33 1037.33 1299.21 1380.53 1299.21 1364.65"/><polygon class="cls-10" points="1299.21 1364.65 857.68 1107.62 857.68 1123.49 1299.21 1380.53 1299.21 1364.65"/><g class="cls-11"><polygon class="cls-23" points="1376.74 852.32 925.32 1104.23 1143.28 1231.12 1595.02 978.32 1376.74 852.32"/></g><path class="cls-13" d="M1443.88,821.69l-8-4.6,7.75-4.47,23.21,13.4-7.75,4.47-7.92-4.57-26.8,15.48-7.34-4.24Z"/><path class="cls-13" d="M1463.43,855.2l-7.56,4.36-20.8-12,34.55-19.95L1490,839.34l-7.55,4.36-13.07-7.55-5.83,3.36,11.52,6.65-7.31,4.22-11.51-6.65-6.32,3.65Z"/><path class="cls-13" d="M1519.16,856.2l-34.56,19.95-6-3.48,7-17.24-18.41,10.63-7.18-4.14L1494.5,842l6,3.48-7,17.23L1512,852.05Z"/><path class="cls-13" d="M1524.34,859.19l12.26,7.08q4.25,2.46,5.43,5.58a7,7,0,0,1-.92,6.43q-2.08,3.3-7.31,6.32a37.15,37.15,0,0,1-11,4.23,33.35,33.35,0,0,1-11.13.52,25.44,25.44,0,0,1-9.68-3.13l-12.25-7.08Zm-14.79,22.35a13.61,13.61,0,0,0,7.86,1.64,20.38,20.38,0,0,0,9-2.85q4.44-2.57,4.94-5.19c.34-1.74-.61-3.26-2.83-4.54l-4.63-2.67-18.95,10.94Z"/><path class="cls-13" d="M1548.73,904.45l-7.55,4.36-20.81-12,34.55-19.95,20.33,11.73-7.55,4.36-13.07-7.54-5.83,3.36,11.52,6.65-7.31,4.22L1541.5,893l-6.32,3.65Z"/><path class="cls-13" d="M1565.76,912.4l-4-2.31-9.18,5.31-7.33-4.24,34.55-19.95,11.85,6.84c2.34,1.36,3.86,2.83,4.55,4.43a5.09,5.09,0,0,1-.44,4.87,14.58,14.58,0,0,1-5.38,4.73,26.21,26.21,0,0,1-7.86,3,24.45,24.45,0,0,1-8.12.35l-5.27,9.5-7.85-4.53Zm19.82-7.42c.12-1-.57-1.87-2.08-2.74l-4.07-2.35-10.12,5.84,4.07,2.36a8.74,8.74,0,0,0,4.72,1.21,10.43,10.43,0,0,0,4.87-1.49C1584.59,906.88,1585.45,905.93,1585.58,905Z"/><path class="cls-13" d="M1621.6,938.17a9.44,9.44,0,0,1-4,3.79,18.09,18.09,0,0,1-9.75,2.47,21.89,21.89,0,0,1-10.39-3.15l-14-8.08,34.55-20,13.26,7.65c3.3,1.91,5,3.84,5.11,5.77s-1.24,3.71-4,5.31a18.45,18.45,0,0,1-11,2.32A3.81,3.81,0,0,1,1621.6,938.17Zm-10.37-1.11c2.34-1.35,2.22-2.76-.34-4.24l-6.15-3.55-7,4,6.15,3.55A6.91,6.91,0,0,0,1611.23,937.06Zm6.94-15.54-6.67,3.84,5,2.91a6.65,6.65,0,0,0,7.06.2q3.3-1.9-.4-4.05Z"/><path class="cls-13" d="M1646.44,929.69l7.33,4.23-34.55,20-7.33-4.23Z"/><path class="cls-13" d="M1659,936.93l12.26,7.08q4.26,2.46,5.43,5.59a7,7,0,0,1-.92,6.42q-2.09,3.3-7.31,6.32a37.15,37.15,0,0,1-11,4.23,33.35,33.35,0,0,1-11.13.52,25.44,25.44,0,0,1-9.68-3.13l-12.25-7.08Zm-14.79,22.36a13.68,13.68,0,0,0,7.86,1.63,20.38,20.38,0,0,0,9-2.85q4.44-2.57,4.94-5.19c.34-1.74-.61-3.26-2.83-4.54l-4.63-2.67-19,10.94Z"/><polygon class="cls-23" points="1402.35 1055.78 1230.57 956.6 1239.19 951.62 1410.97 1050.8 1402.35 1055.78"/><polygon class="cls-23" points="1386.85 1064.73 1215.07 965.55 1223.69 960.57 1395.48 1059.75 1386.85 1064.73"/><polygon class="cls-23" points="1371.36 1073.67 1199.57 974.5 1208.2 969.51 1379.98 1068.69 1371.36 1073.67"/><polygon class="cls-23" points="1355.86 1082.62 1184.08 983.44 1192.7 978.46 1364.48 1077.64 1355.86 1082.62"/><polygon class="cls-23" points="1340.36 1091.57 1168.58 992.39 1177.2 987.41 1348.99 1086.59 1340.36 1091.57"/><polygon class="cls-23" points="1324.87 1100.51 1153.08 1001.34 1161.71 996.36 1333.49 1095.54 1324.87 1100.51"/><polygon class="cls-23" points="1309.37 1109.46 1137.59 1010.28 1146.21 1005.3 1317.99 1104.48 1309.37 1109.46"/><polygon class="cls-23" points="1293.87 1118.41 1122.09 1019.23 1130.71 1014.25 1302.5 1113.43 1293.87 1118.41"/><polygon class="cls-23" points="1278.38 1127.36 1106.6 1028.18 1115.22 1023.2 1287 1122.38 1278.38 1127.36"/><polygon class="cls-23" points="1214.33 1108.27 1091.1 1037.12 1099.72 1032.14 1222.96 1103.29 1214.33 1108.27"/><path class="cls-24" d="M1013.8,1081.75s68.07-4.16,77.3,41.87c8.33,41.56,81.75-23.11,149.12,25.76l-88.09,50.86-171.78-99.18Z"/><path class="cls-23" d="M1332.5,946a50.84,50.84,0,0,1-22.08-4.43L1299.29,948l-8.6-5,10.83-6.25a38.69,38.69,0,0,1-9.55-8.5c-2.39-3.06-3.7-5.87-3.93-8.46l16.85-4.26a16.6,16.6,0,0,0,3,7.12,27,27,0,0,0,6.65,6.59l16.59-9.58a43.23,43.23,0,0,1-6.55-8.14,9.22,9.22,0,0,1-.94-7.6q1.17-4,7.84-7.81a41.14,41.14,0,0,1,19.36-5.17,50,50,0,0,1,22.21,4.51l11-6.36,8.61,5-10.83,6.25q9.59,6.68,11.4,13.58l-16.52,4.57a22.62,22.62,0,0,0-8-10.58l-16.89,9.75a43,43,0,0,1,6.57,8,9.07,9.07,0,0,1,.94,7.54c-.78,2.65-3.37,5.23-7.74,7.75A40.34,40.34,0,0,1,1332.5,946Zm11.18-39a7.42,7.42,0,0,0,2,4.29l14.11-8.15a20.25,20.25,0,0,0-7.65-1.14,13.55,13.55,0,0,0-6.07,1.71C1344.45,904.66,1343.64,905.76,1343.68,907Zm-12.92,28.23a12.46,12.46,0,0,0,5.82-1.58c1.65-.95,2.48-2,2.48-3.27a7.53,7.53,0,0,0-1.82-4.26L1323.53,934A20,20,0,0,0,1330.76,935.23Z"/><polygon class="cls-2" points="1626.53 995.56 1175.12 1247.47 1305.02 1322.51 1756.76 1069.71 1626.53 995.56"/><polygon class="cls-15" points="1626.64 1114.3 1544.55 1067.2 1553.18 1062.22 1635.26 1109.32 1626.64 1114.3"/><polygon class="cls-23" points="1666.6 1087.91 1584.52 1040.81 1618.79 1023.65 1700.88 1070.75 1666.6 1087.91"/><polygon class="cls-15" points="1808.27 1040.52 1726.19 993.42 1749.48 982.12 1831.56 1029.22 1808.27 1040.52"/><polygon class="cls-15" points="1611.14 1123.25 1529.06 1076.15 1537.68 1071.17 1619.77 1118.27 1611.14 1123.25"/><polygon class="cls-15" points="1595.64 1132.19 1513.56 1085.09 1522.18 1080.11 1604.27 1127.21 1595.64 1132.19"/><polygon class="cls-15" points="1580.15 1141.14 1498.06 1094.04 1506.69 1089.06 1588.77 1136.16 1580.15 1141.14"/><polygon class="cls-15" points="1564.65 1150.09 1482.57 1102.99 1491.19 1098.01 1573.28 1145.11 1564.65 1150.09"/><polygon class="cls-15" points="1549.15 1159.03 1467.07 1111.93 1475.69 1106.95 1557.78 1154.05 1549.15 1159.03"/><polygon class="cls-15" points="1533.66 1167.98 1451.57 1120.88 1460.2 1115.9 1542.28 1163 1533.66 1167.98"/><polygon class="cls-15" points="1518.16 1176.93 1436.08 1129.83 1444.7 1124.85 1526.79 1171.95 1518.16 1176.93"/><polygon class="cls-15" points="1502.67 1185.87 1420.58 1138.78 1429.2 1133.8 1511.29 1180.89 1502.67 1185.87"/><polygon class="cls-15" points="1438.62 1166.79 1405.08 1147.72 1413.71 1142.74 1447.25 1161.81 1438.62 1166.79"/><polygon class="cls-15" points="1448.45 1215.18 1366.36 1168.09 1374.99 1163.11 1457.07 1210.21 1448.45 1215.18"/><polygon class="cls-15" points="1432.95 1224.13 1350.87 1177.03 1359.49 1172.05 1441.58 1219.15 1432.95 1224.13"/><polygon class="cls-15" points="1417.45 1233.08 1335.37 1185.98 1343.99 1181 1426.08 1228.1 1417.45 1233.08"/><polygon class="cls-15" points="1401.96 1242.03 1319.87 1194.93 1328.5 1189.95 1410.58 1237.05 1401.96 1242.03"/><polygon class="cls-15" points="1386.46 1250.97 1304.38 1203.87 1313 1198.89 1395.09 1245.99 1386.46 1250.97"/><polygon class="cls-15" points="1370.96 1259.92 1288.88 1212.82 1297.5 1207.84 1379.59 1254.94 1370.96 1259.92"/><polygon class="cls-15" points="1355.47 1268.87 1273.38 1221.77 1282.01 1216.79 1364.09 1263.89 1355.47 1268.87"/><polygon class="cls-15" points="1339.97 1277.81 1257.89 1230.71 1266.51 1225.73 1348.6 1272.83 1339.97 1277.81"/><polygon class="cls-15" points="1324.47 1286.76 1242.39 1239.66 1251.01 1234.68 1333.1 1281.78 1324.47 1286.76"/><polygon class="cls-15" points="1260.43 1267.68 1226.89 1248.61 1235.52 1243.63 1269.06 1262.7 1260.43 1267.68"/><polygon class="cls-1" points="1282.52 96.58 898.88 6.27 881.42 194.64 915.21 277.01 915.21 277.01 991.01 233.75 1440.36 500.13 1227.26 622.41 1535.51 697.59 1554.91 614.43 1589.72 425.92 1282.52 96.58"/><g class="cls-25"><polygon class="cls-5" points="1175.13 127.83 577.67 469.25 1019.2 726.28 1617.32 383.06 1175.13 127.83"/><polygon class="cls-9" points="1019.2 726.28 1617.32 383.09 1617.32 398.96 1019.2 742.16 1019.2 726.28"/><polygon class="cls-10" points="1019.2 725.84 577.67 468.8 577.67 484.68 1019.2 741.71 1019.2 725.84"/><g class="cls-26"><polygon class="cls-27" points="1096.73 213.95 645.31 465.86 863.27 592.74 1315.01 339.94 1096.73 213.95"/></g><path class="cls-13" d="M1163.87,183.32l-8-4.6,7.75-4.47,23.21,13.4-7.75,4.47-7.92-4.57L1144.4,203l-7.34-4.23Z"/><path class="cls-13" d="M1183.42,216.83l-7.56,4.36-20.8-12,34.55-20L1209.94,201l-7.55,4.36-13.07-7.55-5.83,3.36,11.52,6.65L1187.7,212l-11.51-6.65-6.32,3.65Z"/><path class="cls-13" d="M1239.15,217.83l-34.56,19.95-6-3.48,7-17.24-18.41,10.63-7.18-4.15,34.55-19.95,6,3.49-7,17.23L1232,213.68Z"/><path class="cls-13" d="M1244.33,220.82l12.26,7.08q4.25,2.46,5.43,5.58a7,7,0,0,1-.92,6.43q-2.08,3.3-7.31,6.32a37.15,37.15,0,0,1-11,4.23,33.35,33.35,0,0,1-11.13.52,25.44,25.44,0,0,1-9.68-3.13l-12.25-7.08Zm-14.79,22.35a13.61,13.61,0,0,0,7.86,1.64,20.38,20.38,0,0,0,9-2.85q4.44-2.57,4.94-5.19c.34-1.74-.61-3.26-2.83-4.54l-4.63-2.67-18.95,10.94Z"/><path class="cls-13" d="M1268.72,266.08l-7.56,4.36-20.8-12,34.55-20,20.33,11.73-7.55,4.36L1274.62,247l-5.83,3.36,11.52,6.65-7.31,4.22-11.51-6.65-6.32,3.65Z"/><path class="cls-13" d="M1285.75,274l-4-2.31-9.18,5.31-7.33-4.24,34.55-20,11.85,6.84c2.34,1.36,3.86,2.83,4.55,4.43a5.09,5.09,0,0,1-.44,4.87,14.58,14.58,0,0,1-5.38,4.73,26.21,26.21,0,0,1-7.86,3,24.71,24.71,0,0,1-8.12.35l-5.27,9.5-7.85-4.53Zm19.82-7.42c.12-1-.57-1.87-2.08-2.74l-4.07-2.35-10.12,5.84,4.07,2.36a8.74,8.74,0,0,0,4.72,1.21,10.55,10.55,0,0,0,4.87-1.49C1304.57,268.51,1305.44,267.56,1305.57,266.61Z"/><path class="cls-13" d="M1341.59,299.8a9.44,9.44,0,0,1-4,3.79,18.09,18.09,0,0,1-9.75,2.47,22.11,22.11,0,0,1-10.39-3.15l-14-8.08L1338,274.88l13.26,7.65c3.3,1.91,5,3.84,5.1,5.77s-1.23,3.71-4,5.3a17.82,17.82,0,0,1-5.33,2,18,18,0,0,1-5.66.3A3.81,3.81,0,0,1,1341.59,299.8Zm-10.37-1.11c2.34-1.35,2.22-2.76-.34-4.24l-6.15-3.55-7,4,6.15,3.55A6.91,6.91,0,0,0,1331.22,298.69Zm6.94-15.54-6.67,3.84,5,2.91a6.65,6.65,0,0,0,7.06.2q3.3-1.91-.4-4.05Z"/><path class="cls-13" d="M1366.43,291.32l7.33,4.23-34.55,19.95-7.33-4.23Z"/><path class="cls-13" d="M1379,298.56l12.26,7.08q4.26,2.46,5.43,5.58a7,7,0,0,1-.92,6.43q-2.09,3.3-7.31,6.32a37.15,37.15,0,0,1-11,4.23,33.35,33.35,0,0,1-11.13.52,25.44,25.44,0,0,1-9.68-3.13l-12.25-7.08Zm-14.79,22.35a13.61,13.61,0,0,0,7.86,1.64,20.38,20.38,0,0,0,9-2.85q4.44-2.56,4.94-5.19c.34-1.74-.61-3.26-2.83-4.54l-4.63-2.67-19,10.94Z"/><polygon class="cls-27" points="1122.34 417.41 950.56 318.23 959.18 313.25 1130.96 412.43 1122.34 417.41"/><polygon class="cls-27" points="1106.84 426.36 935.06 327.18 943.68 322.2 1115.47 421.38 1106.84 426.36"/><polygon class="cls-27" points="1091.35 435.3 919.56 336.12 928.19 331.14 1099.97 430.32 1091.35 435.3"/><polygon class="cls-27" points="1075.85 444.25 904.07 345.07 912.69 340.09 1084.47 439.27 1075.85 444.25"/><polygon class="cls-27" points="1060.35 453.2 888.57 354.02 897.2 349.04 1068.98 448.22 1060.35 453.2"/><polygon class="cls-27" points="1044.86 462.14 873.07 362.96 881.7 357.99 1053.48 457.16 1044.86 462.14"/><polygon class="cls-27" points="1029.36 471.09 857.58 371.91 866.2 366.93 1037.98 466.11 1029.36 471.09"/><polygon class="cls-27" points="1013.86 480.04 842.08 380.86 850.71 375.88 1022.49 475.06 1013.86 480.04"/><polygon class="cls-27" points="998.37 488.98 826.58 389.81 835.21 384.83 1006.99 484 998.37 488.98"/><polygon class="cls-27" points="934.32 469.9 811.09 398.75 819.71 393.77 942.95 464.92 934.32 469.9"/><path class="cls-28" d="M713.21,454.45s117.61-37.19,126,9c18,99,63,36,121,47.56l-88.09,50.86L700.34,462.69Z"/><path class="cls-27" d="M1052.49,307.67a50.84,50.84,0,0,1-22.08-4.43l-11.13,6.42-8.6-5,10.83-6.25a38.89,38.89,0,0,1-9.55-8.5q-3.59-4.59-3.93-8.46l16.85-4.26a16.6,16.6,0,0,0,3,7.12,27.22,27.22,0,0,0,6.65,6.59l16.59-9.58a43.54,43.54,0,0,1-6.55-8.14,9.19,9.19,0,0,1-.94-7.6q1.17-4,7.84-7.81a41.14,41.14,0,0,1,19.36-5.17,49.81,49.81,0,0,1,22.21,4.51l11-6.36,8.61,5L1101.84,262q9.59,6.69,11.4,13.59l-16.52,4.57a22.57,22.57,0,0,0-8-10.58l-16.89,9.75a43,43,0,0,1,6.57,8,9.07,9.07,0,0,1,.94,7.54c-.78,2.65-3.37,5.23-7.74,7.75A40.34,40.34,0,0,1,1052.49,307.67Zm11.18-39a7.42,7.42,0,0,0,2,4.29l14.11-8.15a20.05,20.05,0,0,0-7.65-1.14,13.55,13.55,0,0,0-6.07,1.71C1064.44,266.29,1063.63,267.39,1063.67,268.63Zm-12.92,28.23a12.58,12.58,0,0,0,5.82-1.58c1.65-1,2.48-2,2.48-3.27a7.53,7.53,0,0,0-1.82-4.26l-13.71,7.92A20,20,0,0,0,1050.75,296.86Z"/><polygon class="cls-2" points="1346.52 357.19 895.1 609.1 1025.01 684.13 1476.74 431.33 1346.52 357.19"/><polygon class="cls-15" points="1346.63 475.93 1264.54 428.83 1273.17 423.85 1355.25 470.95 1346.63 475.93"/><polygon class="cls-27" points="1386.59 449.54 1304.51 402.44 1338.78 385.28 1420.87 432.38 1386.59 449.54"/><polygon class="cls-15" points="1528.26 402.15 1446.18 355.05 1469.47 343.75 1551.55 390.85 1528.26 402.15"/><polygon class="cls-15" points="1331.13 484.88 1249.05 437.78 1257.67 432.8 1339.76 479.9 1331.13 484.88"/><polygon class="cls-15" points="1315.63 493.82 1233.55 446.72 1242.17 441.74 1324.26 488.84 1315.63 493.82"/><polygon class="cls-15" points="1300.14 502.77 1218.05 455.67 1226.68 450.69 1308.76 497.79 1300.14 502.77"/><polygon class="cls-15" points="1284.64 511.72 1202.56 464.62 1211.18 459.64 1293.27 506.74 1284.64 511.72"/><polygon class="cls-15" points="1269.14 520.66 1187.06 473.56 1195.68 468.58 1277.77 515.68 1269.14 520.66"/><polygon class="cls-15" points="1253.65 529.61 1171.56 482.51 1180.19 477.53 1262.27 524.63 1253.65 529.61"/><polygon class="cls-15" points="1238.15 538.56 1156.07 491.46 1164.69 486.48 1246.78 533.58 1238.15 538.56"/><polygon class="cls-15" points="1222.65 547.5 1140.57 500.4 1149.19 495.43 1231.28 542.52 1222.65 547.5"/><polygon class="cls-15" points="1158.61 528.42 1125.07 509.35 1133.7 504.37 1167.24 523.44 1158.61 528.42"/><polygon class="cls-15" points="1168.44 576.81 1086.35 529.72 1094.98 524.74 1177.06 571.84 1168.44 576.81"/><polygon class="cls-15" points="1152.94 585.76 1070.86 538.66 1079.48 533.68 1161.57 580.78 1152.94 585.76"/><polygon class="cls-15" points="1137.44 594.71 1055.36 547.61 1063.98 542.63 1146.07 589.73 1137.44 594.71"/><polygon class="cls-15" points="1121.95 603.65 1039.86 556.56 1048.49 551.58 1130.57 598.68 1121.95 603.65"/><polygon class="cls-15" points="1106.45 612.6 1024.37 565.5 1032.99 560.52 1115.08 607.62 1106.45 612.6"/><polygon class="cls-15" points="1090.95 621.55 1008.87 574.45 1017.49 569.47 1099.58 616.57 1090.95 621.55"/><polygon class="cls-15" points="1075.46 630.5 993.37 583.4 1002 578.42 1084.08 625.52 1075.46 630.5"/><polygon class="cls-15" points="1059.96 639.44 977.88 592.34 986.5 587.36 1068.59 634.46 1059.96 639.44"/><polygon class="cls-15" points="1044.46 648.39 962.38 601.29 971 596.31 1053.09 643.41 1044.46 648.39"/><polygon class="cls-15" points="980.42 629.31 946.88 610.24 955.51 605.26 989.05 624.33 980.42 629.31"/></g><g class="cls-29"><polygon class="cls-5" points="1537.3 348.08 1503.88 366.48 1504.03 656.92 1537.3 637.84 1537.3 348.08"/></g><g class="cls-30"><polygon class="cls-8" points="997.22 212.44 997.22 229.46 971.55 244.12 971.55 197.52 997.22 212.44"/></g><path class="cls-5" d="M964,110.82l-7.56-4.37V99.09l22,12.73v7.36L971,114.84V140.3l-7-4Z"/><path class="cls-5" d="M1000.88,150.39v7.17l-19.77-11.41V113.32l19.31,11.15v7.18L988,124.48V130l10.94,6.32v6.94L988,137v6Z"/><path class="cls-5" d="M1028.17,140.49v32.83l-5.74-3.31-10.86-23.77v17.49l-6.83-3.94V127l5.74,3.31L1021.34,154V136.55Z"/><path class="cls-5" d="M1033.09,143.33l11.64,6.73a25.79,25.79,0,0,1,7.17,6.15,29.18,29.18,0,0,1,4.86,8.53,27.81,27.81,0,0,1,1.72,9.67q0,5-1.72,7.67a6,6,0,0,1-4.86,2.92,12.94,12.94,0,0,1-7.17-2.12l-11.64-6.72Zm11.36,32q3.16,1.83,5.08.54c1.28-.86,1.92-2.69,1.92-5.51a15.75,15.75,0,0,0-1.92-7.71,13.41,13.41,0,0,0-5.08-5.33l-4.4-2.54v18Z"/><path class="cls-5" d="M1081.9,197.17v7.17l-19.76-11.41V160.11l19.31,11.14v7.18L1069,171.26v5.53l10.94,6.32v6.94L1069,183.73v6Z"/><path class="cls-5" d="M1096.53,204.06l-3.8-2.19v8.72l-7-4V173.75l11.25,6.5a21.83,21.83,0,0,1,5.81,4.82,22.1,22.1,0,0,1,3.8,6.42,20.16,20.16,0,0,1,1.33,7.22,10.14,10.14,0,0,1-1.25,5.49,4.41,4.41,0,0,1-3.57,2.09l5.31,13.38-7.45-4.31Zm3.31-13.61a8.57,8.57,0,0,0-3.24-3.13l-3.87-2.24v9.62l3.87,2.23q2.14,1.24,3.24.63c.72-.41,1.09-1.38,1.09-2.91A8.35,8.35,0,0,0,1099.84,190.45Z"/><path class="cls-5" d="M1119.64,186.64l5.94,3.43L1114,227.55l-6-3.44Z"/><path class="cls-5" d="M1148.62,228.81a14.46,14.46,0,0,1,1.19,5.73q0,4.32-2.6,5.16t-7.53-2L1126.39,230V197.2l12.59,7.27a20.8,20.8,0,0,1,7.17,6.46,13.86,13.86,0,0,1,2.47,7.68,6.77,6.77,0,0,1-.87,3.7,3.11,3.11,0,0,1-2.44,1.52A16.73,16.73,0,0,1,1148.62,228.81Zm-15.34-20.92v6.33l4.79,2.76c2.34,1.35,3.51,1,3.51-1.16s-1.17-3.82-3.51-5.17Zm9.5,21.56q0-3.33-3.66-5.44l-5.84-3.37v6.66l5.84,3.37Q1142.78,232.79,1142.78,229.45Z"/><path class="cls-5" d="M1153.43,212.82l7,4v32.83l-7-4Z"/><path class="cls-5" d="M1165.36,219.7l11.64,6.72a26.29,26.29,0,0,1,7.17,6.16,29.23,29.23,0,0,1,4.85,8.52,27.86,27.86,0,0,1,1.73,9.67q0,5-1.73,7.68a5.94,5.94,0,0,1-4.85,2.92,12.92,12.92,0,0,1-7.17-2.13l-11.64-6.72Zm11.35,32c2.12,1.22,3.81,1.4,5.09.54s1.91-2.69,1.91-5.5a15.78,15.78,0,0,0-1.91-7.72,13.43,13.43,0,0,0-5.09-5.33l-4.39-2.53v18Z"/><path class="cls-5" d="M1207.49,276.52a29.69,29.69,0,0,1-4.58-5.27l2.29-5.52a31.32,31.32,0,0,0,3.83,4.55,21.65,21.65,0,0,0,4.29,3.37c2.68,1.54,4,1.42,4-.36a4.21,4.21,0,0,0-1.14-2.74,37.14,37.14,0,0,0-3.68-3.56,62.6,62.6,0,0,1-4.64-4.39,18.75,18.75,0,0,1-3.2-4.78,14.14,14.14,0,0,1-1.33-6.21,7.88,7.88,0,0,1,1.23-4.7,4.22,4.22,0,0,1,3.67-1.7,12.76,12.76,0,0,1,6,2,29.77,29.77,0,0,1,4.78,3.49,29,29,0,0,1,4.15,4.53l-2.14,5.66a24.83,24.83,0,0,0-6.83-6.48c-1.38-.79-2.39-1.1-3-.92s-1,.71-1,1.58a4,4,0,0,0,1.12,2.62,35.82,35.82,0,0,0,3.63,3.45,61.47,61.47,0,0,1,4.66,4.41,19.56,19.56,0,0,1,3.2,4.75,14,14,0,0,1,1.35,6.2,7.69,7.69,0,0,1-1.23,4.63,4.28,4.28,0,0,1-3.69,1.69,12.47,12.47,0,0,1-6-2A32.15,32.15,0,0,1,1207.49,276.52Z"/><path class="cls-5" d="M1230.22,286.64a27.41,27.41,0,0,1-3-13.05v-18.2l7,4v17.91q0,7.89,4.68,10.58t4.64-5.2V264.79l6.86,4V287q0,7.31-3,9.54t-8.53-.94A21.87,21.87,0,0,1,1230.22,286.64Z"/><path class="cls-5" d="M1277.26,303.08a14.37,14.37,0,0,1,1.19,5.74c0,2.87-.86,4.59-2.6,5.15s-4.24-.1-7.52-2L1255,304.3V271.47l12.59,7.27a20.94,20.94,0,0,1,7.18,6.46,13.85,13.85,0,0,1,2.46,7.69,6.85,6.85,0,0,1-.86,3.69,3.15,3.15,0,0,1-2.45,1.52A16.73,16.73,0,0,1,1277.26,303.08Zm-15.33-20.92v6.33l4.78,2.76c2.34,1.35,3.52,1,3.52-1.16s-1.18-3.82-3.52-5.17Zm9.49,21.56q0-3.33-3.66-5.44l-5.83-3.37v6.66l5.83,3.37Q1271.42,307.06,1271.42,303.72Z"/><path class="cls-5" d="M1304.3,332.74l-.07-17.44-6.33,10.51-3.09-1.79-6.3-17.32v16.93l-6.43-3.72V287.09l5.73,3.31,8.65,23.93,8.44-14.07,5.73,3.31.07,32.87Z"/><path class="cls-5" d="M1315.63,306.46l7,4V343.3l-7-4Z"/><path class="cls-5" d="M1330.4,347.48a28.87,28.87,0,0,1-4.57-5.27l2.28-5.52a31.37,31.37,0,0,0,3.84,4.56,21.38,21.38,0,0,0,4.29,3.36q4,2.33,4-.36a4.21,4.21,0,0,0-1.14-2.74,38.1,38.1,0,0,0-3.67-3.55,63,63,0,0,1-4.65-4.39,18.92,18.92,0,0,1-3.2-4.78,14.2,14.2,0,0,1-1.33-6.21,7.94,7.94,0,0,1,1.23-4.71,4.24,4.24,0,0,1,3.67-1.7,12.68,12.68,0,0,1,6,2.06,30.21,30.21,0,0,1,8.93,8l-2.14,5.66a24.77,24.77,0,0,0-6.83-6.47c-1.38-.8-2.39-1.11-3-.93s-.95.71-.95,1.59a4.07,4.07,0,0,0,1.13,2.62,35.49,35.49,0,0,0,3.62,3.45,59.6,59.6,0,0,1,4.66,4.4,19.27,19.27,0,0,1,3.2,4.75,14,14,0,0,1,1.35,6.2,7.73,7.73,0,0,1-1.23,4.64,4.31,4.31,0,0,1-3.69,1.69,12.5,12.5,0,0,1-6-2A32.15,32.15,0,0,1,1330.4,347.48Z"/><path class="cls-5" d="M1353.15,360.62a29.61,29.61,0,0,1-4.57-5.27l2.29-5.53a30.87,30.87,0,0,0,3.83,4.56,21.09,21.09,0,0,0,4.29,3.37q4,2.31,4-.36a4.19,4.19,0,0,0-1.14-2.74,38.31,38.31,0,0,0-3.68-3.56,60.67,60.67,0,0,1-4.64-4.39,18.66,18.66,0,0,1-3.2-4.78,14.17,14.17,0,0,1-1.34-6.21,7.88,7.88,0,0,1,1.23-4.7,4.21,4.21,0,0,1,3.68-1.7,12.7,12.7,0,0,1,6,2.05,29.83,29.83,0,0,1,4.79,3.49,29,29,0,0,1,4.15,4.53l-2.15,5.65a24.91,24.91,0,0,0-6.82-6.47c-1.39-.8-2.39-1.1-3-.92s-.95.71-.95,1.58a4,4,0,0,0,1.13,2.62,36.6,36.6,0,0,0,3.62,3.45,59.61,59.61,0,0,1,4.66,4.41,19.27,19.27,0,0,1,3.2,4.75,14,14,0,0,1,1.36,6.2,7.62,7.62,0,0,1-1.24,4.63,4.28,4.28,0,0,1-3.69,1.69,12.5,12.5,0,0,1-6-2A32.5,32.5,0,0,1,1353.15,360.62Z"/><path class="cls-5" d="M1373.05,339.61l7,4v32.83l-7-4Z"/><path class="cls-5" d="M1390.38,380.89a32.07,32.07,0,0,1-4.89-8.92,28.53,28.53,0,0,1-1.78-9.79,14.58,14.58,0,0,1,1.78-7.75,6.54,6.54,0,0,1,4.89-3.27,11.24,11.24,0,0,1,7,1.85,24.35,24.35,0,0,1,7,6.25,32.59,32.59,0,0,1,4.89,8.92,28.75,28.75,0,0,1,1.77,9.79,14.65,14.65,0,0,1-1.77,7.75,6.57,6.57,0,0,1-4.89,3.27,11.25,11.25,0,0,1-7-1.85A24.19,24.19,0,0,1,1390.38,380.89Zm10.39-.66a3.46,3.46,0,0,0,2.39-1.93,9.19,9.19,0,0,0,.88-4.39,17,17,0,0,0-.88-5.41,16.65,16.65,0,0,0-2.39-4.68,11.1,11.1,0,0,0-3.38-3.12,4.85,4.85,0,0,0-3.37-.78,3.49,3.49,0,0,0-2.4,1.92,9.38,9.38,0,0,0-.88,4.4,17.27,17.27,0,0,0,.88,5.41,16.67,16.67,0,0,0,2.4,4.68,11,11,0,0,0,3.37,3.12A4.87,4.87,0,0,0,1400.77,380.23Z"/><path class="cls-5" d="M1438.15,377.2V410l-5.73-3.31L1421.55,383v17.49l-6.82-3.94V363.67l5.73,3.31,10.87,23.77V373.26Z"/><path class="cls-5" d="M1445.92,414.18a29.61,29.61,0,0,1-4.57-5.27l2.29-5.52a31.32,31.32,0,0,0,3.83,4.55,21.09,21.09,0,0,0,4.29,3.37q4,2.32,4-.36a4.21,4.21,0,0,0-1.14-2.74,37.28,37.28,0,0,0-3.68-3.55,62.63,62.63,0,0,1-4.64-4.4,18.86,18.86,0,0,1-3.2-4.77,14.22,14.22,0,0,1-1.34-6.22,7.9,7.9,0,0,1,1.23-4.7,4.25,4.25,0,0,1,3.68-1.7,12.76,12.76,0,0,1,6,2.05,30.22,30.22,0,0,1,4.78,3.49,29,29,0,0,1,4.15,4.53l-2.15,5.66a24.6,24.6,0,0,0-6.82-6.47c-1.38-.8-2.39-1.11-3-.93s-.95.71-.95,1.59a4,4,0,0,0,1.12,2.61,35.33,35.33,0,0,0,3.62,3.46,57.85,57.85,0,0,1,4.66,4.4,19.27,19.27,0,0,1,3.2,4.75,13.86,13.86,0,0,1,1.36,6.2,7.75,7.75,0,0,1-1.23,4.64,4.28,4.28,0,0,1-3.7,1.68,12.33,12.33,0,0,1-6-2A32.21,32.21,0,0,1,1445.92,414.18Z"/></svg>