<svg id="Layer_1" data-name="Layer 1" xmlns="http://www.w3.org/2000/svg" viewBox="0 0 64 64"><defs><style>.cls-1{fill:none;stroke:#ff9829;stroke-miterlimit:2;stroke-width:2px;}</style></defs><title>initiation-orange-64px</title><rect class="cls-1" x="24" y="1" width="16" height="22"/><line class="cls-1" x1="27" y1="5" x2="22" y2="5"/><line class="cls-1" x1="27" y1="19" x2="22" y2="19"/><line class="cls-1" x1="29" y1="5" x2="37" y2="5"/><line class="cls-1" x1="29" y1="8" x2="34" y2="8"/><rect class="cls-1" x="30" y="12" width="6" height="7"/><rect class="cls-1" x="2" y="18" width="16" height="22"/><line class="cls-1" x1="5" y1="22" y2="22"/><line class="cls-1" x1="5" y1="36" y2="36"/><line class="cls-1" x1="7" y1="22" x2="15" y2="22"/><line class="cls-1" x1="7" y1="25" x2="12" y2="25"/><rect class="cls-1" x="8" y="29" width="6" height="7"/><rect class="cls-1" x="47" y="18" width="16" height="22"/><line class="cls-1" x1="50" y1="22" x2="45" y2="22"/><line class="cls-1" x1="50" y1="36" x2="45" y2="36"/><line class="cls-1" x1="52" y1="22" x2="60" y2="22"/><line class="cls-1" x1="52" y1="25" x2="57" y2="25"/><rect class="cls-1" x="53" y="29" width="6" height="7"/><polyline class="cls-1" points="6 52 10 48 14 52"/><line class="cls-1" x1="10" y1="48" x2="10" y2="64"/><polyline class="cls-1" points="51 52 55 48 59 52"/><line class="cls-1" x1="55" y1="48" x2="55" y2="64"/><polyline class="cls-1" points="28 34 32 30 36 34"/><line class="cls-1" x1="32" y1="30" x2="32" y2="46"/></svg>