<svg id="Layer_1" data-name="Layer 1" xmlns="http://www.w3.org/2000/svg" viewBox="0 0 64 64"><defs><style>.cls-1{fill:none;stroke:#ff9829;stroke-miterlimit:2;stroke-width:2px;}</style></defs><title>implement-orange-64px copy 2</title><path class="cls-1" d="M64,1a31,31,0,1,0,0,62"/><path class="cls-1" d="M35,39.82a8,8,0,0,0,0-15.64"/><path class="cls-1" d="M32.72,25.74a5.79,5.79,0,0,0-.72,0,6.3,6.3,0,0,0,0,12.6,5.07,5.07,0,0,0,.68,0"/><path class="cls-1" d="M34.06,41.62a20,20,0,0,1-16.19-5.75L14,32l3.87-3.87a19.94,19.94,0,0,1,16.05-5.76"/><path class="cls-1" d="M35,19.65a25.46,25.46,0,0,1,16,7.4L56,32l-5,5A25.46,25.46,0,0,1,35,44.35"/></svg>