<?xml version="1.0" encoding="utf-8"?>
<!-- Generator: Adobe Illustrator 24.0.0, SVG Export Plug-In . SVG Version: 6.00 Build 0)  -->
<svg version="1.1" id="Layer_1" xmlns="http://www.w3.org/2000/svg" xmlns:xlink="http://www.w3.org/1999/xlink" x="0px" y="0px"
	 viewBox="0 0 100 100" style="enable-background:new 0 0 100 100;" xml:space="preserve">
<style type="text/css">
	.st0{fill:#FF9741;}
</style>
<g>
	<g>
		<path class="st0" d="M90.6,12.9h-7.8V8.5H18.3v4.4H11v75.8h7.3v3.6h64.5v-3.6h7.8C90.6,88.7,90.6,12.9,90.6,12.9z M13.4,86.2V15.4
			h4.8v70.8C18.2,86.2,13.4,86.2,13.4,86.2z M80.3,89.8H20.8V11h59.5V89.8z M88.1,86.2h-5.3V15.4h5.3V86.2z"/>
		<rect x="24.7" y="19.9" class="st0" width="22.6" height="2.5"/>
		<rect x="24.7" y="25.7" class="st0" width="22.6" height="2.5"/>
		<polygon class="st0" points="40.6,32 33.5,37.8 31.9,36.1 30.1,37.9 33.2,41.2 42.2,34 		"/>
		<polygon class="st0" points="36.7,46.6 35.1,48.2 33.5,46.6 31.8,48.4 33.4,50 31.8,51.6 33.5,53.4 35.1,51.8 36.7,53.4 
			38.5,51.6 36.9,50 38.5,48.4 		"/>
		<polygon class="st0" points="36.7,57.8 35.1,59.4 33.5,57.8 31.8,59.6 33.4,61.2 31.8,62.7 33.5,64.5 35.1,62.9 36.7,64.5 
			38.5,62.7 36.9,61.2 38.5,59.6 		"/>
		<polygon class="st0" points="36.7,68.1 35.1,69.7 33.5,68.1 31.8,69.9 33.4,71.5 31.8,73.1 33.5,74.9 35.1,73.3 36.7,74.9 
			38.5,73.1 36.9,71.5 38.5,69.9 		"/>
		<polygon class="st0" points="52.8,48.7 42.2,48.7 42.2,51.2 55.3,51.2 55.3,23.2 48.2,23.2 48.2,25.7 52.8,25.7 		"/>
		<polygon class="st0" points="74.1,59.9 42.2,59.9 42.2,62.4 76.6,62.4 76.6,14.4 56.5,14.4 56.5,16.9 74.1,16.9 		"/>
		<rect x="42.2" y="70.2" class="st0" width="33.2" height="2.5"/>
		<rect x="24.7" y="79.4" class="st0" width="50.7" height="2.5"/>
		<path class="st0" d="M59.6,52.5c0,2.8,2.3,5.1,5.1,5.1c2.8,0,5.1-2.3,5.1-5.1c0-2.4-1.6-4.3-3.8-4.9V29.4c2.2-0.6,3.8-2.5,3.8-4.9
			c0-2.8-2.3-5.1-5.1-5.1s-5.1,2.3-5.1,5.1c0,2.4,1.6,4.3,3.8,4.9v18.2C61.2,48.1,59.6,50.1,59.6,52.5z M67.3,52.5
			c0,1.4-1.2,2.6-2.6,2.6s-2.6-1.2-2.6-2.6s1.2-2.6,2.6-2.6C66.1,49.9,67.3,51,67.3,52.5z M62.1,24.5c0-1.4,1.2-2.6,2.6-2.6
			c1.4,0,2.6,1.2,2.6,2.6s-1.2,2.6-2.6,2.6S62.1,25.9,62.1,24.5z"/>
	</g>
</g>
</svg>
