<svg width="1062" height="1062" viewBox="0 0 1062 1062" fill="none" xmlns="http://www.w3.org/2000/svg">
<path d="M947.804 508.099V508.748C947.657 525.703 941.714 540.41 930.847 552.365L775.896 707.315L775.418 707.794L774.984 708.313C770.062 714.214 723.669 764.376 642.232 772.522C615.332 775.211 595.731 782.663 582.581 789.771C576.026 793.315 571.119 796.748 567.737 799.416C566.047 800.749 564.738 801.891 563.796 802.759C563.324 803.193 562.944 803.559 562.654 803.846C562.508 803.99 562.385 804.114 562.284 804.217C562.274 804.228 562.264 804.238 562.254 804.248L538.752 827.75L538.746 827.756L538.741 827.762C538.067 828.437 537.425 828.858 536.831 829.119C536.262 829.368 535.517 829.567 534.464 829.567C533.417 829.567 532.674 829.369 532.103 829.119C531.505 828.857 530.857 828.432 530.176 827.75L285.593 583.168C285.593 583.168 285.593 583.168 285.593 583.168C283.84 581.414 283.467 579.872 283.467 578.875C283.467 577.877 283.84 576.336 285.593 574.582L309.174 551.001C308.926 551.25 309.587 550.592 309.687 550.491C310.01 550.166 310.416 549.747 310.893 549.234C311.847 548.209 313.051 546.84 314.428 545.104C317.182 541.631 320.597 536.73 324.074 530.222C331.05 517.165 338.144 497.889 340.822 471.103L340.826 471.063L340.829 471.024C348.572 389.204 398.282 343.355 405.301 336.882C405.657 336.554 405.903 336.327 406.028 336.202L406.028 336.201C406.753 335.476 407.82 335.009 409.079 335.009C410.338 335.009 411.405 335.476 412.13 336.202L412.452 336.523L412.792 336.825C436.194 357.548 456.897 366.742 473.776 369.966C490.716 373.202 502.685 370.209 508.18 368.377L511.771 367.18L514.364 364.423L632.137 239.197C644.184 227.22 658.929 221.396 674.76 221.396C690.467 221.396 706.568 228.384 717.539 239.353C728.316 250.13 734.495 265.186 735.529 280.649L736.404 293.74L749.495 294.615C764.955 295.648 780.012 301.827 790.791 312.605C801.568 323.382 807.746 338.438 808.78 353.901L809.656 366.991L822.746 367.867C838.106 368.893 853.065 374.997 863.828 385.644C874.75 397.624 878.161 413.911 877.063 431.425L876.129 446.334L891.033 447.33C905.897 448.324 918.662 454.135 929.848 465.32L929.85 465.323C941.931 477.398 947.804 492.2 947.804 508.099Z" stroke="#FF9829" stroke-width="30"/>
<path d="M476.692 190.943L540.584 254.835L486.062 309.357L423.415 246.71L419.687 242.982L410.553 233.847L400.164 241.526C377.39 258.361 345.99 256.186 326.575 236.772L273.19 183.386L273.188 183.385C269.771 179.968 267.262 174.6 266.355 166.647C265.445 158.666 266.286 149.04 268.68 138.663C271.945 124.514 277.757 110.393 284.122 99.1244L343.264 158.27L354.094 169.1L364.697 158.047L390.597 131.043L400.767 120.441L390.379 110.053L331.704 51.3785C343.022 45.3507 356.638 39.9398 370.065 36.9514C391.281 32.2291 406.138 34.7147 413.377 41.9542L413.439 42.016L413.501 42.077L466.675 94.0268C486.484 114.997 488.01 146.33 471.702 167.437L463.631 177.882L472.965 187.215L476.692 190.943Z" stroke="#FF9829" stroke-width="30"/>
<path d="M974.565 745.803L974.405 745.964L974.25 746.128C960.476 760.759 935.473 761.234 920.043 745.803L871.14 696.901L926.616 642.317L974.454 691.17L974.667 691.388L974.89 691.597C989.52 705.37 989.995 730.373 974.565 745.803Z" stroke="#FF9829" stroke-width="30"/>
<path d="M78.262 714.749L78.2564 714.744L78.2508 714.738C77.5759 714.065 77.1542 713.423 76.8939 712.828C76.6449 712.259 76.4453 711.515 76.4453 710.461C76.4453 709.414 76.6438 708.672 76.8939 708.1C77.1555 707.503 77.5804 706.854 78.262 706.173L188.761 595.674C188.761 595.674 188.761 595.674 188.761 595.674C190.515 593.921 192.056 593.548 193.054 593.548C194.052 593.548 195.593 593.921 197.346 595.674C197.346 595.674 197.346 595.674 197.346 595.674L508.962 907.298L508.968 907.304L508.973 907.31C509.648 907.983 510.07 908.625 510.33 909.22C510.579 909.789 510.779 910.533 510.779 911.587C510.779 912.634 510.58 913.376 510.33 913.947C510.069 914.545 509.644 915.193 508.962 915.875L398.463 1026.37L398.457 1026.38L398.452 1026.39C398.259 1026.58 397.561 1027.13 396.377 1027.61C395.838 1027.84 395.324 1027.99 394.887 1028.09C394.674 1028.13 394.5 1028.16 394.371 1028.18C394.24 1028.19 394.175 1028.19 394.175 1028.19C394.175 1028.19 394.11 1028.19 393.98 1028.18C393.851 1028.16 393.678 1028.13 393.465 1028.09C393.029 1027.99 392.516 1027.84 391.978 1027.61C390.795 1027.13 390.09 1026.58 389.887 1026.37L78.262 714.749Z" stroke="#FF9829" stroke-width="30"/>
</svg>
