<svg xmlns="http://www.w3.org/2000/svg" xmlns:xlink="http://www.w3.org/1999/xlink" viewBox="0 0 1898.52 1485.11"><defs><style>.cls-1{isolation:isolate;}.cls-17,.cls-18,.cls-2,.cls-48{fill:none;}.cls-2{stroke:#000;stroke-width:20px;}.cls-17,.cls-18,.cls-2{stroke-miterlimit:10;}.cls-2,.cls-21{opacity:0.06;}.cls-3{fill:#ecf5ff;}.cls-4{fill:#b8bcfc;}.cls-5{fill:#537df4;}.cls-6{fill:#c9dafc;}.cls-11,.cls-7{fill:#fff;}.cls-8{fill:#2fba20;}.cls-9{fill:url(#linear-gradient);}.cls-10,.cls-11{mix-blend-mode:overlay;}.cls-12,.cls-19{fill:#f67e1e;}.cls-13{fill:#fc9e49;}.cls-14{fill:#eff9fe;}.cls-15{fill:#f9ba39;}.cls-16{fill:#8bc53f;}.cls-17,.cls-18{stroke:#f67e1e;}.cls-17{stroke-width:4px;}.cls-18{stroke-width:2px;}.cls-19{opacity:0.2;}.cls-20{fill:#f6561e;}.cls-21{fill:#231f20;}.cls-22{fill:#a6a8ab;}.cls-23{fill:#d0d2d3;}.cls-24{fill:#929497;}.cls-25{fill:#f1f1f2;}.cls-26{fill:#b64d51;}.cls-27{fill:#903b42;}.cls-28{fill:#505891;}.cls-29{fill:#3f497a;}.cls-30{fill:#9c6449;}.cls-31{fill:#a8714f;}.cls-32{fill:#5f5363;}.cls-33{fill:#f7bd67;}.cls-34{fill:#4e5ea6;}.cls-35{fill:#415393;}.cls-36{fill:#bec1c5;}.cls-37{fill:#424459;}.cls-38{fill:#f9cb69;}.cls-39{fill:#f5a967;}.cls-40{fill:#f9e268;}.cls-41{fill:#0fbcff;}.cls-42{fill:#454766;}.cls-43{fill:#ff4fb5;}.cls-44{fill:#9c5984;}.cls-45{fill:#5f64a5;}.cls-46{fill:#bbbdbf;}.cls-47{fill:#8bde3f;}</style><linearGradient id="linear-gradient" x1="1014.62" y1="600.23" x2="1448.75" y2="600.23" gradientUnits="userSpaceOnUse"><stop offset="0" stop-color="#52afe7"/><stop offset="1" stop-color="#2c78e7"/></linearGradient></defs><title>Artboard 766</title><g class="cls-1"><g id="Object"><polyline class="cls-2" points="179.02 236.22 179.02 612.35 925.68 180.3 1788.54 660.92"/><path class="cls-3" d="M1010.09,18.62l12.71-7.31h0a13.82,13.82,0,0,1,14.35-.27L1375,206.43A29.85,29.85,0,0,1,1390,232.29V524.63a9.25,9.25,0,0,1-5,8.24h0l-12.8,7.38-2-5.32,3.7-3.43-347.6-201a20.06,20.06,0,0,1-10-17.38v-290c0-.19,0-.38,0-.58Z"/><path class="cls-4" d="M1342.75,244.66l44.18-25.49A29.85,29.85,0,0,0,1375,206.43l-4.92-2.84-27.35,15.82Z"/><path class="cls-4" d="M1389.92,230.82,1370,242.32v287l3.83,2.21-3.7,3.43,2,5.32,12.8-7.38h0a9.25,9.25,0,0,0,5-8.24V232.29C1390,231.79,1390,231.31,1389.92,230.82Z"/><path class="cls-3" d="M1024.26,18.49l337.87,195.38a29.83,29.83,0,0,1,14.93,25.85V532.06a9.35,9.35,0,0,1-14,8.1L1013.36,338a20.06,20.06,0,0,1-10-17.37v-290A14,14,0,0,1,1024.26,18.49Z"/><path class="cls-5" d="M1377.06,263.56V239.72a29.83,29.83,0,0,0-14.93-25.85L1024.26,18.49a14,14,0,0,0-20.93,12.09V47.49Z"/><polygon class="cls-6" points="1312.85 245.72 1019.68 76.65 1019.68 321.47 1312.85 490.55 1312.85 245.72"/><path class="cls-7" d="M1289.92,272.48V268.2l-4.23-2.43V247.68l-3.8-2.19v18.08l-16-9.19V235.54l-3.8-2.19v18.83l-16-9.19v-18.9l-3.8-2.2v18.9l-15.94-9.19v-19l-3.81-2.19v19l-15.94-9.19v-19l-3.81-2.19v19L1187,208.82v-19.1l-3.81-2.2v19.1l-15.94-9.19V178.26l-3.81-2.2v19.17L1147.45,186V166.8l-3.81-2.19v19.23l-15.94-9.19V155.34l-3.81-2.19v19.3L1108,163.26V143.89l-3.8-2.2v19.37l-16-9.19V132.43l-3.8-2.19v19.43l-16-9.19V121l-3.8-2.19v19.5l-16-9.19V109.52l-3.8-2.2V324.09l39.5,22.78v0l3.8,2.19v0l16,9.19v.1l3.8,2.19v-.09l15.94,9.19v.16l3.81,2.2v-.16l15.94,9.19v.23l3.81,2.2v-.23l15.94,9.19v.3l3.81,2.19v-.29l15.94,9.19v.37l3.81,2.19V406l15.94,9.19v.43l3.81,2.2v-.43l15.94,9.19v.5l3.81,2.19v-.49l15.94,9.19v.57l3.8,2.19v-.56l16,9.19V450l3.8,2.2v-.63l16,9.19v.7l3.8,2.19V463l4.23,2.43v-4.27l-4.23-2.44V435.41l4.23,2.43v-4.27l-4.23-2.44V407.85l4.23,2.43V406l-4.23-2.44V380.29l4.23,2.43v-4.27l-4.23-2.44V352.72l4.23,2.44v-4.27l-4.23-2.44V325.16l4.23,2.44v-4.27l-4.23-2.44V297.6l4.23,2.44v-4.27l-4.23-2.44V270Zm-27.78-16v23.29l-16-9.2V247.26ZM1127.7,261.6l15.94,9.2v23.29l-15.94-9.2Zm-3.81,21.1L1108,273.5V250.21l15.94,9.2Zm23.56-9.71,15.94,9.2v23.29l-15.94-9.2Zm19.75,11.39,15.94,9.2v23.29l-15.94-9.2ZM1187,295.77l15.94,9.2v23.29l-15.94-9.2Zm19.75,11.39,15.94,9.2v23.29l-15.94-9.2Zm0-4.27V279.6l15.94,9.2v23.29Zm-3.81-2.19L1187,291.5V268.21l15.94,9.2Zm-19.75-11.39-15.94-9.2V256.82l15.94,9.2Zm-19.75-11.39-15.94-9.2V245.43l15.94,9.2Zm-19.75-11.39-15.94-9.2V234l15.94,9.2Zm-19.75-11.39-15.94-9.2V222.65l15.94,9.2Zm-19.74-11.39-16-9.2V211.26l16,9.2Zm0,4.27v23.29l-16-9.2V238.82Zm0,27.56v23.29l-16-9.2V266.38Zm3.8,2.19,15.94,9.2v23.29l-15.94-9.2Zm19.75,11.39,15.94,9.2v23.29l-15.94-9.2Zm19.75,11.39,15.94,9.2V333l-15.94-9.2Zm19.75,11.39,15.94,9.2v23.29l-15.94-9.2ZM1187,323.33l15.94,9.2v23.29l-15.94-9.2Zm19.75,11.39,15.94,9.2v23.29L1206.7,358Zm19.75,11.4,15.94,9.19V378.6l-15.94-9.2Zm0-4.28V318.55l15.94,9.2V351Zm0-27.56V291l15.94,9.2v23.29Zm0-27.56V263.43l15.94,9.2v23.29Zm-3.81-2.19-15.94-9.2V252l15.94,9.2Zm-19.75-11.39-15.94-9.2V240.65l15.94,9.2Zm-19.75-11.39-15.94-9.2V229.26l15.94,9.2Zm-19.75-11.39-15.94-9.2V217.87l15.94,9.2ZM1143.64,239l-15.94-9.2V206.48l15.94,9.2Zm-19.75-11.4L1108,218.38V195.09l15.94,9.2Zm-19.74-11.39-16-9.19V183.7l16,9.2Zm-19.75-11.39-16-9.19V172.31l16,9.2Zm0,4.28v23.29l-16-9.2V199.87Zm0,27.56v23.29l-16-9.2V227.43Zm0,27.56v23.29l-16-9.2V255Zm0,27.56V315l-16-9.2V282.55Zm3.8,2.19,16,9.2v23.29l-16-9.2ZM1108,305.33l15.94,9.2v23.29l-15.94-9.2Zm19.75,11.4,15.94,9.19v23.29L1127.7,340Zm19.75,11.39,15.94,9.19V360.6l-15.94-9.2Zm19.75,11.39,15.94,9.19V372l-15.94-9.2ZM1187,350.9l15.94,9.19v23.29l-15.94-9.2Zm19.75,11.39,15.94,9.19v23.29l-15.94-9.2Zm19.75,11.39,15.94,9.19v23.29l-15.94-9.2Zm19.74,11.39,16,9.19v23.29l-16-9.2Zm0-4.28V357.51l16,9.19V390Zm0-27.56V329.94l16,9.2v23.29Zm0-27.56V302.38l16,9.2v23.29Zm0-27.56V274.82l16,9.2v23.29Zm-3.8-53v23.28l-15.94-9.19V235.87Zm-19.75-11.39V257l-15.94-9.19V224.48Zm-19.75-11.39v23.28L1187,236.38V213.09Zm-19.75-11.39v23.28L1167.2,225V201.7Zm-19.75-11.39v23.28l-15.94-9.19V190.31Zm-19.75-11.39V211.4l-15.94-9.19V178.92Zm-19.75-11.39V200L1108,190.82V167.53Zm-19.74-11.39v23.28l-16-9.19V156.14ZM1084.4,154v23.28l-16-9.19V144.75Zm-35.7-20.59,16,9.2v23.28l-16-9.19Zm0,27.56,16,9.2V193.4l-16-9.19Zm0,27.56,16,9.2V221l-16-9.2Zm0,27.56,16,9.2v23.29l-16-9.2Zm0,27.56,16,9.2v23.29l-16-9.2Zm0,27.56,16,9.2v23.29l-16-9.2Zm0,27.57,16,9.19v23.29l-16-9.2Zm19.75,34.67V310.12l16,9.19V342.6Zm19.75,11.39V321.51l16,9.19V354ZM1108,356.18V332.9l15.94,9.19v23.29Zm19.75,11.39V344.29l15.94,9.19v23.29ZM1147.45,379V355.68l15.94,9.19v23.29Zm19.75,11.39V367.07l15.94,9.19v23.29ZM1187,401.74V378.46l15.94,9.19v23.29Zm19.75,11.39V389.85l15.94,9.19v23.29Zm19.75,11.39V401.24l15.94,9.19v23.29Zm19.74,11.39V412.63l16,9.19v23.29Zm35.7,20.59-16-9.2V424l16,9.19Zm0-27.56-16-9.2V396.46l16,9.19Zm0-27.56-16-9.2V368.9l16,9.19Zm0-27.56-16-9.2V341.33l16,9.2Zm0-27.56-16-9.2V313.77l16,9.2Zm0-27.56-16-9.2V286.21l16,9.2Zm0-27.56-16-9.2V258.65l16,9.2Z"/><polygon class="cls-8" points="1299.07 247.26 1276.22 244.34 1279.87 252.36 1166.93 303.45 1149.07 271.46 1047.09 318.52 1050.31 325.5 1145.83 281.43 1163.66 313.37 1283.06 259.36 1286.77 267.5 1299.07 247.26"/><path class="cls-3" d="M1436.33,264.34,1449,257h0a13.8,13.8,0,0,1,14.35-.26L1880.27,497.2a29.85,29.85,0,0,1,14.93,25.85V815.4a9.25,9.25,0,0,1-5,8.24h0L1877.43,831l-2-5.32,3.7-3.43-426.58-246a20.05,20.05,0,0,1-10-17.37v-290c0-.2,0-.39,0-.58Z"/><path class="cls-4" d="M1848,535.43l44.18-25.49a29.79,29.79,0,0,0-11.89-12.74l-4.92-2.84L1848,510.18Z"/><path class="cls-4" d="M1895.15,521.59l-19.88,11.5v287l3.83,2.21-3.7,3.43,2,5.32,12.81-7.38h0a9.25,9.25,0,0,0,5-8.24V523.05C1895.2,522.56,1895.18,522.07,1895.15,521.59Z"/><path class="cls-3" d="M1450.5,264.2l416.86,240.43a29.85,29.85,0,0,1,14.93,25.86V822.83a9.33,9.33,0,0,1-14,8.09L1439.61,583.67a20.07,20.07,0,0,1-10-17.38v-290A14,14,0,0,1,1450.5,264.2Z"/><path class="cls-5" d="M1882.29,554.33V530.49a29.85,29.85,0,0,0-14.93-25.86L1450.5,264.2a14,14,0,0,0-20.93,12.09V293.2Z"/><polygon class="cls-8" points="1675.41 460.68 1675.41 468.47 1707.04 486.77 1707.04 478.98 1675.41 460.68"/><polygon class="cls-8" points="1675.41 473.09 1707.04 491.39 1707.04 489.24 1675.41 470.94 1675.41 473.09"/><polygon class="cls-8" points="1714.16 483.14 1714.16 490.94 1745.79 509.24 1745.79 501.44 1714.16 483.14"/><polygon class="cls-8" points="1714.16 495.56 1745.79 513.86 1745.79 511.7 1714.16 493.4 1714.16 495.56"/><polygon class="cls-8" points="1675.41 485.15 1675.41 492.94 1707.04 511.25 1707.04 503.45 1675.41 485.15"/><polygon class="cls-8" points="1675.41 497.56 1707.04 515.87 1707.04 513.71 1675.41 495.41 1675.41 497.56"/><polygon class="cls-8" points="1714.16 507.61 1714.16 515.41 1745.79 533.71 1745.79 525.91 1714.16 507.61"/><polygon class="cls-8" points="1714.16 520.03 1745.79 538.33 1745.79 536.18 1714.16 517.87 1714.16 520.03"/><polygon class="cls-8" points="1752.91 505.61 1752.91 513.4 1784.55 531.7 1784.55 523.91 1752.91 505.61"/><polygon class="cls-8" points="1752.91 518.02 1784.55 536.32 1784.55 534.17 1752.91 515.87 1752.91 518.02"/><polygon class="cls-8" points="1791.66 528.07 1791.66 535.86 1823.3 554.17 1823.3 546.37 1791.66 528.07"/><polygon class="cls-8" points="1791.66 540.48 1823.3 558.78 1823.3 556.63 1791.66 538.33 1791.66 540.48"/><polygon class="cls-8" points="1675.41 510.9 1675.41 518.7 1707.04 537 1707.04 529.21 1675.41 510.9"/><polygon class="cls-8" points="1675.41 523.32 1707.04 541.62 1707.04 539.47 1675.41 521.16 1675.41 523.32"/><polygon class="cls-8" points="1714.16 533.37 1714.16 541.16 1745.79 559.47 1745.79 551.67 1714.16 533.37"/><polygon class="cls-8" points="1714.16 545.78 1745.79 564.08 1745.79 561.93 1714.16 543.63 1714.16 545.78"/><polygon class="cls-8" points="1675.41 535.38 1675.41 543.17 1707.04 561.47 1707.04 553.68 1675.41 535.38"/><polygon class="cls-8" points="1675.41 547.79 1707.04 566.09 1707.04 563.94 1675.41 545.64 1675.41 547.79"/><polygon class="cls-8" points="1714.16 557.84 1714.16 565.63 1745.79 583.94 1745.79 576.14 1714.16 557.84"/><polygon class="cls-8" points="1714.16 570.25 1745.79 588.55 1745.79 586.4 1714.16 568.1 1714.16 570.25"/><polygon class="cls-8" points="1752.91 555.83 1752.91 563.63 1784.55 581.93 1784.55 574.13 1752.91 555.83"/><polygon class="cls-8" points="1752.91 568.24 1784.55 586.55 1784.55 584.39 1752.91 566.09 1752.91 568.24"/><polygon class="cls-8" points="1791.66 578.29 1791.66 586.09 1823.3 604.39 1823.3 596.6 1791.66 578.29"/><polygon class="cls-8" points="1791.66 590.71 1823.3 609.01 1823.3 606.86 1791.66 588.55 1791.66 590.71"/><polygon class="cls-6" points="1656.65 448.65 1656.65 679.53 1450.8 561.07 1450.8 330.19 1656.65 448.65"/><path class="cls-5" d="M1492.42,403.27a25.16,25.16,0,0,0-2.54-5.39,42.84,42.84,0,0,0-3.85-5.19q-2.22-2.58-4.83-5.18c-1.14-1.12-2.12-2.1-2.93-3a28.94,28.94,0,0,1-2-2.38,8.41,8.41,0,0,1-1.22-2.1,6,6,0,0,1-.38-2.1c0-1.18.42-1.89,1.26-2.13s2.19.17,4.1,1.27a37.37,37.37,0,0,1,5.42,3.81,52.78,52.78,0,0,1,4.53,4.26l1.86-7.13a46.11,46.11,0,0,0-3.52-3.39,54.38,54.38,0,0,0-5.31-4.09l0-7.09-7.47-4.32,0,7.37a11.43,11.43,0,0,0-4.52-.87,5,5,0,0,0-3.09,1.12,6,6,0,0,0-1.76,2.77,13.21,13.21,0,0,0-.58,4,16.64,16.64,0,0,0,.91,5.54,23,23,0,0,0,2.42,4.92,35.41,35.41,0,0,0,3.38,4.37c1.24,1.38,2.52,2.72,3.82,4s2.53,2.51,3.55,3.58a34.08,34.08,0,0,1,2.55,2.94,13.26,13.26,0,0,1,1.54,2.56,6.38,6.38,0,0,1,.53,2.53q0,2-1.35,2.4c-.89.23-2.54-.34-5-1.74a34.73,34.73,0,0,1-6.08-4.46,62.32,62.32,0,0,1-4.95-5l-2.58,6.37q1.32,1.5,4,4.19a47.74,47.74,0,0,0,7,5.59l0,8.11,7.47,4.31,0-8.31a12.52,12.52,0,0,0,4.89,1.05,5.44,5.44,0,0,0,3.25-1.06,5.33,5.33,0,0,0,1.78-2.69,12,12,0,0,0,.55-3.74A18.34,18.34,0,0,0,1492.42,403.27Z"/><polygon class="cls-5" points="1462.8 428.09 1462.8 429.91 1489.44 445.32 1489.44 443.5 1462.8 428.09"/><polygon class="cls-5" points="1462.8 433.8 1489.44 449.21 1489.44 447.39 1462.8 431.98 1462.8 433.8"/><polygon class="cls-5" points="1462.8 437.69 1489.44 453.1 1489.44 451.28 1462.8 435.87 1462.8 437.69"/><polygon class="cls-5" points="1462.8 441.58 1489.44 456.99 1489.44 455.17 1462.8 439.76 1462.8 441.58"/><polygon class="cls-5" points="1462.8 445.47 1489.44 460.88 1489.44 459.06 1462.8 443.66 1462.8 445.47"/><polygon class="cls-5" points="1462.8 449.36 1489.44 464.77 1489.44 462.95 1462.8 447.55 1462.8 449.36"/><polygon class="cls-5" points="1462.8 457.32 1462.8 459.13 1489.44 474.54 1489.44 472.73 1462.8 457.32"/><polygon class="cls-5" points="1462.8 463.02 1489.44 478.43 1489.44 476.62 1462.8 461.21 1462.8 463.02"/><polygon class="cls-5" points="1462.8 466.91 1489.44 482.32 1489.44 480.51 1462.8 465.1 1462.8 466.91"/><polygon class="cls-5" points="1462.8 470.8 1489.44 486.21 1489.44 484.4 1462.8 468.99 1462.8 470.8"/><polygon class="cls-5" points="1462.8 474.69 1489.44 490.1 1489.44 488.29 1462.8 472.88 1462.8 474.69"/><polygon class="cls-5" points="1462.8 478.58 1489.44 493.99 1489.44 492.18 1462.8 476.77 1462.8 478.58"/><polygon class="cls-5" points="1462.8 503.42 1462.8 505.23 1489.44 520.64 1489.44 518.83 1462.8 503.42"/><polygon class="cls-5" points="1462.8 509.12 1489.44 524.53 1489.44 522.72 1462.8 507.31 1462.8 509.12"/><polygon class="cls-5" points="1462.8 513.01 1489.44 528.42 1489.44 526.61 1462.8 511.2 1462.8 513.01"/><polygon class="cls-5" points="1462.8 516.9 1489.44 532.31 1489.44 530.5 1462.8 515.09 1462.8 516.9"/><polygon class="cls-5" points="1462.8 520.79 1489.44 536.2 1489.44 534.39 1462.8 518.98 1462.8 520.79"/><polygon class="cls-5" points="1462.8 524.68 1489.44 540.09 1489.44 538.28 1462.8 522.87 1462.8 524.68"/><polygon class="cls-5" points="1462.8 532.64 1462.8 534.45 1489.44 549.86 1489.44 548.05 1462.8 532.64"/><polygon class="cls-5" points="1462.8 538.34 1489.44 553.75 1489.44 551.94 1462.8 536.53 1462.8 538.34"/><polygon class="cls-5" points="1462.8 542.24 1489.44 557.64 1489.44 555.83 1462.8 540.42 1462.8 542.24"/><polygon class="cls-5" points="1462.8 546.13 1489.44 561.53 1489.44 559.72 1462.8 544.31 1462.8 546.13"/><polygon class="cls-5" points="1462.8 550.02 1489.44 565.43 1489.44 563.61 1462.8 548.2 1462.8 550.02"/><polygon class="cls-5" points="1462.8 553.91 1489.44 569.32 1489.44 567.5 1462.8 552.09 1462.8 553.91"/><polygon class="cls-5" points="1578.4 426.54 1578.4 428.74 1508.39 388.19 1508.39 386 1578.4 426.54"/><polygon class="cls-5" points="1578.4 435.05 1578.4 437.24 1508.39 396.7 1508.39 394.5 1578.4 435.05"/><polygon class="cls-5" points="1578.4 452.06 1578.4 454.25 1508.39 413.71 1508.39 411.52 1578.4 452.06"/><polygon class="cls-5" points="1578.4 477.58 1578.4 479.77 1508.39 439.23 1508.39 437.03 1578.4 477.58"/><polygon class="cls-5" points="1547.59 404.45 1578.4 422.29 1578.4 424.48 1547.59 406.64 1547.59 404.45"/><polygon class="cls-5" points="1545.16 403.04 1545.16 405.24 1508.39 383.94 1508.39 381.75 1545.16 403.04"/><polygon class="cls-5" points="1532.65 404.3 1578.4 430.8 1578.4 432.99 1532.65 406.49 1532.65 404.3"/><polygon class="cls-5" points="1530.22 402.9 1530.22 405.09 1508.39 392.44 1508.39 390.25 1530.22 402.9"/><polygon class="cls-5" points="1543.39 419.03 1543.39 421.22 1508.39 400.95 1508.39 398.76 1543.39 419.03"/><polygon class="cls-5" points="1530.35 415.73 1578.4 443.55 1578.4 445.75 1530.35 417.92 1530.35 415.73"/><polygon class="cls-5" points="1527.92 414.32 1527.92 416.52 1508.39 405.2 1508.39 403.01 1527.92 414.32"/><polygon class="cls-5" points="1550.01 431.37 1578.4 447.81 1578.4 450 1550.01 433.56 1550.01 431.37"/><polygon class="cls-5" points="1547.59 429.96 1547.59 432.16 1508.39 409.46 1508.39 407.26 1547.59 429.96"/><polygon class="cls-5" points="1542.18 439.59 1542.18 441.78 1508.39 422.21 1508.39 420.02 1542.18 439.59"/><polygon class="cls-5" points="1556.91 452.37 1556.91 454.56 1508.39 426.47 1508.39 424.27 1556.91 452.37"/><polygon class="cls-5" points="1526.93 439.26 1578.4 469.07 1578.4 471.26 1526.93 441.46 1526.93 439.26"/><polygon class="cls-5" points="1524.5 437.86 1524.5 440.05 1508.39 430.72 1508.39 428.53 1524.5 437.86"/><polygon class="cls-5" points="1552.44 458.24 1578.27 473.2 1578.27 475.39 1552.44 460.43 1552.44 458.24"/><polygon class="cls-5" points="1550.01 456.83 1550.01 459.02 1508.26 434.85 1508.26 432.65 1550.01 456.83"/><polygon class="cls-5" points="1537.84 458.34 1578.4 481.83 1578.4 484.02 1537.84 460.54 1537.84 458.34"/><polygon class="cls-5" points="1535.41 456.94 1535.41 459.13 1508.39 443.48 1508.39 441.29 1535.41 456.94"/><polygon class="cls-5" points="1558.11 474.33 1558.11 476.53 1508.39 447.73 1508.39 445.54 1558.11 474.33"/><polygon class="cls-5" points="1578.4 499.13 1578.4 501.32 1508.39 460.78 1508.39 458.59 1578.4 499.13"/><polygon class="cls-5" points="1578.4 507.64 1578.4 509.83 1508.39 469.29 1508.39 467.09 1578.4 507.64"/><polygon class="cls-5" points="1578.4 524.65 1578.4 526.84 1508.39 486.3 1508.39 484.11 1578.4 524.65"/><polygon class="cls-5" points="1547.59 477.04 1578.4 494.88 1578.4 497.07 1547.59 479.23 1547.59 477.04"/><polygon class="cls-5" points="1545.16 475.63 1545.16 477.82 1508.39 456.53 1508.39 454.34 1545.16 475.63"/><polygon class="cls-5" points="1532.65 476.89 1578.4 503.38 1578.4 505.58 1532.65 479.08 1532.65 476.89"/><polygon class="cls-5" points="1530.22 475.49 1530.22 477.68 1508.39 465.03 1508.39 462.84 1530.22 475.49"/><polygon class="cls-5" points="1543.39 491.62 1543.39 493.81 1508.39 473.54 1508.39 471.35 1543.39 491.62"/><polygon class="cls-5" points="1530.35 488.32 1578.4 516.14 1578.4 518.34 1530.35 490.51 1530.35 488.32"/><polygon class="cls-5" points="1527.92 486.91 1527.92 489.11 1508.39 477.79 1508.39 475.6 1527.92 486.91"/><polygon class="cls-5" points="1550.01 503.96 1578.4 520.4 1578.4 522.59 1550.01 506.15 1550.01 503.96"/><polygon class="cls-5" points="1547.59 502.55 1547.59 504.75 1508.39 482.05 1508.39 479.85 1547.59 502.55"/><path class="cls-8" d="M1789.84,705.19a18.44,18.44,0,0,1-5.09-4.6c-8.57-10.74-18.51-35.78-33.67-44.51-8.35-4.81-18.29-4.66-30.46,5.56-26,21.82-40.51,16.15-44.24,14a7.41,7.41,0,0,1-1-.63v13.3l184,106.05V673C1829.09,662.33,1808.84,716.12,1789.84,705.19Z"/><polygon class="cls-5" points="1639.86 457.65 1639.86 562.38 1592.15 534.93 1592.15 430.2 1639.86 457.65"/><polygon class="cls-5" points="1580.13 564.46 1580.13 619.66 1567.85 612.56 1567.85 557.48 1580.13 564.46"/><polygon class="cls-5" points="1595 593.59 1595 628.25 1582.72 621.15 1582.72 586.61 1595 593.59"/><polygon class="cls-5" points="1609.87 591.32 1609.87 636.84 1597.59 629.74 1597.59 584.34 1609.87 591.32"/><polygon class="cls-5" points="1624.73 622.81 1624.73 645.43 1612.46 638.32 1612.46 615.83 1624.73 622.81"/><polygon class="cls-5" points="1639.6 612.65 1639.6 654.02 1627.33 646.91 1627.33 605.67 1639.6 612.65"/><polygon class="cls-5" points="1520.67 539.84 1520.67 585.37 1508.39 578.26 1508.39 532.86 1520.67 539.84"/><polygon class="cls-5" points="1535.54 571.34 1535.54 593.95 1523.26 586.85 1523.26 564.36 1535.54 571.34"/><polygon class="cls-5" points="1550.4 561.17 1550.4 602.54 1538.13 595.43 1538.13 554.19 1550.4 561.17"/><polygon class="cls-5" points="1565.27 577.49 1565.27 611.13 1552.99 604.02 1552.99 570.51 1565.27 577.49"/><path class="cls-6" d="M1010.51,389.71l12.85-7.39h0a14,14,0,0,1,14.5-.27L1459.05,625a30.18,30.18,0,0,1,15.09,26.12V800.44a9.34,9.34,0,0,1-5,8.32v0l-12.93,7.45-2.06-5.37,3.73-3.47-431-248.59a20.25,20.25,0,0,1-10.14-17.55v-147c0-.2,0-.39,0-.59Z"/><path class="cls-4" d="M1426.43,663.61l44.64-25.75a30.14,30.14,0,0,0-12-12.88l-5-2.87-27.64,16Z"/><path class="cls-4" d="M1474.09,649.62,1454,661.24V805.16l3.87,2.23-3.74,3.47,2.06,5.37,12.93-7.45v0a9.34,9.34,0,0,0,5-8.32V651.1C1474.14,650.61,1474.11,650.11,1474.09,649.62Z"/><path class="cls-3" d="M1024.83,389.57,1446,632.49a30.17,30.17,0,0,1,15.09,26.13V808a9.44,9.44,0,0,1-14.15,8.18L1013.82,566.31a20.26,20.26,0,0,1-10.13-17.55v-147A14.1,14.1,0,0,1,1024.83,389.57Z"/><polygon class="cls-9" points="1014.62 551.25 1448.75 801.65 1448.75 649.21 1014.62 398.81 1014.62 551.25"/><g class="cls-10"><polygon class="cls-7" points="1111.53 532.17 1111.53 593.99 1097.79 586.02 1097.79 524.35 1111.53 532.17"/><polygon class="cls-7" points="1244.73 609.11 1244.73 670.92 1230.98 662.96 1230.98 601.29 1244.73 609.11"/><polygon class="cls-7" points="1128.18 564.79 1128.18 603.6 1114.43 595.64 1114.43 556.98 1128.18 564.79"/><polygon class="cls-7" points="1144.83 562.24 1144.83 613.22 1131.08 605.26 1131.08 554.42 1144.83 562.24"/><polygon class="cls-7" points="1161.48 597.51 1161.48 622.84 1147.73 614.88 1147.73 589.69 1161.48 597.51"/><polygon class="cls-7" points="1178.13 586.13 1178.13 632.45 1164.38 624.49 1164.38 578.32 1178.13 586.13"/><polygon class="cls-7" points="1194.78 604.4 1194.78 642.07 1181.03 634.11 1181.03 596.59 1194.78 604.4"/><polygon class="cls-7" points="1044.95 504.6 1044.95 555.58 1031.2 547.62 1031.2 496.78 1044.95 504.6"/><polygon class="cls-7" points="1061.6 539.87 1061.6 565.2 1047.85 557.24 1047.85 532.05 1061.6 539.87"/><polygon class="cls-7" points="1078.25 528.49 1078.25 574.81 1064.5 566.85 1064.5 520.67 1078.25 528.49"/><polygon class="cls-7" points="1094.9 546.76 1094.9 584.43 1081.15 576.47 1081.15 538.95 1094.9 546.76"/><polygon class="cls-7" points="1211.43 627.95 1211.43 651.69 1197.68 643.73 1197.68 620.13 1211.43 627.95"/><polygon class="cls-7" points="1228.08 631.59 1228.08 661.3 1214.33 653.35 1214.33 623.77 1228.08 631.59"/></g><g class="cls-10"><polygon class="cls-7" points="1430.52 665.97 1344.33 616.05 1344.33 613.54 1430.52 663.45 1430.52 665.97"/><polygon class="cls-7" points="1430.52 690.56 1344.33 640.65 1344.33 638.13 1430.52 688.04 1430.52 690.56"/><polygon class="cls-7" points="1409.57 700.5 1430.52 712.64 1430.52 715.15 1409.57 703.02 1409.57 700.5"/><polygon class="cls-7" points="1373.22 677.05 1344.33 660.32 1344.33 657.8 1373.22 674.54 1373.22 677.05"/><polygon class="cls-7" points="1375.7 675.98 1430.52 707.72 1430.52 710.24 1375.7 678.49 1375.7 675.98"/><polygon class="cls-7" points="1373.22 672.13 1344.33 655.4 1344.33 652.89 1373.22 669.62 1373.22 672.13"/><polygon class="cls-7" points="1375.7 671.06 1430.52 702.8 1430.52 705.32 1375.7 673.57 1375.7 671.06"/><polygon class="cls-7" points="1382.79 672.76 1344.33 650.48 1344.33 647.97 1382.79 670.24 1382.79 672.76"/><polygon class="cls-7" points="1385.27 671.68 1430.52 697.88 1430.52 700.4 1385.27 674.2 1385.27 671.68"/><polygon class="cls-7" points="1373.22 662.3 1344.33 645.57 1344.33 643.05 1373.22 659.78 1373.22 662.3"/><polygon class="cls-7" points="1375.7 661.22 1430.52 692.96 1430.52 695.48 1375.7 663.74 1375.7 661.22"/><polygon class="cls-7" points="1382.79 658 1344.33 635.73 1344.33 633.21 1382.79 655.48 1382.79 658"/><polygon class="cls-7" points="1360.58 640.22 1344.33 630.81 1344.33 628.29 1360.58 637.7 1360.58 640.22"/><polygon class="cls-7" points="1363.06 639.14 1430.52 678.21 1430.52 680.72 1363.06 641.66 1363.06 639.14"/><polygon class="cls-7" points="1407.08 662.23 1344.33 625.89 1344.33 623.37 1407.08 659.72 1407.08 662.23"/><polygon class="cls-7" points="1409.57 661.15 1430.52 673.29 1430.52 675.8 1409.57 663.67 1409.57 661.15"/><polygon class="cls-7" points="1379.31 638.71 1430.52 668.37 1430.52 670.89 1379.31 641.23 1379.31 638.71"/><polygon class="cls-7" points="1376.82 639.79 1344.33 620.97 1344.33 618.46 1376.82 637.27 1376.82 639.79"/><polygon class="cls-7" points="1396.34 641.25 1344.33 611.13 1344.33 608.62 1396.34 638.74 1396.34 641.25"/><polygon class="cls-7" points="1398.82 640.18 1430.52 658.53 1430.52 661.05 1398.82 642.69 1398.82 640.18"/><polygon class="cls-7" points="1368.18 617.51 1368.18 620.03 1344.33 606.22 1344.33 603.7 1368.18 617.51"/><polygon class="cls-7" points="1370.66 618.95 1430.52 653.61 1430.52 656.13 1370.66 621.47 1370.66 618.95"/><polygon class="cls-7" points="1409.57 670.99 1430.52 683.13 1430.52 685.64 1409.57 673.51 1409.57 670.99"/><polygon class="cls-7" points="1385.27 659.44 1385.27 656.92 1407.08 669.55 1407.08 672.07 1385.27 659.44"/></g><g class="cls-10"><polygon class="cls-7" points="1430.52 738.52 1344.33 688.61 1344.33 686.09 1430.52 736 1430.52 738.52"/><polygon class="cls-7" points="1430.52 763.12 1344.33 713.2 1344.33 710.68 1430.52 760.6 1430.52 763.12"/><polygon class="cls-7" points="1373.22 744.69 1344.33 727.96 1344.33 725.44 1373.22 742.17 1373.22 744.69"/><polygon class="cls-7" points="1375.7 743.61 1430.52 775.36 1430.52 777.87 1375.7 746.13 1375.7 743.61"/><polygon class="cls-7" points="1382.79 745.31 1344.33 723.04 1344.33 720.52 1382.79 742.79 1382.79 745.31"/><polygon class="cls-7" points="1385.27 744.23 1430.52 770.44 1430.52 772.95 1385.27 746.75 1385.27 744.23"/><polygon class="cls-7" points="1373.22 734.85 1344.33 718.12 1344.33 715.6 1373.22 732.33 1373.22 734.85"/><polygon class="cls-7" points="1375.7 733.77 1430.52 765.52 1430.52 768.03 1375.7 736.29 1375.7 733.77"/><polygon class="cls-7" points="1382.79 730.55 1344.33 708.28 1344.33 705.76 1382.79 728.04 1382.79 730.55"/><polygon class="cls-7" points="1360.58 712.77 1344.33 703.36 1344.33 700.85 1360.58 710.26 1360.58 712.77"/><polygon class="cls-7" points="1363.06 711.7 1430.52 750.76 1430.52 753.28 1363.06 714.21 1363.06 711.7"/><polygon class="cls-7" points="1407.08 734.79 1344.33 698.44 1344.33 695.93 1407.08 732.27 1407.08 734.79"/><polygon class="cls-7" points="1409.57 733.71 1430.52 745.84 1430.52 748.36 1409.57 736.23 1409.57 733.71"/><polygon class="cls-7" points="1379.31 711.27 1430.52 740.92 1430.52 743.44 1379.31 713.78 1379.31 711.27"/><polygon class="cls-7" points="1376.82 712.35 1344.33 693.52 1344.33 691.01 1376.82 709.83 1376.82 712.35"/><polygon class="cls-7" points="1396.34 713.81 1344.33 683.69 1344.33 681.17 1396.34 711.29 1396.34 713.81"/><polygon class="cls-7" points="1398.82 712.73 1430.52 731.09 1430.52 733.6 1398.82 715.25 1398.82 712.73"/><polygon class="cls-7" points="1368.18 690.07 1368.18 692.58 1344.33 678.77 1344.33 676.25 1368.18 690.07"/><polygon class="cls-7" points="1370.66 691.5 1430.52 726.17 1430.52 728.68 1370.66 694.02 1370.66 691.5"/><polygon class="cls-7" points="1409.57 743.55 1430.52 755.68 1430.52 758.2 1409.57 746.06 1409.57 743.55"/><polygon class="cls-7" points="1385.27 731.99 1385.27 729.48 1407.08 742.11 1407.08 744.62 1385.27 731.99"/></g><g class="cls-10"><polygon class="cls-7" points="1030.84 423.21 1059.24 439.66 1059.24 442.66 1030.84 426.21 1030.84 423.21"/><polygon class="cls-7" points="1092.77 467.93 1030.84 432.07 1030.84 429.07 1092.77 464.93 1092.77 467.93"/><polygon class="cls-7" points="1062.2 441.37 1133.47 482.64 1133.47 485.64 1062.2 444.37 1062.2 441.37"/><polygon class="cls-7" points="1095.73 466.64 1133.47 488.5 1133.47 491.5 1095.73 469.64 1095.73 466.64"/><polygon class="cls-7" points="1133.47 494.36 1133.47 497.36 1030.84 437.92 1030.84 434.93 1133.47 494.36"/><polygon class="cls-7" points="1069.54 466.19 1030.84 443.78 1030.84 440.78 1069.54 463.19 1069.54 466.19"/><polygon class="cls-7" points="1133.47 503.21 1072.49 467.9 1072.49 464.9 1133.47 500.21 1133.47 503.21"/></g><g class="cls-10"><polygon class="cls-7" points="1142.1 487.56 1170.5 504.01 1170.5 507 1142.1 490.56 1142.1 487.56"/><polygon class="cls-7" points="1204.03 532.28 1142.1 496.41 1142.1 493.42 1204.03 529.28 1204.03 532.28"/><polygon class="cls-7" points="1173.46 505.72 1244.73 546.99 1244.73 549.99 1173.46 508.72 1173.46 505.72"/><polygon class="cls-7" points="1206.99 530.99 1244.73 552.85 1244.73 555.85 1206.99 533.99 1206.99 530.99"/><polygon class="cls-7" points="1244.73 558.71 1244.73 561.7 1142.1 502.27 1142.1 499.27 1244.73 558.71"/><polygon class="cls-7" points="1180.79 530.53 1142.1 508.13 1142.1 505.13 1180.79 527.54 1180.79 530.53"/><polygon class="cls-7" points="1244.73 567.56 1183.75 532.25 1183.75 529.25 1244.73 564.56 1244.73 567.56"/></g><g class="cls-10"><polygon class="cls-7" points="1030.84 453.13 1059.24 469.58 1059.24 472.58 1030.84 456.13 1030.84 453.13"/><polygon class="cls-7" points="1092.77 497.85 1030.84 461.99 1030.84 458.99 1092.77 494.85 1092.77 497.85"/><polygon class="cls-7" points="1062.2 471.29 1133.47 512.57 1133.47 515.56 1062.2 474.29 1062.2 471.29"/><polygon class="cls-7" points="1095.73 496.56 1133.47 518.42 1133.47 521.42 1095.73 499.56 1095.73 496.56"/><polygon class="cls-7" points="1133.47 524.28 1133.47 527.27 1030.84 467.84 1030.84 464.85 1133.47 524.28"/><polygon class="cls-7" points="1069.54 496.11 1030.84 473.7 1030.84 470.7 1069.54 493.11 1069.54 496.11"/><polygon class="cls-7" points="1133.47 533.13 1072.49 497.82 1072.49 494.82 1133.47 530.13 1133.47 533.13"/></g><g class="cls-10"><polygon class="cls-7" points="1142.1 517.48 1170.5 533.93 1170.5 536.92 1142.1 520.48 1142.1 517.48"/><polygon class="cls-7" points="1204.03 562.2 1142.1 526.33 1142.1 523.34 1204.03 559.2 1204.03 562.2"/><polygon class="cls-7" points="1173.46 535.64 1244.73 576.91 1244.73 579.91 1173.46 538.64 1173.46 535.64"/><polygon class="cls-7" points="1206.99 560.91 1244.73 582.77 1244.73 585.76 1206.99 563.91 1206.99 560.91"/><polygon class="cls-7" points="1244.73 588.63 1244.73 591.62 1142.1 532.19 1142.1 529.19 1244.73 588.63"/><polygon class="cls-7" points="1180.79 560.45 1142.1 538.05 1142.1 535.05 1180.79 557.46 1180.79 560.45"/><polygon class="cls-7" points="1244.73 597.48 1183.75 562.17 1183.75 559.17 1244.73 594.48 1244.73 597.48"/></g><path class="cls-11" d="M1254.62,621v55.68l78.77,45.44V666.42ZM1280,644.54l-17.47-10.12v-1.84L1280,642.7Zm20.63,13.71v1.84L1262.48,638v-1.85ZM1325.63,671l-43.86-25.39v-1.85l43.86,25.4Zm0,3.61-23.23-13.45V659.3l23.23,13.45Zm0,3.6-63.15-36.57v-1.84l63.15,36.57Zm-39.34-21V659l-23.81-13.79v-1.84Zm39.34,24.62-37.52-21.72v-1.85L1325.63,680Zm-9.13,3h0c5,2.91,9.11,10,9.1,15.76s-4.1,8.11-9.13,5.23v-21Zm-31.61-7.76c0-5.79,4.11-8.12,9.15-5.21s9.11,10,9.09,15.75-4.09,8.12-9.12,5.23v-10.5Zm-22.51-13c0-5.79,4.12-8.12,9.15-5.21a19,19,0,0,1,6.82,7.46l-6.85,3v10.5h0C1266.44,676.89,1262.36,669.83,1262.38,664Z"/><path class="cls-11" d="M1254.62,552.76v55.68l78.77,45.44V598.19Zm56.82,73.77,1.12-1.56,1.11-1.57,1.1,2.85,1.11,2.84-1.16-.67a12.45,12.45,0,0,0,5.55,9c3.09,1.78,5.61.35,5.62-3.2a12.31,12.31,0,0,0-5.58-9.66v-2.35c4.21,2.44,7.63,8.34,7.61,13.19s-3.45,6.8-7.66,4.37c-4-2.33-7.32-7.83-7.59-12.55Zm-14.5-25.46,7.6,4.32V631l-7.6-4.41Zm-9.21,6.3,7.61,4.32v14l-7.61-4.4Zm-9.21-19.51,7.61,4.32v28.2l-7.61-4.4Zm-9.21,1.41,7.61,4.32v21.47l-7.61-4.4Zm-9.21-18,7.61,4.32v34.19l-7.61-4.4Z"/><path class="cls-7" d="M518.26,310.92,34,590.27a40.43,40.43,0,0,0-20.22,35V976.84a21.15,21.15,0,0,0,31.73,18.32L516.43,723.52a38.88,38.88,0,0,0,19.44-33.67V321.09A11.74,11.74,0,0,0,518.26,310.92Z"/><path class="cls-4" d="M516,302.81l0,0-.12-.07h0a11.6,11.6,0,0,0-11.58.08L20,582.15a40.42,40.42,0,0,0-20.23,35V968.72a21,21,0,0,0,10.77,18.42h0l13.76,8a21,21,0,0,1-10.54-18.3V625.29a40.43,40.43,0,0,1,20.22-35L518.26,310.92a11.64,11.64,0,0,1,11.59-.08h0Z"/><path class="cls-4" d="M24.51,995.26h0l-.14-.07Z"/><path class="cls-12" d="M518.26,310.92,34,590.27a40.43,40.43,0,0,0-20.22,35v13.56L535.87,337.7V321.09A11.74,11.74,0,0,0,518.26,310.92Z"/><path class="cls-13" d="M34,590.27,518.26,310.92a11.64,11.64,0,0,1,11.59-.08h0l-13.81-8,0,0-.12-.07h0a11.6,11.6,0,0,0-11.58.08L20,582.15a40.42,40.42,0,0,0-20.23,35v13.75l14,7.94V625.29A40.43,40.43,0,0,1,34,590.27Z"/><path class="cls-14" d="M36.13,597.83C41,595,45,597.27,45,602.91s-3.95,12.49-8.85,15.32-8.89.56-8.9-5.08S31.23,600.66,36.13,597.83Z"/><path class="cls-15" d="M58.2,585.08c4.9-2.83,8.88-.56,8.9,5.07s-3.94,12.5-8.85,15.33-8.88.55-8.9-5.08S53.29,587.91,58.2,585.08Z"/><path class="cls-16" d="M80.26,572.33c4.9-2.83,8.89-.56,8.9,5.07s-3.94,12.49-8.84,15.32-8.89.56-8.91-5.07S75.36,575.16,80.26,572.33Z"/><polygon class="cls-12" points="474.21 554.68 474.26 554.77 474.26 554.65 474.21 554.68"/><polygon class="cls-12" points="47.99 757.81 239.08 647.15 239.08 641.57 47.99 752.23 47.99 757.81"/><polygon class="cls-12" points="47.99 812.33 239.08 701.67 239.08 696.09 47.99 806.75 47.99 812.33"/><polygon class="cls-12" points="94.44 834.38 47.99 861.28 47.99 866.86 94.44 839.96 94.44 834.38"/><polygon class="cls-12" points="175.03 782.38 239.08 745.29 239.08 739.71 175.03 776.81 175.03 782.38"/><polygon class="cls-12" points="169.52 780 47.99 850.37 47.99 855.95 169.52 785.58 169.52 780"/><polygon class="cls-12" points="175.03 771.48 239.08 734.39 239.08 728.81 175.03 765.9 175.03 771.48"/><polygon class="cls-12" points="169.52 769.09 47.99 839.47 47.99 845.05 169.52 774.67 169.52 769.09"/><polygon class="cls-12" points="153.81 772.86 239.08 723.48 239.08 717.9 153.81 767.28 153.81 772.86"/><polygon class="cls-12" points="148.31 770.47 47.99 828.56 47.99 834.14 148.31 776.05 148.31 770.47"/><polygon class="cls-12" points="175.03 749.67 239.08 712.58 239.08 707 175.03 744.09 175.03 749.67"/><polygon class="cls-12" points="169.52 747.28 47.99 817.66 47.99 823.24 169.52 752.86 169.52 747.28"/><polygon class="cls-12" points="153.81 740.14 239.08 690.77 239.08 685.19 153.81 734.57 153.81 740.14"/><polygon class="cls-12" points="203.06 700.72 239.08 679.86 239.08 674.28 203.06 695.14 203.06 700.72"/><polygon class="cls-12" points="197.55 698.34 47.99 784.94 47.99 790.52 197.55 703.91 197.55 698.34"/><polygon class="cls-12" points="99.95 749.53 239.08 668.96 239.08 663.38 99.95 743.95 99.95 749.53"/><polygon class="cls-12" points="94.44 747.14 47.99 774.04 47.99 779.62 94.44 752.72 94.44 747.14"/><polygon class="cls-12" points="161.52 697.39 47.99 763.13 47.99 768.71 161.52 702.97 161.52 697.39"/><polygon class="cls-12" points="167.03 699.78 239.08 658.05 239.08 652.47 167.03 694.2 167.03 699.78"/><polygon class="cls-12" points="123.77 703.02 239.08 636.24 239.08 630.66 123.77 697.44 123.77 703.02"/><polygon class="cls-12" points="118.26 700.63 47.99 741.33 47.99 746.9 118.26 706.21 118.26 700.63"/><polygon class="cls-12" points="186.2 650.38 186.2 655.96 239.08 625.34 239.08 619.76 186.2 650.38"/><polygon class="cls-12" points="180.69 653.57 47.99 730.42 47.99 736 180.69 659.15 180.69 653.57"/><polygon class="cls-12" points="94.44 768.95 47.99 795.85 47.99 801.43 94.44 774.53 94.44 768.95"/><polygon class="cls-12" points="148.31 743.34 148.31 737.76 99.95 765.76 99.95 771.34 148.31 743.34"/><polygon class="cls-12" points="47.99 903.17 239.08 792.51 239.08 786.93 47.99 897.59 47.99 903.17"/><polygon class="cls-12" points="94.44 925.21 47.99 952.11 47.99 957.69 94.44 930.79 94.44 925.21"/><polygon class="cls-12" points="175.03 873.22 239.08 836.13 239.08 830.55 175.03 867.64 175.03 873.22"/><polygon class="cls-12" points="169.52 870.83 47.99 941.21 47.99 946.79 169.52 876.41 169.52 870.83"/><polygon class="cls-12" points="175.03 862.32 239.08 825.22 239.08 819.64 175.03 856.74 175.03 862.32"/><polygon class="cls-12" points="169.52 859.93 47.99 930.3 47.99 935.88 169.52 865.51 169.52 859.93"/><polygon class="cls-12" points="153.81 863.69 239.08 814.32 239.08 808.74 153.81 858.11 153.81 863.69"/><polygon class="cls-12" points="148.31 861.3 47.99 919.4 47.99 924.98 148.31 866.88 148.31 861.3"/><polygon class="cls-12" points="175.03 840.5 239.08 803.41 239.08 797.83 175.03 834.93 175.03 840.5"/><polygon class="cls-12" points="169.52 838.12 47.99 908.49 47.99 914.07 169.52 843.7 169.52 838.12"/><path class="cls-12" d="M77.87,661.44q1.59,1.86,1.59,5.79A19.09,19.09,0,0,1,76,678.08,29.78,29.78,0,0,1,66,687L48.31,697.18V653.53l16.75-9.66q6.25-3.61,9.53-2.42c2.19.79,3.28,2.94,3.28,6.43a18.09,18.09,0,0,1-1.15,6.24,20.21,20.21,0,0,1-3.25,5.77A4.75,4.75,0,0,1,77.87,661.44Zm-20.39-4.28v8.41l6.36-3.67c3.11-1.8,4.68-4.11,4.68-6.94s-1.57-3.27-4.68-1.47ZM70.1,671.25q0-4.43-4.86-1.62l-7.76,4.49V683l7.76-4.48Q70.1,675.69,70.1,671.25Z"/><path class="cls-12" d="M106.21,655.27l-13.84,8-2.58,10-9.44,5.45,14.44-52,9.12-5.27,14.5,35.28-9.63,5.56Zm-2.72-7.53-4.2-11.54-4.21,16.4Z"/><path class="cls-12" d="M126.36,618.26l-10,5.81v-9.79l29.31-16.93v9.79l-10,5.78v33.85l-9.26,5.35Z"/><path class="cls-12" d="M180.23,577.37V621L171,626.36v-17l-12.63,7.29v17L149.08,639V595.35l9.26-5.34v16.4L171,599.12v-16.4Z"/><path class="cls-12" d="M201.08,597.38,196,600.29v11.6l-9.25,5.35V573.59l15-8.64q4.44-2.57,7.72-2.49a5.93,5.93,0,0,1,5,2.7c1.18,1.75,1.77,4.26,1.77,7.55a26.22,26.22,0,0,1-1.66,9.21,28.81,28.81,0,0,1-4.75,8.26l7.07,9.64L207,605.55Zm4.4-23.18q-1.46-.84-4.3.8L196,578v12.78l5.15-3a11.41,11.41,0,0,0,4.3-4.13,10.78,10.78,0,0,0,1.45-5.54C206.93,576.07,206.45,574.77,205.48,574.2Z"/><path class="cls-12" d="M228.56,591.06a8.69,8.69,0,0,1-6.5-4.36q-2.37-3.81-2.37-10.29a38,38,0,0,1,2.37-13,42.82,42.82,0,0,1,6.5-11.86,32.21,32.21,0,0,1,9.32-8.32c3.47-2,6.57-2.81,9.33-2.45a8.7,8.7,0,0,1,6.5,4.35q2.37,3.81,2.36,10.29a38,38,0,0,1-2.36,13,42.82,42.82,0,0,1-6.5,11.86,32.35,32.35,0,0,1-9.33,8.31Q232.69,591.6,228.56,591.06Zm13.81-16.83a22.23,22.23,0,0,0,3.18-6.24,22.56,22.56,0,0,0,1.17-7.19,12.32,12.32,0,0,0-1.17-5.84,4.63,4.63,0,0,0-3.18-2.56,6.5,6.5,0,0,0-4.49,1,14.9,14.9,0,0,0-4.48,4.15,21.66,21.66,0,0,0-3.18,6.23,22.61,22.61,0,0,0-1.17,7.19,12.32,12.32,0,0,0,1.17,5.84,4.56,4.56,0,0,0,3.18,2.56,6.45,6.45,0,0,0,4.48-1A14.94,14.94,0,0,0,242.37,574.23Z"/><path class="cls-12" d="M268.12,568.22a8.69,8.69,0,0,1-6.5-4.36q-2.37-3.81-2.36-10.29a38,38,0,0,1,2.36-13,42.82,42.82,0,0,1,6.5-11.86,32.38,32.38,0,0,1,9.33-8.32q5.19-3,9.32-2.45a8.7,8.7,0,0,1,6.5,4.35q2.37,3.81,2.37,10.29a38,38,0,0,1-2.37,13,42.62,42.62,0,0,1-6.5,11.85,32.34,32.34,0,0,1-9.32,8.32Q272.26,568.76,268.12,568.22Zm13.81-16.83a22.23,22.23,0,0,0,3.18-6.24,22.56,22.56,0,0,0,1.17-7.19,12.32,12.32,0,0,0-1.17-5.84,4.63,4.63,0,0,0-3.18-2.56,6.46,6.46,0,0,0-4.48,1,14.69,14.69,0,0,0-4.49,4.15,22.17,22.17,0,0,0-3.18,6.23,22.61,22.61,0,0,0-1.17,7.19,12.32,12.32,0,0,0,1.17,5.84,4.63,4.63,0,0,0,3.18,2.56,6.54,6.54,0,0,0,4.49-1A15,15,0,0,0,281.93,551.39Z"/><path class="cls-12" d="M330.05,534.52,330,511.44l-8.42,23.69-4.12,2.37-8.36-13.37v22.51l-8.56,4.94V507.94l7.62-4.41,11.5,18.55,11.23-31.67,7.62-4.4.09,43.59Z"/><path class="cls-12" d="M348.9,523.2a11.1,11.1,0,0,1-6.08,0l3-10.86a11.11,11.11,0,0,0,5.09.17,16.86,16.86,0,0,0,5.71-2.1q5.32-3.09,5.33-6.64c0-1.24-.51-1.87-1.52-1.89a19.41,19.41,0,0,0-4.89.92,33.31,33.31,0,0,1-6.17,1.28,5.28,5.28,0,0,1-4.26-1.44q-1.77-1.65-1.77-6.2a22,22,0,0,1,1.64-8.15,27.49,27.49,0,0,1,4.88-7.9,31.06,31.06,0,0,1,8-6.48,26.66,26.66,0,0,1,6.36-2.7,12,12,0,0,1,5.52-.35l-2.85,10.81a13.85,13.85,0,0,0-9.07,1.87,12.22,12.22,0,0,0-4,3.42,6.25,6.25,0,0,0-1.26,3.56c0,1.17.49,1.75,1.49,1.76a19.24,19.24,0,0,0,4.82-1,32.93,32.93,0,0,1,6.19-1.3,5.49,5.49,0,0,1,4.26,1.41q1.8,1.62,1.8,6.16a21.81,21.81,0,0,1-1.64,8.06,27.76,27.76,0,0,1-4.91,7.91,30.51,30.51,0,0,1-7.95,6.5A28.29,28.29,0,0,1,348.9,523.2Z"/><polygon class="cls-17" points="281.27 599.99 502.82 472.07 503.42 685.01 281.27 812.33 281.27 599.99"/><line class="cls-18" x1="281.27" y1="636.2" x2="503.42" y2="507.5"/><line class="cls-18" x1="281.27" y1="661.7" x2="503.42" y2="533"/><line class="cls-18" x1="281.27" y1="687.2" x2="503.42" y2="558.5"/><line class="cls-18" x1="281.27" y1="712.7" x2="503.42" y2="584"/><line class="cls-18" x1="281.27" y1="738.21" x2="503.42" y2="609.5"/><line class="cls-18" x1="281.27" y1="763.71" x2="503.42" y2="635"/><line class="cls-18" x1="281.27" y1="789.21" x2="503.42" y2="660.5"/><line class="cls-18" x1="353.96" y1="558.02" x2="353.96" y2="771.48"/><line class="cls-18" x1="432.04" y1="512.94" x2="432.04" y2="725.92"/><polygon class="cls-19" points="281.27 599.99 502.82 472.07 503.42 507.5 281.27 636.2 281.27 599.99"/><path class="cls-13" d="M236.29,106.1,220,96.7l0,0a17.75,17.75,0,0,0-18.44-.34l-97.52,56a38.37,38.37,0,0,0-19.19,33.22V344.36a11.89,11.89,0,0,0,6.38,10.58v0l16.45,9.48,2.61-6.84-4.75-4.4,110-63.23a25.77,25.77,0,0,0,12.89-22.32V111.91c0-.25,0-.49,0-.74Z"/><path class="cls-20" d="M145.45,201.51,88.69,168.77A38.23,38.23,0,0,1,104,152.39l6.32-3.64,35.14,20.32Z"/><path class="cls-20" d="M84.84,183.73l25.55,14.77V350.36l-4.92,2.84,4.75,4.4-2.61,6.84L91.16,355v0a11.89,11.89,0,0,1-6.38-10.58V185.61C84.78,185,84.81,184.35,84.84,183.73Z"/><path class="cls-12" d="M218.07,105.93l-97.51,56a38.32,38.32,0,0,0-19.19,33.22V353.91a12,12,0,0,0,18,10.39l112.72-64.78A25.78,25.78,0,0,0,245,277.2V121.47A17.94,17.94,0,0,0,218.07,105.93Z"/><path class="cls-7" d="M190.18,169.31l2.22,116.94L167.87,301l-1.74-91.38L150,219.38l-.48-25.56Z"/><polygon class="cls-3" points="1771.24 828.24 1771.24 1000.11 1509.12 849.26 1509.12 677.4 1771.24 828.24"/><polygon class="cls-13" points="1509.12 677.4 1771.24 828.24 1786.99 819.12 1524.89 668.3 1509.12 677.4"/><polygon class="cls-4" points="1771.24 828.24 1771.24 1000.11 1786.99 990.99 1786.99 819.12 1771.24 828.24"/><polygon class="cls-12" points="1509.12 715.89 1771.24 866.74 1771.24 828.24 1509.12 677.4 1509.12 715.89"/><polygon class="cls-12" points="1771.24 866.74 1786.99 857.68 1786.99 819.12 1771.24 828.24 1771.24 866.74"/><polygon class="cls-12" points="1742.31 894.54 1742.31 901.02 1535.44 781.22 1535.44 774.74 1742.31 894.54"/><polygon class="cls-12" points="1742.31 919.67 1742.31 926.15 1535.44 806.35 1535.44 799.88 1742.31 919.67"/><polygon class="cls-12" points="1651.27 829.25 1742.31 881.97 1742.31 888.45 1651.27 835.73 1651.27 829.25"/><polygon class="cls-12" points="1644.1 825.1 1644.1 831.58 1535.44 768.65 1535.44 762.18 1644.1 825.1"/><polygon class="cls-12" points="1607.12 828.82 1742.31 907.11 1742.31 913.58 1607.12 835.3 1607.12 828.82"/><polygon class="cls-12" points="1599.95 824.67 1599.95 831.15 1535.44 793.79 1535.44 787.31 1599.95 824.67"/><polygon class="cls-12" points="1646.04 876.49 1742.31 932.24 1742.31 938.72 1646.04 882.97 1646.04 876.49"/><polygon class="cls-12" points="1638.87 872.34 1638.87 878.82 1535.44 818.92 1535.44 812.44 1638.87 872.34"/><polygon class="cls-12" points="1535.44 824.89 1677.41 907.11 1677.41 913.58 1535.44 831.37 1535.44 824.89"/><path class="cls-21" d="M1490.43,1363.9l138.73-81.21L868.93,845.86,523.68,1045.18l505.76,293.44a260.5,260.5,0,0,0-43.39-3.52c-62.11,0-112.45,20.4-112.45,45.56s50.34,45.57,112.45,45.57,112.45-20.4,112.45-45.57a17.45,17.45,0,0,0-.12-2l184.26,106.9,80.08-46.87c19.25,6.24,43.66,10,70.24,10,62.1,0,112.45-20.4,112.45-45.57C1545.41,1386.41,1523.35,1371.84,1490.43,1363.9Z"/><polygon class="cls-22" points="1456.25 1087.71 1438.7 1077.47 1438.7 1227.45 1456.25 1237.63 1456.25 1087.71"/><polygon class="cls-6" points="1457.6 1066.52 1438.7 1077.47 1456.25 1087.71 1475.2 1076.73 1457.6 1066.52"/><polygon class="cls-23" points="1475.21 1076.73 1456.25 1087.71 1456.25 1237.63 1475.21 1226.71 1475.21 1076.73"/><polygon class="cls-22" points="633.97 874.76 616.43 864.52 616.43 1014.5 633.97 1024.68 633.97 874.76"/><polygon class="cls-6" points="635.32 853.47 616.42 864.52 633.97 874.76 652.93 863.68 635.32 853.47"/><polygon class="cls-24" points="652.93 863.68 633.97 874.76 633.97 1024.68 652.93 1013.66 652.93 863.68"/><polygon class="cls-22" points="1228.2 1220.52 1210.65 1210.27 1210.65 1360.25 1228.2 1370.43 1228.2 1220.52"/><polygon class="cls-6" points="1229.55 1199.23 1210.65 1210.28 1228.19 1220.52 1247.15 1209.44 1229.55 1199.23"/><polygon class="cls-23" points="1247.15 1209.44 1228.19 1220.52 1228.2 1370.43 1247.15 1359.42 1247.15 1209.44"/><polygon class="cls-25" points="862.53 701.11 616.42 843.2 1228.19 1199.34 1475.21 1054.75 862.53 701.11"/><polygon class="cls-23" points="1228.19 1199.34 1475.21 1054.75 1475.21 1076.74 1228.19 1221.33 1228.19 1199.34"/><polygon class="cls-22" points="1228.19 1199.34 616.42 843.2 616.42 865.19 1228.19 1221.33 1228.19 1199.34"/><path class="cls-21" d="M613.65,1267.54c0,25.16,50.34,45.56,112.45,45.56s112.45-20.4,112.45-45.56S788.21,1222,726.1,1222,613.65,1242.38,613.65,1267.54Z"/><path class="cls-26" d="M778.16,1245.58a37.5,37.5,0,0,0-9.62,4.37c-6.74,4.31-10.95,0-10.95,0l-23.5,1.44c-2.78,3.35-1.77,28.93-1.77,28.93,6,2.94,14,2.81,20.46,2.22,15.09-1.39,28.79-9,40.13-19.09a22.5,22.5,0,0,0,2.19-2.29C793.37,1243.18,781.15,1244.89,778.16,1245.58Z"/><path class="cls-27" d="M794.35,1257.61c-11.9,10.61-26.27,18.58-42.1,20-6.3.58-13.94.7-20-1.74,0,2.65.12,4.42.12,4.42,6,2.94,14,2.81,20.46,2.22,15.09-1.39,28.79-9,40.13-19.09a22.5,22.5,0,0,0,2.19-2.29,33.11,33.11,0,0,0-.58-3.72Z"/><path class="cls-26" d="M716.71,1236.72a37.5,37.5,0,0,0-9.62,4.37c-6.74,4.31-11,0-11,0l-23.5,1.43c-2.78,3.36-1.77,28.94-1.77,28.94,6,2.94,14,2.81,20.46,2.22,15.09-1.39,28.79-9,40.13-19.09a22.5,22.5,0,0,0,2.19-2.29C731.92,1234.32,719.7,1236,716.71,1236.72Z"/><path class="cls-27" d="M732.9,1248.75c-11.9,10.61-26.27,18.57-42.1,20-6.3.58-13.94.7-20-1.74,0,2.65.12,4.42.12,4.42,6,2.94,14,2.81,20.46,2.22,15.09-1.39,28.79-9,40.13-19.09a22.5,22.5,0,0,0,2.19-2.29,33.11,33.11,0,0,0-.58-3.72Z"/><path class="cls-28" d="M669.2,833.75s-39.1,14.42,3.55,68.63Z"/><path class="cls-29" d="M670.82,985s1,29.82,2,55.57l-6.7,200.94s12.23,5.67,37.51,3.64c3.94-.31,6.83-7.07,7.08-11L721,978.67Z"/><path class="cls-29" d="M715.78,979.14s-7.08,22.68.42,53.13l10.66,221.36s20.52,8.55,45.65,0l-7.8-256.75Z"/><path class="cls-28" d="M759,839.49s14,9.82,23.43,29.19,11.09,50.38,7.59,51.74-25.78,10.77-36.18-.49S759,839.49,759,839.49Z"/><path class="cls-28" d="M770.42,1006.51c.11-6.49-6-70.27-6-70.27-1-43.56-5.39-96.75-5.39-96.75l-34.15-8.23-34.34-3.84-14.71,4c-6.41.65-11.5,5.14-12.38,10.92a138.31,138.31,0,0,0-1.59,24.8c.25,9,3.43,18,4.76,26.87,5.17,34.58-.63,76.68-3.28,111.17,0,0-.2,2.64,3.44,5.13,28,21.19,98.88,7.67,98.88,7.67C772.09,1017.12,770.33,1011.59,770.42,1006.51Z"/><path class="cls-30" d="M689.88,814.14a28.73,28.73,0,0,0,3.57,3.19c7.44,5.49,18.6,7.48,27.45,9.59a40.31,40.31,0,0,0,4.07,1l-.08,3.32c-9.12,3.12-17.65,5.93-24.15,4.3-4.84-1.23-9.94-3.18-10.21-8.56l-.67-12.87Z"/><path class="cls-28" d="M759,839.49s-16.36,24-10.27,35.86,19.8,39.52,19.8,39.52l10.16-23.63Z"/><path class="cls-31" d="M684.73,759.88a35.65,35.65,0,0,1,48.11,8.49c10.45,13.85,13.83,34.7,7.69,51.06-3.54,9.44-19.48,9.38-27.66,9.07-11.36-.45-23.4-3.85-31-12.84-8.35-9.89-12.38-24.47-9.94-37.21A28.39,28.39,0,0,1,684.73,759.88Z"/><path class="cls-32" d="M702.48,754.12a35.47,35.47,0,0,0-17.75,5.76A28.39,28.39,0,0,0,672,778.45c-2.44,12.74,1.59,27.32,9.94,37.21,7.58,9,19.62,12.39,31,12.84A74.35,74.35,0,0,0,726.3,828l.47-12.12c-4,.67-7.27-3.78-8.95-9.27s.91-7.82,3.39-8.39,5,10.77,5,10.77l3.5-1.8a133.33,133.33,0,0,1-2.48-18.83s9.5-.47,16.35-10.28C743.58,778,738.48,750.73,702.48,754.12Z"/><path class="cls-31" d="M1317.67,1030.36a85.81,85.81,0,0,1-8.88-6.33s-.88-13.22-8.74-21.16c0,0-4.56-1.47-2,3.18a87.67,87.67,0,0,1,3,8.58s0,.81-.78.28h0c-1.84-3.16-6-8.6-14.29-12.9,0,0-5.48-2.48-10.15,4.3-3.32,4.82-1.66,9.48,2.2,11.67a32.16,32.16,0,0,1,8.81,6.84c3.08,3.14,5.51,9.33,10.1,10.84,3.47,3.13,6.94,6,10.4,8.57Z"/><path class="cls-33" d="M1508,1049.68c-3.71-38.06-32.85-46.9-32.85-46.9l8.32-33.1s44.43,19,48.08,79.88c3.6,60-44.29,64.69-44.29,64.69l-2.9-21S1511.08,1081,1508,1049.68Z"/><path class="cls-34" d="M1378.31,1386.67a41,41,0,0,1,10.42,4.73c7.3,4.67,11.86,0,11.86,0l25.47,1.56c3,3.63,1.92,31.35,1.92,31.35-6.52,3.18-15.16,3-22.18,2.4-16.35-1.5-31.19-9.72-43.48-20.68a22.26,22.26,0,0,1-2.37-2.49C1361.82,1384.07,1375.06,1385.91,1378.31,1386.67Z"/><path class="cls-35" d="M1360.76,1399.71c12.9,11.49,28.46,20.12,45.62,21.7,6.83.62,15.1.76,21.73-1.89-.06,2.87-.13,4.79-.13,4.79-6.52,3.18-15.16,3-22.18,2.4-16.35-1.5-31.19-9.72-43.48-20.68a22.26,22.26,0,0,1-2.37-2.49,33.63,33.63,0,0,1,.63-4C1360.64,1399.58,1360.69,1399.65,1360.76,1399.71Z"/><path class="cls-34" d="M1445.64,1376.43a40.71,40.71,0,0,1,10.42,4.74c7.3,4.66,11.86,0,11.86,0l25.47,1.55c3,3.63,1.92,31.36,1.92,31.36-6.52,3.18-15.16,3-22.18,2.4-16.35-1.51-31.19-9.73-43.48-20.69a24.19,24.19,0,0,1-2.38-2.48C1429.15,1373.83,1442.39,1375.68,1445.64,1376.43Z"/><path class="cls-35" d="M1428.09,1389.47c12.9,11.5,28.46,20.13,45.62,21.7,6.83.63,15.1.76,21.73-1.88-.06,2.87-.13,4.79-.13,4.79-6.52,3.18-15.16,3-22.18,2.4-16.35-1.51-31.19-9.73-43.48-20.69a23.06,23.06,0,0,1-2.37-2.48,33.81,33.81,0,0,1,.63-4C1428,1389.34,1428,1389.41,1428.09,1389.47Z"/><polygon class="cls-36" points="1465.13 958.39 1461.43 959.46 1462.54 964.28 1465.13 958.39"/><path class="cls-35" d="M1491.33,1114.25s-1.89,40.15-3,66.1l12.1,199.28a3.24,3.24,0,0,1-1.56,2.88c-4.6,2.93-18.83,8.17-42.08,5.46a4.26,4.26,0,0,1-3.86-3.9l-11.55-267.67Z"/><path class="cls-35" d="M1396,1129.33l51.28-17.88s1.41,24.55-6.44,55.22l-8.35,227a3.78,3.78,0,0,1-2.76,3.24,77.29,77.29,0,0,1-43-.14,3,3,0,0,1-2.2-2.92Z"/><path class="cls-34" d="M1393.71,1130.79c.13-.81.25-1.59.36-2.33,1.39-9.6,2-19.4,2.53-29.09,1.07-19.24-.36-38.22-.31-57.42,0-18.29,1.18-36.67,1.18-55a9.8,9.8,0,0,1,.07-1.82l27.08-11.08,40.51-8.57,14.9,3.41c6.44.38,11.76,4.68,12.94,10.46,2.12,10.39,4.47,27.12,1.39,40.8-2,9-1.87,27.79-3.77,44-.18,1.69,3.46,46.65,4.85,59.72,0,0,.34,2.65-3.18,5.31-10.17,8.52-24.09,11.8-36.93,13.51-18.56,2.48-37.76,1.84-56.32-.35C1392.47,1141.62,1393,1135.76,1393.71,1130.79Z"/><path class="cls-30" d="M1462.38,952.53c-1.27,1.24.12,2-1.31,2.94-8.49,5.85-21.41,8-31.77,10.51-1.65.4-3.45.75-5.28,1l.6,7.05a60,60,0,0,0,28.92,0c5.67-1.43,10.3-3.19,10.3-8.62l-.61-13.4Z"/><path class="cls-33" d="M1465.13,958.39l3.71,7.94s-18.38,21-49.54,9.92l4.7-4.75S1452.59,975.32,1465.13,958.39Z"/><path class="cls-31" d="M1460.42,892.91c-19.29-7.68-41.42-.33-51,16.53-8.87,15.54-8.72,36.88,1,52.15,5.61,8.8,23,6.07,31.91,4.38,12.34-2.35,24.89-7.76,31.52-18,7.3-11.25,9-26.45,4-38.73C1474.64,901.46,1468.19,896,1460.42,892.91Z"/><path class="cls-37" d="M1440,890.15a42.87,42.87,0,0,1,20.47,2.76c7.77,3.09,14.22,8.55,17.41,16.35,5,12.28,3.28,27.48-4,38.73-6.63,10.22-19.18,15.63-31.52,18a90.19,90.19,0,0,1-14.78,1.71l-2.74-12c4.48,0,7.25-5,8.08-10.74s-2.44-7.63-5.26-7.79-3.49,11.57-3.49,11.57l-4.15-1.21c.59-8.09-.76-19.16-.76-19.16a27.12,27.12,0,0,1-19.77-7.5S1400,892.81,1440,890.15Z"/><path class="cls-37" d="M1406,956.72c-1.55-3.77-.56-5.59-.56-5.59,6.09,0,9.73,8.28,9.73,8.28,4.21-2,4.8-12.73,4.8-12.73l4.1,2.05.67,7,2.74,3.34v8.65a99.61,99.61,0,0,1-9.67,8.46,3.4,3.4,0,0,1-4.37-.15c-4.76-4.73-2.94-14.18-2.94-14.18a3.81,3.81,0,0,0,2-.48C1411.59,957,1406,956.72,1406,956.72Z"/><path class="cls-33" d="M1412,999.53c-6.65-15.89-14.39-14.43-14.39-14.43s-17.36,54.55-30.13,54.82c0,0-30,1.66-54.11-18.13v0a4.59,4.59,0,0,0-5.68,1.53l-10.51,15.95a2,2,0,0,0,.67,2.1c6.45,5.3,35.89,28,67.55,28.83a31.36,31.36,0,0,0,7.13-.71c24.7-5.26,35-30.19,39.47-50.46C1414.5,1006.39,1412,999.53,1412,999.53Z"/><path class="cls-38" d="M917.46,830v14.41c0,15.94-23.26,28.87-52,28.87s-52-12.93-52-28.87V830Z"/><path class="cls-39" d="M830.35,851.25v14.41a67.93,67.93,0,0,0,16.85,5.77V857A67.53,67.53,0,0,1,830.35,851.25Z"/><path class="cls-39" d="M856.85,850.83H855.7a1.73,1.73,0,0,0-1.54,1.86v19.92q2.08.25,4.23.42V852.69A1.73,1.73,0,0,0,856.85,850.83Z"/><path class="cls-39" d="M867.6,850.83h-1.15a1.73,1.73,0,0,0-1.54,1.86V873.3h.59c1.22,0,2.44,0,3.64-.08V852.69A1.73,1.73,0,0,0,867.6,850.83Z"/><path class="cls-39" d="M878.35,850.83H877.2a1.73,1.73,0,0,0-1.54,1.86v20.06c1.44-.16,2.84-.35,4.23-.57V852.69A1.73,1.73,0,0,0,878.35,850.83Z"/><path class="cls-39" d="M889.1,850.83H888a1.73,1.73,0,0,0-1.54,1.86v18.18c1.44-.36,2.85-.74,4.22-1.17v-17A1.73,1.73,0,0,0,889.1,850.83Z"/><path class="cls-39" d="M899.85,847.38h-1.14a1.73,1.73,0,0,0-1.54,1.86v18.08c1.47-.63,2.88-1.31,4.23-2V849.24A1.74,1.74,0,0,0,899.85,847.38Z"/><path class="cls-39" d="M910.61,837.71h-1.15a1.73,1.73,0,0,0-1.54,1.86V861.1a32.12,32.12,0,0,0,4.23-3.94V839.57A1.73,1.73,0,0,0,910.61,837.71Z"/><path class="cls-39" d="M916.55,849.79a16.56,16.56,0,0,0,.91-5.35V830h-.91Z"/><path class="cls-39" d="M823,836.86h-1.15a1.73,1.73,0,0,0-1.54,1.87v19.92a35.56,35.56,0,0,0,4.23,3.52V838.73A1.73,1.73,0,0,0,823,836.86Z"/><path class="cls-39" d="M813.54,844.44a16.84,16.84,0,0,0,1.19,6.13V830.2a1,1,0,0,0,0-.17h-1.17Z"/><path class="cls-40" d="M813.54,830c0,16,23.26,28.88,52,28.88s52-12.93,52-28.88-23.26-28.87-52-28.87S813.54,814.09,813.54,830Z"/><path class="cls-38" d="M826.93,830c0,11.84,17.27,21.44,38.57,21.44s38.57-9.6,38.57-21.44S886.8,808.6,865.5,808.6,826.93,818.2,826.93,830Z"/><path class="cls-39" d="M865.5,812.23c20.2,0,36.77,8.63,38.42,19.62a12.19,12.19,0,0,0,.15-1.82c0-11.83-17.27-21.43-38.57-21.43s-38.57,9.6-38.57,21.43a12.19,12.19,0,0,0,.15,1.82C828.73,820.86,845.3,812.23,865.5,812.23Z"/><path class="cls-39" d="M886.81,823.21l-2.95,1.71a23.4,23.4,0,0,1,6.67,6.33l-8.83,2.11a18.58,18.58,0,0,0-6.23-6,8.86,8.86,0,0,0-2.9-1.18,3,3,0,0,0-2,.32c-.48.28-.7.61-.67,1a4.1,4.1,0,0,0,.74,1.64,28.41,28.41,0,0,0,2.2,2.82q3,3.6,2.91,5.95t-3.32,4.24a16.09,16.09,0,0,1-8.3,2.11A23.6,23.6,0,0,1,854.5,842l-4.21,2.45-4.54-2.63,4.08-2.37a24,24,0,0,1-7.13-6.59l7.24-4.21a22.6,22.6,0,0,0,3.39,4.44,19.67,19.67,0,0,0,4.39,3.53,10.35,10.35,0,0,0,3.18,1.32,3.38,3.38,0,0,0,2.36-.36,1,1,0,0,0,.6-1.08,5.73,5.73,0,0,0-1-1.86c-.56-.81-1.36-1.86-2.42-3.17a11,11,0,0,1-2.2-3.93,4,4,0,0,1,.37-3.11,8.47,8.47,0,0,1,3.15-2.73,14.44,14.44,0,0,1,8-1.93,24.69,24.69,0,0,1,9.49,2.57l3-1.74Z"/><path class="cls-38" d="M917.46,812.53v14.4c0,16-23.26,28.88-52,28.88s-52-12.93-52-28.88v-14.4Z"/><path class="cls-39" d="M830.35,833.75v14.41a67.93,67.93,0,0,0,16.85,5.77v-14.4A67.53,67.53,0,0,1,830.35,833.75Z"/><path class="cls-39" d="M856.85,833.33H855.7a1.73,1.73,0,0,0-1.54,1.86v19.92q2.08.25,4.23.42V835.19A1.73,1.73,0,0,0,856.85,833.33Z"/><path class="cls-39" d="M867.6,833.33h-1.15a1.73,1.73,0,0,0-1.54,1.86V855.8h.59c1.22,0,2.44,0,3.64-.08V835.19A1.73,1.73,0,0,0,867.6,833.33Z"/><path class="cls-39" d="M878.35,833.33H877.2a1.73,1.73,0,0,0-1.54,1.86v20.06c1.44-.16,2.84-.35,4.23-.57V835.19A1.73,1.73,0,0,0,878.35,833.33Z"/><path class="cls-39" d="M889.1,833.33H888a1.73,1.73,0,0,0-1.54,1.86v18.18c1.44-.36,2.85-.74,4.22-1.17v-17A1.73,1.73,0,0,0,889.1,833.33Z"/><path class="cls-39" d="M899.85,829.88h-1.14a1.73,1.73,0,0,0-1.54,1.86v18.08c1.47-.63,2.88-1.31,4.23-2V831.74A1.74,1.74,0,0,0,899.85,829.88Z"/><path class="cls-39" d="M910.61,820.2h-1.15a1.73,1.73,0,0,0-1.54,1.87V843.6a32.12,32.12,0,0,0,4.23-3.94V822.07A1.74,1.74,0,0,0,910.61,820.2Z"/><path class="cls-39" d="M916.55,832.29a16.62,16.62,0,0,0,.91-5.36v-14.4h-.91Z"/><path class="cls-39" d="M823,819.36h-1.15a1.73,1.73,0,0,0-1.54,1.87v19.92a35.56,35.56,0,0,0,4.23,3.52V821.23A1.73,1.73,0,0,0,823,819.36Z"/><path class="cls-39" d="M813.54,826.93a16.85,16.85,0,0,0,1.19,6.14V812.7a1,1,0,0,0,0-.17h-1.17Z"/><path class="cls-40" d="M813.54,812.53c0,16,23.26,28.88,52,28.88s52-12.93,52-28.88-23.26-28.87-52-28.87S813.54,796.59,813.54,812.53Z"/><path class="cls-38" d="M826.93,812.53c0,11.84,17.27,21.44,38.57,21.44s38.57-9.6,38.57-21.44S886.8,791.1,865.5,791.1,826.93,800.7,826.93,812.53Z"/><path class="cls-39" d="M865.5,794.73c20.2,0,36.77,8.63,38.42,19.62a12.3,12.3,0,0,0,.15-1.82c0-11.83-17.27-21.43-38.57-21.43s-38.57,9.6-38.57,21.43a12.3,12.3,0,0,0,.15,1.82C828.73,803.36,845.3,794.73,865.5,794.73Z"/><path class="cls-39" d="M886.81,805.71l-2.95,1.71a23.4,23.4,0,0,1,6.67,6.33l-8.83,2.11a18.58,18.58,0,0,0-6.23-6,8.86,8.86,0,0,0-2.9-1.18,3,3,0,0,0-2,.32c-.48.28-.7.61-.67,1a4.1,4.1,0,0,0,.74,1.64,28.41,28.41,0,0,0,2.2,2.82q3,3.6,2.91,5.95c0,1.56-1.15,3-3.32,4.24a16.09,16.09,0,0,1-8.3,2.11,23.6,23.6,0,0,1-9.66-2.29l-4.21,2.45-4.54-2.63,4.08-2.37a24,24,0,0,1-7.13-6.59l7.24-4.21a22.6,22.6,0,0,0,3.39,4.44,19.67,19.67,0,0,0,4.39,3.53,10.35,10.35,0,0,0,3.18,1.32,3.33,3.33,0,0,0,2.36-.37,1,1,0,0,0,.6-1.07,5.73,5.73,0,0,0-1-1.86c-.56-.81-1.36-1.86-2.42-3.17a11,11,0,0,1-2.2-3.93,4,4,0,0,1,.37-3.11,8.57,8.57,0,0,1,3.15-2.74,14.51,14.51,0,0,1,8-1.92,24.69,24.69,0,0,1,9.49,2.57l3-1.74Z"/><path class="cls-38" d="M917.46,795v14.4c0,16-23.26,28.88-52,28.88s-52-12.93-52-28.88V795Z"/><path class="cls-39" d="M830.35,816.25v14.4a67.53,67.53,0,0,0,16.85,5.78V822A67.53,67.53,0,0,1,830.35,816.25Z"/><path class="cls-39" d="M856.85,815.82H855.7a1.73,1.73,0,0,0-1.54,1.87v19.92q2.08.25,4.23.42V817.69A1.74,1.74,0,0,0,856.85,815.82Z"/><path class="cls-39" d="M867.6,815.82h-1.15a1.73,1.73,0,0,0-1.54,1.87V838.3h.59c1.22,0,2.44,0,3.64-.08V817.69A1.73,1.73,0,0,0,867.6,815.82Z"/><path class="cls-39" d="M878.35,815.82H877.2a1.74,1.74,0,0,0-1.54,1.87v20.06c1.44-.16,2.84-.35,4.23-.57V817.69A1.73,1.73,0,0,0,878.35,815.82Z"/><path class="cls-39" d="M889.1,815.82H888a1.73,1.73,0,0,0-1.54,1.87v18.17c1.44-.35,2.85-.74,4.22-1.16v-17A1.73,1.73,0,0,0,889.1,815.82Z"/><path class="cls-39" d="M899.85,812.38h-1.14a1.72,1.72,0,0,0-1.54,1.86v18.08c1.47-.63,2.88-1.31,4.23-2V814.24A1.73,1.73,0,0,0,899.85,812.38Z"/><path class="cls-39" d="M910.61,802.7h-1.15a1.73,1.73,0,0,0-1.54,1.87V826.1a32.17,32.17,0,0,0,4.23-4V804.57A1.74,1.74,0,0,0,910.61,802.7Z"/><path class="cls-39" d="M916.55,814.79a16.62,16.62,0,0,0,.91-5.36V795h-.91Z"/><path class="cls-39" d="M823,801.86h-1.15a1.73,1.73,0,0,0-1.54,1.86v19.93a35.56,35.56,0,0,0,4.23,3.52V803.72A1.73,1.73,0,0,0,823,801.86Z"/><path class="cls-39" d="M813.54,809.43a16.85,16.85,0,0,0,1.19,6.14V795.2a1,1,0,0,0,0-.17h-1.17Z"/><path class="cls-40" d="M813.54,795c0,16,23.26,28.88,52,28.88s52-12.93,52-28.88-23.26-28.87-52-28.87S813.54,779.09,813.54,795Z"/><path class="cls-38" d="M826.93,795c0,11.84,17.27,21.44,38.57,21.44s38.57-9.6,38.57-21.44S886.8,773.6,865.5,773.6,826.93,783.2,826.93,795Z"/><path class="cls-39" d="M865.5,777.23c20.2,0,36.77,8.63,38.42,19.62a12.3,12.3,0,0,0,.15-1.82c0-11.83-17.27-21.43-38.57-21.43s-38.57,9.6-38.57,21.43a12.3,12.3,0,0,0,.15,1.82C828.73,785.86,845.3,777.23,865.5,777.23Z"/><path class="cls-39" d="M886.81,788.21l-2.95,1.71a23.4,23.4,0,0,1,6.67,6.33l-8.83,2.11a18.58,18.58,0,0,0-6.23-6,8.64,8.64,0,0,0-2.9-1.18,3,3,0,0,0-2,.32c-.48.28-.7.61-.67,1a4.1,4.1,0,0,0,.74,1.64,29.64,29.64,0,0,0,2.2,2.82q3,3.6,2.91,5.94t-3.32,4.25a16.09,16.09,0,0,1-8.3,2.11A23.76,23.76,0,0,1,854.5,807l-4.21,2.45-4.54-2.63,4.08-2.37a24.14,24.14,0,0,1-7.13-6.59l7.24-4.22a22.65,22.65,0,0,0,3.39,4.45,20,20,0,0,0,4.39,3.53,10.35,10.35,0,0,0,3.18,1.32,3.33,3.33,0,0,0,2.36-.37,1,1,0,0,0,.6-1.07,5.73,5.73,0,0,0-1-1.86c-.56-.81-1.36-1.86-2.42-3.17a11,11,0,0,1-2.2-3.94,4,4,0,0,1,.37-3.1,8.57,8.57,0,0,1,3.15-2.74,14.61,14.61,0,0,1,8-1.93,24.72,24.72,0,0,1,9.49,2.58l3-1.74Z"/><path class="cls-38" d="M993.37,874v14.4c0,16-23.27,28.88-52,28.88s-52-12.93-52-28.88V874Z"/><path class="cls-39" d="M906.26,895.2v14.4a67.25,67.25,0,0,0,16.85,5.78V901A67.25,67.25,0,0,1,906.26,895.2Z"/><path class="cls-39" d="M932.75,894.77h-1.14a1.73,1.73,0,0,0-1.54,1.87v19.92c1.39.17,2.8.31,4.22.42V896.64A1.73,1.73,0,0,0,932.75,894.77Z"/><path class="cls-39" d="M943.5,894.77h-1.14a1.73,1.73,0,0,0-1.54,1.87v20.61h.59c1.22,0,2.43,0,3.64-.08V896.64A1.74,1.74,0,0,0,943.5,894.77Z"/><path class="cls-39" d="M954.26,894.77h-1.15a1.73,1.73,0,0,0-1.54,1.87V916.7c1.43-.16,2.84-.35,4.23-.58V896.64A1.74,1.74,0,0,0,954.26,894.77Z"/><path class="cls-39" d="M965,894.77h-1.15a1.74,1.74,0,0,0-1.54,1.87v18.17c1.45-.35,2.86-.74,4.23-1.16v-17A1.73,1.73,0,0,0,965,894.77Z"/><path class="cls-39" d="M975.76,891.32h-1.14a1.73,1.73,0,0,0-1.54,1.87v18.08c1.47-.63,2.88-1.31,4.22-2V893.19A1.73,1.73,0,0,0,975.76,891.32Z"/><path class="cls-39" d="M986.51,881.65h-1.14a1.73,1.73,0,0,0-1.54,1.87v21.53a33.49,33.49,0,0,0,4.23-3.95V883.52A1.74,1.74,0,0,0,986.51,881.65Z"/><path class="cls-39" d="M992.46,893.74a16.62,16.62,0,0,0,.91-5.36V874h-.91Z"/><path class="cls-39" d="M898.88,880.81h-1.15a1.73,1.73,0,0,0-1.54,1.86V902.6a34.78,34.78,0,0,0,4.23,3.52V882.67A1.73,1.73,0,0,0,898.88,880.81Z"/><path class="cls-39" d="M889.45,888.38a16.75,16.75,0,0,0,1.18,6.13V874.14s0-.1,0-.16h-1.17Z"/><path class="cls-40" d="M889.45,874c0,15.95,23.26,28.87,52,28.87s52-12.92,52-28.87-23.27-28.87-52-28.87S889.45,858,889.45,874Z"/><path class="cls-38" d="M902.84,874c0,11.84,17.26,21.44,38.57,21.44S980,885.82,980,874s-17.27-21.43-38.57-21.43S902.84,862.15,902.84,874Z"/><path class="cls-39" d="M941.41,856.17c20.2,0,36.76,8.64,38.42,19.62A12.05,12.05,0,0,0,980,874c0-11.83-17.27-21.43-38.57-21.43s-38.57,9.6-38.57,21.43a12.05,12.05,0,0,0,.14,1.81C904.64,864.81,921.2,856.17,941.41,856.17Z"/><path class="cls-39" d="M962.72,867.16l-3,1.71a23.54,23.54,0,0,1,6.67,6.33l-8.83,2.1a18.67,18.67,0,0,0-6.24-6,8.61,8.61,0,0,0-2.89-1.18,3,3,0,0,0-2,.32c-.48.28-.71.61-.67,1a4.1,4.1,0,0,0,.74,1.64,28.84,28.84,0,0,0,2.19,2.82c2,2.39,3,4.38,2.92,5.94s-1.15,3-3.32,4.25a16.09,16.09,0,0,1-8.3,2.11,23.76,23.76,0,0,1-9.66-2.29l-4.21,2.45-4.55-2.63,4.08-2.37a24.27,24.27,0,0,1-7.13-6.59l7.25-4.22a22.65,22.65,0,0,0,3.39,4.45,19.91,19.91,0,0,0,4.38,3.53,10.49,10.49,0,0,0,3.19,1.32,3.34,3.34,0,0,0,2.36-.37,1,1,0,0,0,.6-1.07,5.72,5.72,0,0,0-1-1.86c-.55-.81-1.35-1.87-2.41-3.17a10.82,10.82,0,0,1-2.2-3.94,4,4,0,0,1,.36-3.1,8.7,8.7,0,0,1,3.16-2.74,14.49,14.49,0,0,1,8-1.93,24.77,24.77,0,0,1,9.5,2.58l3-1.74Z"/><path class="cls-38" d="M993.37,856.48v14.4c0,16-23.27,28.87-52,28.87s-52-12.92-52-28.87v-14.4Z"/><path class="cls-39" d="M906.26,877.7v14.4a67.25,67.25,0,0,0,16.85,5.78v-14.4A67.25,67.25,0,0,1,906.26,877.7Z"/><path class="cls-39" d="M932.75,877.27h-1.14a1.73,1.73,0,0,0-1.54,1.87v19.92c1.39.17,2.8.31,4.22.42V879.14A1.73,1.73,0,0,0,932.75,877.27Z"/><path class="cls-39" d="M943.5,877.27h-1.14a1.73,1.73,0,0,0-1.54,1.87v20.61h.59c1.22,0,2.43,0,3.64-.07V879.14A1.74,1.74,0,0,0,943.5,877.27Z"/><path class="cls-39" d="M954.26,877.27h-1.15a1.73,1.73,0,0,0-1.54,1.87V899.2c1.43-.16,2.84-.35,4.23-.58V879.14A1.74,1.74,0,0,0,954.26,877.27Z"/><path class="cls-39" d="M965,877.27h-1.15a1.74,1.74,0,0,0-1.54,1.87v18.17c1.45-.35,2.86-.74,4.23-1.16v-17A1.73,1.73,0,0,0,965,877.27Z"/><path class="cls-39" d="M975.76,873.82h-1.14a1.73,1.73,0,0,0-1.54,1.87v18.08q2.2-1,4.22-2V875.69A1.73,1.73,0,0,0,975.76,873.82Z"/><path class="cls-39" d="M986.51,864.15h-1.14a1.73,1.73,0,0,0-1.54,1.87v21.52a32.72,32.72,0,0,0,4.23-3.94V866A1.74,1.74,0,0,0,986.51,864.15Z"/><path class="cls-39" d="M992.46,876.23a16.52,16.52,0,0,0,.91-5.35v-14.4h-.91Z"/><path class="cls-39" d="M898.88,863.31h-1.15a1.73,1.73,0,0,0-1.54,1.86V885.1a34.73,34.73,0,0,0,4.23,3.51V865.17A1.73,1.73,0,0,0,898.88,863.31Z"/><path class="cls-39" d="M889.45,870.88a16.75,16.75,0,0,0,1.18,6.13V856.64s0-.1,0-.16h-1.17Z"/><path class="cls-40" d="M889.45,856.48c0,15.95,23.26,28.87,52,28.87s52-12.92,52-28.87-23.27-28.87-52-28.87S889.45,840.54,889.45,856.48Z"/><path class="cls-38" d="M902.84,856.48c0,11.84,17.26,21.43,38.57,21.43S980,868.32,980,856.48s-17.27-21.43-38.57-21.43S902.84,844.65,902.84,856.48Z"/><path class="cls-39" d="M941.41,838.67c20.2,0,36.76,8.64,38.42,19.62a12.05,12.05,0,0,0,.15-1.81c0-11.83-17.27-21.43-38.57-21.43s-38.57,9.6-38.57,21.43a12.05,12.05,0,0,0,.14,1.81C904.64,847.31,921.2,838.67,941.41,838.67Z"/><path class="cls-39" d="M962.72,849.66l-3,1.71a23.26,23.26,0,0,1,6.67,6.33l-8.83,2.1a18.67,18.67,0,0,0-6.24-6,8.61,8.61,0,0,0-2.89-1.18,3,3,0,0,0-2,.32c-.48.28-.71.61-.67,1a4.16,4.16,0,0,0,.74,1.64,28.84,28.84,0,0,0,2.19,2.82q3,3.58,2.92,5.94c-.05,1.57-1.15,3-3.32,4.25a16.09,16.09,0,0,1-8.3,2.11,23.76,23.76,0,0,1-9.66-2.29l-4.21,2.45-4.55-2.63,4.08-2.37a24.16,24.16,0,0,1-7.13-6.6l7.25-4.21a22.94,22.94,0,0,0,3.39,4.45,19.91,19.91,0,0,0,4.38,3.53,10.49,10.49,0,0,0,3.19,1.32,3.34,3.34,0,0,0,2.36-.37,1,1,0,0,0,.6-1.07,5.62,5.62,0,0,0-1-1.86c-.55-.81-1.35-1.87-2.41-3.17a10.82,10.82,0,0,1-2.2-3.94,4,4,0,0,1,.36-3.1,8.6,8.6,0,0,1,3.16-2.74,14.49,14.49,0,0,1,8-1.93,24.77,24.77,0,0,1,9.5,2.58l3-1.74Z"/><path class="cls-38" d="M993.37,839v14.4c0,16-23.27,28.87-52,28.87s-52-12.92-52-28.87V839Z"/><path class="cls-39" d="M906.26,860.2v14.4a67.25,67.25,0,0,0,16.85,5.78V866A67.25,67.25,0,0,1,906.26,860.2Z"/><path class="cls-39" d="M932.75,859.77h-1.14a1.73,1.73,0,0,0-1.54,1.87v19.92c1.39.17,2.8.31,4.22.42V861.64A1.73,1.73,0,0,0,932.75,859.77Z"/><path class="cls-39" d="M943.5,859.77h-1.14a1.73,1.73,0,0,0-1.54,1.87v20.61h.59c1.22,0,2.43,0,3.64-.07V861.64A1.74,1.74,0,0,0,943.5,859.77Z"/><path class="cls-39" d="M954.26,859.77h-1.15a1.73,1.73,0,0,0-1.54,1.87V881.7c1.43-.16,2.84-.36,4.23-.58V861.64A1.74,1.74,0,0,0,954.26,859.77Z"/><path class="cls-39" d="M965,859.77h-1.15a1.74,1.74,0,0,0-1.54,1.87v18.17c1.45-.35,2.86-.74,4.23-1.16v-17A1.73,1.73,0,0,0,965,859.77Z"/><path class="cls-39" d="M975.76,856.32h-1.14a1.73,1.73,0,0,0-1.54,1.87v18.07q2.2-.94,4.22-2v-16A1.73,1.73,0,0,0,975.76,856.32Z"/><path class="cls-39" d="M986.51,846.65h-1.14a1.73,1.73,0,0,0-1.54,1.87V870a32.72,32.72,0,0,0,4.23-3.94V848.52A1.74,1.74,0,0,0,986.51,846.65Z"/><path class="cls-39" d="M992.46,858.73a16.52,16.52,0,0,0,.91-5.35V839h-.91Z"/><path class="cls-39" d="M898.88,845.81h-1.15a1.73,1.73,0,0,0-1.54,1.86V867.6a34.73,34.73,0,0,0,4.23,3.51V847.67A1.73,1.73,0,0,0,898.88,845.81Z"/><path class="cls-39" d="M889.45,853.38a16.75,16.75,0,0,0,1.18,6.13V839.14s0-.11,0-.16h-1.17Z"/><path class="cls-40" d="M889.45,839c0,15.95,23.26,28.87,52,28.87s52-12.92,52-28.87-23.27-28.87-52-28.87S889.45,823,889.45,839Z"/><path class="cls-38" d="M902.84,839c0,11.84,17.26,21.43,38.57,21.43S980,850.82,980,839s-17.27-21.43-38.57-21.43S902.84,827.14,902.84,839Z"/><path class="cls-39" d="M941.41,821.17c20.2,0,36.76,8.64,38.42,19.62A12.16,12.16,0,0,0,980,839c0-11.84-17.27-21.43-38.57-21.43s-38.57,9.59-38.57,21.43a12.16,12.16,0,0,0,.14,1.81C904.64,829.81,921.2,821.17,941.41,821.17Z"/><path class="cls-39" d="M962.72,832.15l-3,1.72a23.26,23.26,0,0,1,6.67,6.33l-8.83,2.1a18.67,18.67,0,0,0-6.24-6,8.61,8.61,0,0,0-2.89-1.18,2.92,2.92,0,0,0-2,.32c-.48.28-.71.6-.67,1a4.12,4.12,0,0,0,.74,1.65,28.84,28.84,0,0,0,2.19,2.82q3,3.58,2.92,5.94c-.05,1.57-1.15,3-3.32,4.25a16.09,16.09,0,0,1-8.3,2.11,23.93,23.93,0,0,1-9.66-2.29l-4.21,2.45-4.55-2.63,4.08-2.37a24.16,24.16,0,0,1-7.13-6.6l7.25-4.21a22.94,22.94,0,0,0,3.39,4.45,19.91,19.91,0,0,0,4.38,3.53,10.49,10.49,0,0,0,3.19,1.32,3.34,3.34,0,0,0,2.36-.37,1,1,0,0,0,.6-1.07,5.74,5.74,0,0,0-1-1.87c-.55-.8-1.35-1.86-2.41-3.16a10.82,10.82,0,0,1-2.2-3.94,4,4,0,0,1,.36-3.1,8.6,8.6,0,0,1,3.16-2.74,14.49,14.49,0,0,1,8-1.93,24.77,24.77,0,0,1,9.5,2.58l3-1.74Z"/><path class="cls-38" d="M1069.27,917.93v14.4c0,15.95-23.26,28.87-52,28.87s-51.95-12.92-51.95-28.87v-14.4Z"/><path class="cls-39" d="M982.16,939.15v14.4A67.47,67.47,0,0,0,999,959.33V944.92A67.46,67.46,0,0,1,982.16,939.15Z"/><path class="cls-39" d="M1008.66,938.72h-1.15a1.74,1.74,0,0,0-1.54,1.87V960.5c1.39.18,2.8.32,4.23.43V940.59A1.73,1.73,0,0,0,1008.66,938.72Z"/><path class="cls-39" d="M1019.41,938.72h-1.14a1.73,1.73,0,0,0-1.54,1.87v20.6h.58c1.23,0,2.44,0,3.64-.08V940.59A1.73,1.73,0,0,0,1019.41,938.72Z"/><path class="cls-39" d="M1030.16,938.72H1029a1.73,1.73,0,0,0-1.54,1.87v20.06c1.43-.16,2.84-.36,4.23-.58V940.59A1.74,1.74,0,0,0,1030.16,938.72Z"/><path class="cls-39" d="M1040.92,938.72h-1.15a1.73,1.73,0,0,0-1.54,1.87v18.17c1.44-.35,2.86-.74,4.23-1.16v-17A1.74,1.74,0,0,0,1040.92,938.72Z"/><path class="cls-39" d="M1051.67,935.27h-1.15a1.74,1.74,0,0,0-1.54,1.87v18.07q2.22-.94,4.23-2V937.14A1.73,1.73,0,0,0,1051.67,935.27Z"/><path class="cls-39" d="M1062.42,925.6h-1.14a1.74,1.74,0,0,0-1.55,1.87V949a31.46,31.46,0,0,0,4.23-3.94V927.47A1.73,1.73,0,0,0,1062.42,925.6Z"/><path class="cls-39" d="M1068.37,937.68a16.78,16.78,0,0,0,.9-5.35v-14.4h-.9Z"/><path class="cls-39" d="M974.78,924.76h-1.14a1.72,1.72,0,0,0-1.54,1.86v19.93a35.39,35.39,0,0,0,4.22,3.51V926.62A1.72,1.72,0,0,0,974.78,924.76Z"/><path class="cls-39" d="M965.36,932.33a16.83,16.83,0,0,0,1.18,6.13V918.09c0-.05,0-.11,0-.16h-1.17Z"/><path class="cls-40" d="M965.36,917.93c0,15.94,23.26,28.87,51.95,28.87s52-12.93,52-28.87-23.26-28.87-52-28.87S965.36,902,965.36,917.93Z"/><path class="cls-38" d="M978.74,917.93c0,11.84,17.27,21.43,38.57,21.43s38.57-9.59,38.57-21.43-17.26-21.43-38.57-21.43S978.74,906.09,978.74,917.93Z"/><path class="cls-39" d="M1017.31,900.12c20.21,0,36.77,8.63,38.43,19.62a12.16,12.16,0,0,0,.14-1.81c0-11.84-17.26-21.43-38.57-21.43s-38.57,9.59-38.57,21.43a12.16,12.16,0,0,0,.15,1.81C980.55,908.75,997.11,900.12,1017.31,900.12Z"/><path class="cls-39" d="M1038.62,911.1l-2.94,1.72a23.26,23.26,0,0,1,6.67,6.33l-8.84,2.1a18.55,18.55,0,0,0-6.23-6,8.61,8.61,0,0,0-2.89-1.18,3,3,0,0,0-2,.31c-.48.28-.71.61-.68,1a4.09,4.09,0,0,0,.75,1.65,28.84,28.84,0,0,0,2.19,2.82c2,2.39,3,4.37,2.91,5.94s-1.14,3-3.31,4.24a16.13,16.13,0,0,1-8.3,2.12,23.85,23.85,0,0,1-9.66-2.29l-4.21,2.44-4.55-2.62,4.08-2.37a24.16,24.16,0,0,1-7.13-6.6l7.25-4.21a23.27,23.27,0,0,0,3.38,4.45,20,20,0,0,0,4.39,3.53,10.55,10.55,0,0,0,3.18,1.32,3.35,3.35,0,0,0,2.37-.37,1,1,0,0,0,.59-1.07,5.66,5.66,0,0,0-.95-1.87c-.55-.8-1.36-1.86-2.41-3.16a10.75,10.75,0,0,1-2.2-3.94,3.92,3.92,0,0,1,.36-3.1,8.52,8.52,0,0,1,3.16-2.74,14.38,14.38,0,0,1,8-1.93,24.77,24.77,0,0,1,9.5,2.58l3-1.74Z"/><path class="cls-38" d="M1069.27,900.43v14.4c0,15.95-23.26,28.87-52,28.87s-51.95-12.92-51.95-28.87v-14.4Z"/><path class="cls-39" d="M982.16,921.65v14.4A67.47,67.47,0,0,0,999,941.83V927.42A67.46,67.46,0,0,1,982.16,921.65Z"/><path class="cls-39" d="M1008.66,921.22h-1.15a1.74,1.74,0,0,0-1.54,1.87V943c1.39.18,2.8.32,4.23.43V923.09A1.73,1.73,0,0,0,1008.66,921.22Z"/><path class="cls-39" d="M1019.41,921.22h-1.14a1.73,1.73,0,0,0-1.54,1.87v20.6h.58c1.23,0,2.44,0,3.64-.08V923.09A1.73,1.73,0,0,0,1019.41,921.22Z"/><path class="cls-39" d="M1030.16,921.22H1029a1.73,1.73,0,0,0-1.54,1.87v20.06c1.43-.16,2.84-.36,4.23-.58V923.09A1.74,1.74,0,0,0,1030.16,921.22Z"/><path class="cls-39" d="M1040.92,921.22h-1.15a1.73,1.73,0,0,0-1.54,1.87v18.17c1.44-.35,2.86-.74,4.23-1.16v-17A1.74,1.74,0,0,0,1040.92,921.22Z"/><path class="cls-39" d="M1051.67,917.77h-1.15a1.74,1.74,0,0,0-1.54,1.87v18.07q2.22-.94,4.23-2V919.64A1.73,1.73,0,0,0,1051.67,917.77Z"/><path class="cls-39" d="M1062.42,908.1h-1.14a1.74,1.74,0,0,0-1.55,1.86v21.53a31.46,31.46,0,0,0,4.23-3.94V910A1.73,1.73,0,0,0,1062.42,908.1Z"/><path class="cls-39" d="M1068.37,920.18a16.78,16.78,0,0,0,.9-5.35v-14.4h-.9Z"/><path class="cls-39" d="M974.78,907.25h-1.14a1.73,1.73,0,0,0-1.54,1.87v19.93a35.39,35.39,0,0,0,4.22,3.51V909.12A1.73,1.73,0,0,0,974.78,907.25Z"/><path class="cls-39" d="M965.36,914.83a16.83,16.83,0,0,0,1.18,6.13V900.59c0-.05,0-.11,0-.16h-1.17Z"/><path class="cls-40" d="M965.36,900.43c0,15.94,23.26,28.87,51.95,28.87s52-12.93,52-28.87-23.26-28.87-52-28.87S965.36,884.48,965.36,900.43Z"/><path class="cls-38" d="M978.74,900.43c0,11.83,17.27,21.43,38.57,21.43s38.57-9.6,38.57-21.43S1038.62,879,1017.31,879,978.74,888.59,978.74,900.43Z"/><path class="cls-39" d="M1017.31,882.62c20.21,0,36.77,8.63,38.43,19.62a12.16,12.16,0,0,0,.14-1.81c0-11.84-17.26-21.43-38.57-21.43s-38.57,9.59-38.57,21.43a12.16,12.16,0,0,0,.15,1.81C980.55,891.25,997.11,882.62,1017.31,882.62Z"/><path class="cls-39" d="M1038.62,893.6l-2.94,1.71a23.43,23.43,0,0,1,6.67,6.34l-8.84,2.1a18.55,18.55,0,0,0-6.23-6,8.61,8.61,0,0,0-2.89-1.18,3,3,0,0,0-2,.31c-.48.28-.71.61-.68,1a4.09,4.09,0,0,0,.75,1.65,28.84,28.84,0,0,0,2.19,2.82c2,2.39,3,4.37,2.91,5.94s-1.14,3-3.31,4.24a16.13,16.13,0,0,1-8.3,2.12,23.85,23.85,0,0,1-9.66-2.29l-4.21,2.44-4.55-2.62,4.08-2.37a24.16,24.16,0,0,1-7.13-6.6l7.25-4.21a23.27,23.27,0,0,0,3.38,4.45,20,20,0,0,0,4.39,3.53,10.55,10.55,0,0,0,3.18,1.32,3.35,3.35,0,0,0,2.37-.37,1,1,0,0,0,.59-1.07,5.66,5.66,0,0,0-.95-1.87c-.55-.81-1.36-1.86-2.41-3.16a10.75,10.75,0,0,1-2.2-3.94,3.92,3.92,0,0,1,.36-3.1,8.43,8.43,0,0,1,3.16-2.74,14.38,14.38,0,0,1,8-1.93,24.77,24.77,0,0,1,9.5,2.58l3-1.74Z"/><path class="cls-38" d="M1069.27,882.93v14.4c0,15.95-23.26,28.87-52,28.87s-51.95-12.92-51.95-28.87v-14.4Z"/><path class="cls-39" d="M982.16,904.15v14.4A67.46,67.46,0,0,0,999,924.32v-14.4A67.87,67.87,0,0,1,982.16,904.15Z"/><path class="cls-39" d="M1008.66,903.72h-1.15a1.74,1.74,0,0,0-1.54,1.87V925.5q2.09.27,4.23.42V905.59A1.73,1.73,0,0,0,1008.66,903.72Z"/><path class="cls-39" d="M1019.41,903.72h-1.14a1.73,1.73,0,0,0-1.54,1.87v20.6h.58c1.23,0,2.44,0,3.64-.08V905.59A1.73,1.73,0,0,0,1019.41,903.72Z"/><path class="cls-39" d="M1030.16,903.72H1029a1.73,1.73,0,0,0-1.54,1.87v20.06c1.43-.16,2.84-.36,4.23-.58V905.59A1.74,1.74,0,0,0,1030.16,903.72Z"/><path class="cls-39" d="M1040.92,903.72h-1.15a1.73,1.73,0,0,0-1.54,1.87v18.17c1.44-.35,2.86-.74,4.23-1.16v-17A1.74,1.74,0,0,0,1040.92,903.72Z"/><path class="cls-39" d="M1051.67,900.27h-1.15a1.74,1.74,0,0,0-1.54,1.87v18.07q2.22-.94,4.23-2V902.14A1.73,1.73,0,0,0,1051.67,900.27Z"/><path class="cls-39" d="M1062.42,890.6h-1.14a1.74,1.74,0,0,0-1.55,1.86V914a31.46,31.46,0,0,0,4.23-3.94V892.46A1.73,1.73,0,0,0,1062.42,890.6Z"/><path class="cls-39" d="M1068.37,902.68a16.78,16.78,0,0,0,.9-5.35v-14.4h-.9Z"/><path class="cls-39" d="M974.78,889.75h-1.14a1.73,1.73,0,0,0-1.54,1.87v19.92a34.52,34.52,0,0,0,4.22,3.52V891.62A1.73,1.73,0,0,0,974.78,889.75Z"/><path class="cls-39" d="M965.36,897.33a16.83,16.83,0,0,0,1.18,6.13V883.09c0-.06,0-.11,0-.16h-1.17Z"/><path class="cls-40" d="M965.36,882.93c0,15.94,23.26,28.87,51.95,28.87s52-12.93,52-28.87-23.26-28.87-52-28.87S965.36,867,965.36,882.93Z"/><path class="cls-38" d="M978.74,882.93c0,11.83,17.27,21.43,38.57,21.43s38.57-9.6,38.57-21.43-17.26-21.44-38.57-21.44S978.74,871.09,978.74,882.93Z"/><path class="cls-39" d="M1017.31,865.12c20.21,0,36.77,8.63,38.43,19.62a12.16,12.16,0,0,0,.14-1.81c0-11.84-17.26-21.44-38.57-21.44s-38.57,9.6-38.57,21.44a12.16,12.16,0,0,0,.15,1.81C980.55,873.75,997.11,865.12,1017.31,865.12Z"/><path class="cls-39" d="M1038.62,876.1l-2.94,1.71a23.54,23.54,0,0,1,6.67,6.33l-8.84,2.11a18.55,18.55,0,0,0-6.23-6,8.61,8.61,0,0,0-2.89-1.18,3,3,0,0,0-2,.31c-.48.28-.71.61-.68,1a4.09,4.09,0,0,0,.75,1.65,28.84,28.84,0,0,0,2.19,2.82c2,2.39,3,4.37,2.91,5.94s-1.14,3-3.31,4.24a16,16,0,0,1-8.3,2.11,23.67,23.67,0,0,1-9.66-2.28l-4.21,2.44-4.55-2.62,4.08-2.37a24.16,24.16,0,0,1-7.13-6.6l7.25-4.21a22.92,22.92,0,0,0,3.38,4.44,19.73,19.73,0,0,0,4.39,3.54,10.55,10.55,0,0,0,3.18,1.32,3.41,3.41,0,0,0,2.37-.37,1,1,0,0,0,.59-1.07,5.66,5.66,0,0,0-.95-1.87c-.55-.81-1.36-1.86-2.41-3.16a10.75,10.75,0,0,1-2.2-3.94,3.92,3.92,0,0,1,.36-3.1,8.43,8.43,0,0,1,3.16-2.74,14.38,14.38,0,0,1,8-1.93,24.92,24.92,0,0,1,9.5,2.57l3-1.73Z"/><path class="cls-30" d="M1092.48,1023.55s-4.43,3.78-5.78,7.56a23.5,23.5,0,0,1-4.79,7.52c-.6.43,4,4.35,4,4.35l7.19.15,14.62-7.61s4.49-4,4.55-4.29-1.84-5.33-1.84-5.33Z"/><path class="cls-7" d="M1138.2,1007.7l-11.68-14.23a1.91,1.91,0,0,0-2.71-.31l-31.6,27.78a1.88,1.88,0,0,0-.19,2.55l11,14.63a2,2,0,0,0,2.85.38l32.16-28.26A1.83,1.83,0,0,0,1138.2,1007.7Z"/><polygon class="cls-41" points="1093.39 1019.9 1107.59 1037.02 1136.91 1011.25 1122.52 994.3 1093.39 1019.9"/><path class="cls-31" d="M1087.43,1043.38s5.93-10.56,16.82-10.5a20.61,20.61,0,0,0,9.42-2.41c2-1,5.72-2.06,5,1.71-.75,4.09-9.41,5.66-12.31,7.14s-12,10.09-12,10.09Z"/><path class="cls-31" d="M1106.34,1005.32s-15.8,7.38-17.7,18.14c0,0,.87,6.17,5.85,4.79s13.9-11.48,15.09-14.59S1109.05,1006.24,1106.34,1005.32Z"/><path class="cls-42" d="M1023.78,909.22a4.14,4.14,0,0,0-3.6.54l.8,16.93,2.74-1.19a1.22,1.22,0,0,0,.73-.9C1025.51,918.15,1023.78,909.22,1023.78,909.22Z"/><path class="cls-43" d="M938.91,960.36s-32.49,14.12,0,57.12Z"/><path class="cls-44" d="M956.11,1350.55s4.48,4.43,11.66,0a39.21,39.21,0,0,1,14.79-5.5,23.37,23.37,0,0,1,8.86.26c2.11.51,6.42,1.87,7.32,4.09,2.43,6-.57,11.21-5,15-12.08,10.41-26.67,18.22-42.74,19.65-6.9.61-15.4.74-21.8-2.28,0,0-1.08-26.34,1.89-29.79Z"/><path class="cls-45" d="M941.82,1104.4s-8.86,33.49-7.88,59.59l-7.63,185.39s11.73,10.42,34.36,9.31a9.84,9.84,0,0,0,9.27-9.61l5.54-243Z"/><path class="cls-44" d="M1015,1366.61s4.49,4.44,11.66,0a39.38,39.38,0,0,1,14.79-5.5,23.57,23.57,0,0,1,8.86.26c2.11.51,6.43,1.87,7.33,4.09,2.42,6-.58,11.22-5,15-12.08,10.41-26.67,18.22-42.74,19.65-6.9.62-15.39.74-21.8-2.28,0,0-1.07-26.34,1.89-29.79Z"/><path class="cls-45" d="M971.91,1101.69s-6.41,25.83.78,56.68l13,212.24s19.69,8.66,43.82,0l-10.58-250.94Z"/><path class="cls-43" d="M1023.77,1108.25c-.32-11-2.55-40-2.55-40h0c1.18-44.14-.35-88.38-.35-88.38l-25-16.33-37.11-8.62-13.65,3.43a12.89,12.89,0,0,0-11.85,10.52c-2,10.45-4.1,27.28-1.29,41,1.86,9.09,3.89,25.79,5.63,42.13.17,1.7,2.58,33.92,1.31,47.07,0,0-.31,2.67,2.91,5.34,24.62,22.65,77.07,15.27,77.07,15.27C1024.8,1119.06,1023.93,1113.4,1023.77,1108.25Z"/><path class="cls-43" d="M1085,1030.71l-40.38,12.63s-6.89-39.88-8.53-48.09-15.17-15.43-15.17-15.43c-20.75,10.51-14.52,26.92-14.52,26.92l16.89,57.18a13.82,13.82,0,0,0,18.64,8.81l53.58-22.66C1095.78,1033.33,1085,1030.71,1085,1030.71Z"/><path class="cls-31" d="M964,875.28c8.87-1.45,21-1.72,29.55.81,14.42,4.26,22.3,13.47,25.78,27.16s4.55,36.79-3.35,49.6c-4.94,8-15.93,6.51-23.79,4.42-9.49-2.51-21.91-6.61-29.69-12.49-10.85-8.2-16.59-26.14-17.25-39.1C944.66,894.51,950.43,877.5,964,875.28Z"/><path class="cls-30" d="M958.78,941.4a29.35,29.35,0,0,0,3.7,3.38c7.78,5.88,20.2,10,29.69,12.49,1.52.4,3.16.76,4.84,1.05l-1.14,5.17a50.23,50.23,0,0,1-26.49,0c-5.19-1.44-10.62-3.64-10.62-9.1V941.39Z"/><path class="cls-32" d="M1026.06,875.13s-11.41,5.2-28.72-2c-8.79-3.66-33.31-2.69-40.22,4.86h0c-8.65,5.73-12.36,18.63-11.9,27.69.66,13,6.4,30.9,17.25,39.1,6,4.52,6.25,5,14.29,7.54,2.22-1.06,14-10.22,14-10.22-4.54-2.64-8.06-17.73-3.22-20.37s8.06,6.74,8.06,6.74c2.78-1,7-4.25,4.69-9.81s0-11.43,0-11.43c8.57.17,15.64-4.66,18.35-6.19C1018.64,901,1030.06,893.14,1026.06,875.13Z"/><path class="cls-42" d="M992.67,923.08l30.21-7.73a2.85,2.85,0,0,1,0,3.33L994.74,926Z"/><polygon class="cls-23" points="596.78 263.69 586.75 257.93 839.49 112.01 849.52 117.77 596.78 263.69"/><polygon class="cls-25" points="586.75 679.74 596.78 685.5 596.78 263.69 586.75 257.93 586.75 679.74"/><polygon class="cls-7" points="596.78 685.5 597.27 263.22 849.52 117.77 849.52 539.77 596.78 685.5"/><polygon class="cls-46" points="673.1 310.93 820.92 225.64 820.92 231.02 673.1 316.31 673.1 310.93"/><polygon class="cls-46" points="673.11 320.72 820.92 235.43 820.92 240.81 673.11 326.1 673.11 320.72"/><polygon class="cls-46" points="673.12 330.51 820.93 245.22 820.93 250.6 673.12 335.89 673.12 330.51"/><polygon class="cls-46" points="673.12 340.3 820.94 255.01 820.94 260.39 673.12 345.68 673.12 340.3"/><polygon class="cls-46" points="673.13 350.09 820.95 264.8 820.95 270.18 673.13 355.47 673.13 350.09"/><polygon class="cls-46" points="673.14 359.88 820.96 274.59 820.96 279.97 673.14 365.26 673.14 359.88"/><polygon class="cls-46" points="673.15 369.67 820.97 284.38 820.97 289.76 673.15 375.05 673.15 369.67"/><polygon class="cls-46" points="673.16 379.46 820.98 294.17 820.98 299.55 673.16 384.84 673.16 379.46"/><polygon class="cls-46" points="673.16 389.25 820.98 303.96 820.98 309.34 673.16 394.63 673.16 389.25"/><polygon class="cls-46" points="673.17 399.04 820.99 313.75 820.99 319.13 673.17 404.42 673.17 399.04"/><polygon class="cls-46" points="673.18 408.83 821 323.54 821 328.92 673.18 414.21 673.18 408.83"/><polygon class="cls-46" points="673.19 418.62 821.01 333.33 821.01 338.71 673.19 424 673.19 418.62"/><polygon class="cls-46" points="673.2 428.41 821.02 343.12 821.02 348.5 673.2 433.79 673.2 428.41"/><polygon class="cls-46" points="673.21 438.2 821.02 352.91 821.02 358.29 673.21 443.58 673.21 438.2"/><polygon class="cls-46" points="673.22 447.99 821.03 362.7 821.03 368.08 673.22 453.37 673.22 447.99"/><polygon class="cls-46" points="673.1 458.5 741.47 419.16 741.47 424.55 673.1 463.89 673.1 458.5"/><polygon class="cls-46" points="673.14 495.54 820.96 410.25 820.96 415.63 673.14 500.92 673.14 495.54"/><polygon class="cls-46" points="673.15 505.33 820.97 420.04 820.97 425.42 673.15 510.71 673.15 505.33"/><polygon class="cls-46" points="673.16 515.12 820.98 429.83 820.98 435.21 673.16 520.5 673.16 515.12"/><polygon class="cls-46" points="673.16 524.91 820.98 439.62 820.98 445 673.16 530.29 673.16 524.91"/><polygon class="cls-46" points="673.17 534.7 820.99 449.4 820.99 454.79 673.17 540.08 673.17 534.7"/><polygon class="cls-46" points="673.18 544.49 821 459.19 821 464.58 673.18 549.87 673.18 544.49"/><polygon class="cls-46" points="673.19 554.28 821.01 468.99 821.01 474.37 673.19 559.66 673.19 554.28"/><polygon class="cls-46" points="673.2 564.07 821.02 478.77 821.02 484.16 673.2 569.45 673.2 564.07"/><polygon class="cls-46" points="673.21 573.86 821.02 488.56 821.02 493.95 673.21 579.24 673.21 573.86"/><polygon class="cls-46" points="673.22 583.65 821.03 498.35 821.03 503.74 673.22 589.03 673.22 583.65"/><polygon class="cls-46" points="673.1 594.16 741.47 554.82 741.47 560.2 673.1 599.54 673.1 594.16"/><path class="cls-12" d="M651.37,353.05a5.08,5.08,0,0,1-1.86,1.85l-25.85,14.91a2.82,2.82,0,0,1-4.23-2.45h0l0-28.24a4.11,4.11,0,0,1,2.06-3.55l26.76-15.44a2.53,2.53,0,0,1,3.8,2.2l0,28.19A5.15,5.15,0,0,1,651.37,353.05Zm-29.13,14.32h0l25.87-14.92a2.24,2.24,0,0,0,1.13-1.94l0-27.71L622.91,338a1.3,1.3,0,0,0-.65,1.12Z"/><polygon class="cls-47" points="652.93 315.53 657.39 318.45 636.62 352.39 625.6 344.73 629.31 338.73 636.05 343.11 652.93 315.53"/><path class="cls-12" d="M651.37,438.55a5,5,0,0,1-1.86,1.85l-25.85,14.91a2.82,2.82,0,0,1-4.23-2.44h0l0-28.25a4.11,4.11,0,0,1,2.06-3.55l26.76-15.43a2.53,2.53,0,0,1,3.8,2.19l0,28.19A5.15,5.15,0,0,1,651.37,438.55Zm-29.13,14.32h0L648.11,438a2.24,2.24,0,0,0,1.13-1.94l0-27.71-26.35,15.2a1.28,1.28,0,0,0-.65,1.11Z"/><polygon class="cls-47" points="652.93 401.04 657.39 403.95 636.62 437.89 625.6 430.24 629.31 424.24 636.05 428.61 652.93 401.04"/><path class="cls-12" d="M651.37,541.7a5,5,0,0,1-1.86,1.86l-25.85,14.91a2.82,2.82,0,0,1-4.23-2.45h0l0-28.24a4.1,4.1,0,0,1,2.06-3.55l26.76-15.44a2.53,2.53,0,0,1,3.8,2.2l0,28.19A5.08,5.08,0,0,1,651.37,541.7ZM622.24,556h0l25.87-14.91a2.24,2.24,0,0,0,1.13-1.94l0-27.72-26.35,15.2a1.3,1.3,0,0,0-.65,1.12Z"/><polygon class="cls-47" points="652.93 504.19 657.39 507.11 636.62 541.05 625.6 533.39 629.31 527.39 636.05 531.77 652.93 504.19"/><polygon class="cls-46" points="622.24 289.62 770.06 204.33 770.05 229.24 622.24 314.53 622.24 289.62"/><line class="cls-48" x1="251.06" y1="448.86" x2="947.12" y2="49.72"/></g></g></svg>