<svg id="Layer_1" data-name="Layer 1" xmlns="http://www.w3.org/2000/svg" viewBox="0 0 64 64"><defs><style>.cls-1{fill:#ff9829;}</style></defs><title>v copy</title><path class="cls-1" d="M14,2H40V17H55V28h2V16h0a1,1,0,0,0-.28-.71l-15-15A1,1,0,0,0,41,0H12V39h2ZM42,3.41,53.59,15H42Z"/><polygon class="cls-1" points="57 56 55 56 55 58 14 58 14 54 12 54 12 60 57 60 57 56"/><polygon class="cls-1" points="59 62 15 62 15 64 61 64 61 56 59 56 59 62"/><rect class="cls-1" x="19" y="12" width="11" height="2"/><rect class="cls-1" x="19" y="7" width="15" height="2"/><rect class="cls-1" x="19" y="21" width="31" height="2"/><rect class="cls-1" x="19" y="26" width="31" height="2"/><rect class="cls-1" x="19" y="31" width="23" height="2"/><polygon class="cls-1" points="23 42.52 23 46 25 46 25 39 18 39 18 41 21.69 41 14.85 48.26 8.95 42.17 0.27 51.31 1.73 52.69 8.96 45.06 14.88 51.16 23 42.52"/><rect class="cls-1" x="30" y="39" width="2" height="14"/><rect class="cls-1" x="35" y="44" width="2" height="9"/><rect class="cls-1" x="40" y="47" width="2" height="6"/><path class="cls-1" d="M46,31V53H64V31ZM62,51H48V33H62Z"/><rect class="cls-1" x="50" y="47" width="2" height="2"/><rect class="cls-1" x="54" y="47" width="2" height="2"/><rect class="cls-1" x="50" y="43" width="2" height="2"/><rect class="cls-1" x="54" y="43" width="2" height="2"/><rect class="cls-1" x="50" y="39" width="2" height="2"/><rect class="cls-1" x="54" y="39" width="2" height="2"/><rect class="cls-1" x="58" y="39" width="2" height="2"/><rect class="cls-1" x="50" y="35" width="10" height="2"/><rect class="cls-1" x="58" y="43" width="2" height="6"/></svg>