<svg width="1062" height="1062" viewBox="0 0 1062 1062" fill="none" xmlns="http://www.w3.org/2000/svg">
<path fill-rule="evenodd" clip-rule="evenodd" d="M423.529 425.545L353.379 286.78C353.378 286.779 353.378 286.778 353.377 286.776C353.377 286.775 353.376 286.775 353.376 286.774C350.052 280.212 342.058 277.59 335.497 280.903L335.48 280.912L333.077 282.121C333.071 282.125 333.064 282.128 333.058 282.131C326.512 285.457 323.896 293.441 327.209 299.996C327.209 299.997 327.209 299.996 327.209 299.996L454.508 551.822C454.509 551.824 454.51 551.825 454.51 551.826C454.937 552.668 455.436 553.429 455.98 554.103L460.655 559.892L475.493 656.839L512.669 1027.19V1028.08C513.021 1028.2 513.579 1028.33 514.392 1028.33H556.473C557.294 1028.33 557.858 1028.2 558.212 1028.08V1027.19L597.815 632.744H637.723C647.841 632.744 657.343 624.113 658.18 612.851L630.99 428.308L630.99 426.285C630.993 416.691 623.583 408.039 610.482 408.039H460.383C455.861 408.039 451.926 409.201 448.743 411.033L423.529 425.545ZM685.797 611.237C685.797 637.745 664.281 660.302 637.723 660.302H622.745L585.77 1028.57C585.77 1044.73 572.638 1055.88 556.473 1055.88H514.392C498.235 1055.88 485.111 1044.73 485.111 1028.57L448.145 660.302L434.54 571.417C432.8 569.262 431.239 566.871 429.922 564.269L302.615 312.429C292.434 292.286 300.501 267.722 320.634 257.533L323.074 256.305C343.216 246.132 367.781 254.199 377.97 274.341L434.997 387.149C436.521 386.271 438.101 385.472 439.731 384.755C445.987 382.006 452.977 380.481 460.383 380.481H610.482C637.04 380.481 658.556 399.768 658.548 426.293L685.797 611.237Z" fill="#FF9829"/>
<path fill-rule="evenodd" clip-rule="evenodd" d="M535.452 320.747C564.728 320.747 588.461 297.014 588.461 267.738C588.461 238.465 564.731 214.737 535.452 214.737C506.172 214.737 482.442 238.465 482.442 267.738C482.442 297.014 506.176 320.747 535.452 320.747ZM535.452 348.305C579.947 348.305 616.019 312.233 616.019 267.738C616.019 223.242 579.947 187.179 535.452 187.179C490.956 187.179 454.885 223.242 454.885 267.738C454.885 312.233 490.956 348.305 535.452 348.305Z" fill="#FF9829"/>
<path fill-rule="evenodd" clip-rule="evenodd" d="M843.792 515.858V514.624C843.792 513.479 843.333 512.355 842.488 511.491C841.665 510.649 840.759 510.324 839.924 510.324H758.893C758.063 510.324 757.152 510.649 756.323 511.496C755.473 512.365 755.016 513.489 755.016 514.624V515.861L740.392 645.733C740.713 647.495 742.249 648.865 744.207 648.865H771.879L793.582 831.468H805.169L826.916 648.865H854.567C856.527 648.865 858.062 647.494 858.383 645.731L843.792 515.858ZM880.491 645.045C880.491 659.373 868.879 670.912 854.567 670.912H846.493L826.522 838.601C826.522 847.301 819.415 853.514 810.722 853.514H788.028C779.303 853.514 772.228 847.293 772.228 838.601L752.298 670.912H744.207C729.896 670.912 718.284 659.373 718.284 645.045L732.97 514.624C732.97 500.297 744.581 488.278 758.893 488.278H839.924C854.243 488.278 865.839 500.296 865.839 514.624L880.491 645.045Z" fill="#FF9829"/>
<path fill-rule="evenodd" clip-rule="evenodd" d="M799.451 452.095C811.284 452.095 820.876 442.5 820.876 430.669C820.876 418.833 811.287 409.244 799.451 409.244C787.625 409.244 778.033 418.83 778.033 430.669C778.033 442.503 787.628 452.095 799.451 452.095ZM799.451 474.141C823.463 474.141 842.922 454.673 842.922 430.669C842.922 406.657 823.463 387.198 799.451 387.198C775.446 387.198 755.987 406.657 755.987 430.669C755.987 454.674 775.447 474.141 799.451 474.141Z" fill="#FF9829"/>
<path fill-rule="evenodd" clip-rule="evenodd" d="M307.638 515.859V514.624C307.638 513.489 307.181 512.365 306.331 511.496C305.502 510.649 304.591 510.324 303.761 510.324H222.738C221.908 510.324 220.998 510.649 220.169 511.496C219.318 512.365 218.862 513.489 218.862 514.624V515.861L204.238 645.733C204.559 647.495 206.094 648.865 208.053 648.865H235.725L257.428 831.468H269.023L290.77 648.865H318.421C320.381 648.865 321.916 647.495 322.237 645.731L307.638 515.859ZM344.344 645.045C344.344 659.373 332.733 670.912 318.421 670.912H310.347L290.376 838.601C290.376 847.301 283.277 853.514 274.568 853.514H251.882C243.148 853.514 236.074 847.293 236.074 838.601L216.144 670.912H208.053C193.742 670.912 182.13 659.373 182.13 645.045L196.815 514.624C196.815 500.297 208.427 488.278 222.738 488.278H303.761C318.073 488.278 329.684 500.296 329.684 514.624L344.344 645.045Z" fill="#FF9829"/>
<path fill-rule="evenodd" clip-rule="evenodd" d="M263.272 452.095C275.101 452.095 284.698 442.498 284.698 430.669C284.698 418.835 275.104 409.244 263.272 409.244C251.441 409.244 241.847 418.835 241.847 430.669C241.847 442.498 251.444 452.095 263.272 452.095ZM263.272 474.141C287.277 474.141 306.744 454.673 306.744 430.669C306.744 406.657 287.277 387.198 263.272 387.198C239.268 387.198 219.801 406.657 219.801 430.669C219.801 454.674 239.268 474.141 263.272 474.141Z" fill="#FF9829"/>
<path fill-rule="evenodd" clip-rule="evenodd" d="M997.733 529.076V527.842C997.733 527.603 997.638 527.296 997.37 527.021C997.248 526.897 997.149 526.844 997.116 526.83C997.101 526.823 997.114 526.827 997.108 526.827H926.216C926.21 526.827 926.207 526.827 926.205 526.827C926.203 526.827 926.2 526.829 926.191 526.833C926.154 526.849 926.056 526.902 925.936 527.024C925.673 527.293 925.577 527.595 925.577 527.842V529.079L912.832 642.289C912.846 642.307 912.862 642.325 912.881 642.343C912.945 642.408 913.016 642.453 913.08 642.48C913.13 642.501 913.209 642.526 913.354 642.526H940.001L958.994 802.31H964.269L983.297 642.526H1009.92C1010.07 642.526 1010.15 642.5 1010.2 642.479C1010.26 642.453 1010.33 642.408 1010.4 642.345C1010.42 642.326 1010.43 642.308 1010.45 642.29L997.733 529.076ZM1032.6 641.967C1032.6 654.489 1022.45 664.572 1009.92 664.572H1002.87L985.399 811.313C985.399 818.916 979.162 824.356 971.56 824.356H951.71C944.067 824.356 937.862 818.916 937.862 811.313L920.42 664.572H913.354C900.839 664.572 890.683 654.49 890.683 641.967L903.53 527.842C903.53 515.295 913.694 504.781 926.216 504.781H997.108C1009.62 504.781 1019.78 515.311 1019.78 527.842L1032.6 641.967Z" fill="#FF9829"/>
<path fill-rule="evenodd" clip-rule="evenodd" d="M961.673 470.366C970.505 470.366 977.665 463.203 977.665 454.38C977.665 445.547 970.504 438.388 961.673 438.388C952.837 438.388 945.681 445.544 945.681 454.38C945.681 463.207 952.835 470.366 961.673 470.366ZM961.673 492.412C982.676 492.412 999.712 475.384 999.712 454.38C999.712 433.369 982.677 416.342 961.673 416.342C940.662 416.342 923.635 433.368 923.635 454.38C923.635 475.385 940.661 492.412 961.673 492.412Z" fill="#FF9829"/>
<path fill-rule="evenodd" clip-rule="evenodd" d="M135.588 529.077V527.842C135.588 527.608 135.496 527.303 135.226 527.027C135.103 526.901 135.003 526.847 134.966 526.832C134.956 526.827 134.955 526.826 134.954 526.826C134.953 526.827 134.953 526.827 134.949 526.827H64.0574C64.0506 526.827 64.0484 526.827 64.0462 526.827C64.0437 526.827 64.0413 526.829 64.0315 526.833C63.9951 526.849 63.8967 526.902 63.7767 527.024C63.5136 527.293 63.4175 527.595 63.4175 527.842V529.079L50.6727 642.289C50.6868 642.307 50.703 642.325 50.7215 642.343C50.7863 642.408 50.8571 642.453 50.9211 642.48C50.9712 642.501 51.0496 642.526 51.1949 642.526H77.8502L96.8426 802.31H102.118L121.146 642.526H147.789C147.938 642.526 148.017 642.5 148.066 642.479C148.13 642.453 148.199 642.408 148.263 642.345C148.282 642.326 148.298 642.308 148.312 642.291L135.588 529.077ZM170.46 641.967C170.46 654.489 160.312 664.572 147.789 664.572H140.723L123.248 811.313C123.248 818.916 117.019 824.356 109.408 824.356H89.5593C81.9158 824.356 75.7114 818.916 75.7114 811.313L58.2693 664.572H51.1949C38.6797 664.572 28.5234 654.49 28.5234 641.967L41.3713 527.842C41.3713 515.295 51.5349 504.781 64.0574 504.781H134.949C147.47 504.781 157.635 515.311 157.635 527.842L170.46 641.967Z" fill="#FF9829"/>
<path fill-rule="evenodd" clip-rule="evenodd" d="M99.5081 470.366C108.345 470.366 115.5 463.206 115.5 454.38C115.5 445.544 108.344 438.388 99.5081 438.388C90.6774 438.388 83.5159 445.547 83.5159 454.38C83.5159 463.204 90.6749 470.366 99.5081 470.366ZM99.5081 492.412C120.519 492.412 137.546 475.384 137.546 454.38C137.546 433.369 120.52 416.342 99.5081 416.342C78.5053 416.342 61.4697 433.368 61.4697 454.38C61.4697 475.385 78.5041 492.412 99.5081 492.412Z" fill="#FF9829"/>
<path fill-rule="evenodd" clip-rule="evenodd" d="M454.735 167.301L361.289 73.8547L380.775 54.3684L474.222 147.815L454.735 167.301Z" fill="#FF9829"/>
<path fill-rule="evenodd" clip-rule="evenodd" d="M709.369 73.8546L615.923 167.301L596.437 147.815L689.883 54.3684L709.369 73.8546Z" fill="#FF9829"/>
<path fill-rule="evenodd" clip-rule="evenodd" d="M522.226 132.153L522.226 -1.20459e-06L549.784 0L549.784 132.153L522.226 132.153Z" fill="#FF9829"/>
</svg>
