<svg id="Layer_1" data-name="Layer 1" xmlns="http://www.w3.org/2000/svg" viewBox="0 0 64 64"><defs><style>.cls-1{fill:none;stroke:#ff9829;stroke-miterlimit:2;stroke-width:2px;}.cls-2{fill:#ff9829;}</style></defs><title>implement-orange-64px copy 4</title><line class="cls-1" x1="37" y1="7" x2="63" y2="7"/><line class="cls-1" x1="37" y1="14" x2="63" y2="14"/><line class="cls-1" x1="37" y1="21" x2="63" y2="21"/><line class="cls-1" x1="43" y1="1" x2="43" y2="27"/><rect class="cls-1" x="1" y="37" width="26" height="26"/><rect class="cls-1" x="1" y="1" width="26" height="26"/><rect class="cls-1" x="37" y="1" width="26" height="26"/><rect class="cls-1" x="37" y="37" width="26" height="26"/><line class="cls-1" x1="6" y1="6" x2="22" y2="6"/><line class="cls-1" x1="6" y1="10" x2="18" y2="10"/><line class="cls-1" x1="6" y1="21" x2="19" y2="21"/><polygon class="cls-2" points="11 44 11 50 7 50 14 57 21 50 17 50 17 44 11 44"/><line class="cls-1" x1="44" y1="43" x2="44" y2="56"/><line class="cls-1" x1="48" y1="48" x2="48" y2="56"/><line class="cls-1" x1="52" y1="46" x2="52" y2="56"/><line class="cls-1" x1="56" y1="52" x2="56" y2="56"/></svg>