<svg width="1062" height="1062" viewBox="0 0 1062 1062" fill="none" xmlns="http://www.w3.org/2000/svg">
<path d="M1023.87 607.07C1008.23 585.279 975.695 573.057 941.009 597.391L929.292 604.027C922.051 596.442 912.699 591.205 902.44 588.995C884.701 585.699 866.404 590.205 852.25 601.369L688.797 692.843C684.241 692.031 679.373 691.213 674.091 690.314H674.098C618.263 682.244 563.637 667.349 511.444 645.964C394.352 596.225 344.117 613.241 294.954 638.705C267.58 652.564 241.258 668.408 216.192 686.099C211.048 677.507 202.791 671.219 193.135 668.531C183.478 665.851 173.161 666.966 164.309 671.668L147.636 680.557C142.297 673.464 134.599 668.517 125.928 666.597C117.258 664.677 108.189 665.916 100.353 670.089L47.3313 698.306C39.024 703.044 32.7847 710.708 29.8462 719.8C26.9152 728.899 27.4883 738.759 31.4641 747.444L152.248 1035.07C155.992 1043.9 163.32 1050.71 172.404 1053.81C182.525 1057.39 193.683 1056.55 203.16 1051.52L281.849 1009.58V1009.59C289.67 1005.39 295.736 998.548 298.95 990.282C302.163 982.017 302.309 972.874 299.363 964.513L316.036 955.624H316.043C323.588 951.596 329.596 945.214 333.158 937.441C336.72 929.675 337.627 920.96 335.748 912.629C342.589 912.629 349.772 912.882 357.389 913.208C412.363 916.077 466.667 926.61 518.715 944.497C544.855 954.24 572.296 960.086 600.141 961.84C619.448 961.934 638.411 956.747 654.969 946.844C655.346 946.619 655.716 946.38 656.065 946.119L1005.99 695.235C1020.35 686.151 1030.39 671.605 1033.76 654.964C1037.13 638.316 1033.56 621.014 1023.87 607.07ZM866.461 625.159C866.911 624.913 867.346 624.63 867.76 624.326C875.777 617.632 886.253 614.626 896.599 616.067C898.978 616.596 901.271 617.473 903.389 618.675L741.352 710.309C736.919 707.447 732.24 704.999 727.357 702.985L866.461 625.159ZM268.846 985.146L190.127 1027.08C187.515 1028.43 184.475 1028.66 181.697 1027.71C179.984 1027.18 178.577 1025.96 177.815 1024.35L57.0236 736.778C54.3899 731.939 55.841 725.89 60.3828 722.775L113.374 694.471C118.01 692.051 123.727 693.782 126.231 698.368L272.705 972.304C275.107 976.926 273.394 982.606 268.846 985.141L268.846 985.146ZM303.084 931.198L286.84 939.855L161.116 704.753L177.36 696.096V696.089C182.881 693.184 189.723 695.263 192.69 700.747L307.7 915.875C310.645 921.395 308.556 928.248 303.042 931.197L303.084 931.198ZM989.814 672.71L640.469 923.186C606.442 942.659 576.456 933.364 526.954 918.006C472.642 899.388 415.986 888.463 358.634 885.537C345.596 884.979 333.749 884.79 322.648 884.993L229.439 710.665C254.281 692.902 280.451 677.066 307.709 663.287C346.191 643.38 385.992 622.841 500.593 671.451V671.458C554.775 693.72 611.503 709.23 669.488 717.633C683.853 720.06 696.267 722.161 704.69 724.457C717.205 727.877 737.984 735.751 736.569 750.102C735.219 763.83 716.378 779.615 699.916 780.789C670.511 782.043 641.055 780.833 611.853 777.167C579.205 773.016 546.237 771.915 513.384 773.886C505.759 774.581 500.144 781.318 500.84 788.932C501.53 796.546 508.277 802.153 515.902 801.458C547.042 799.69 578.268 800.784 609.203 804.739C632.13 806.927 655.637 809.187 679.173 809.187C686.747 809.187 694.336 808.955 701.903 808.412C732.381 806.224 761.482 780.232 764.166 752.798C764.87 745.437 763.585 738.019 760.444 731.318L955.334 621.154C955.754 620.915 956.168 620.654 956.56 620.372C977.36 605.485 993.365 612.084 1001.36 623.211C1006.72 631.216 1008.53 641.076 1006.34 650.457C1004.16 659.838 998.183 667.894 989.832 672.711L989.814 672.71ZM218.483 954.528C220.145 957.86 220.391 961.714 219.172 965.228C217.953 968.741 215.378 971.624 212.011 973.218C208.645 974.812 204.778 974.986 201.288 973.704C197.791 972.421 194.954 969.792 193.424 966.401L172.95 923.283V923.29C171.376 919.972 171.18 916.162 172.413 912.706C173.647 909.243 176.208 906.418 179.531 904.846C186.445 901.564 194.716 904.506 198.002 911.417L218.483 954.528ZM175.061 897.682C171.745 899.269 167.929 899.464 164.461 898.233C161 897.001 158.163 894.444 156.589 891.126L150.763 878.847H150.77C147.469 871.95 150.393 863.692 157.307 860.395C164.214 857.099 172.485 860.026 175.786 866.923L181.619 879.202C183.201 882.512 183.397 886.323 182.163 889.778C180.93 893.234 178.369 896.067 175.053 897.639L175.061 897.682Z" fill="#FF9829"/>
<path fill-rule="evenodd" clip-rule="evenodd" d="M555.573 176H632.701C640.516 176 650.095 177.679 657.83 184.341C665.921 191.31 669.75 201.755 669.75 214.5V301.5C669.75 324.102 650.199 338.5 628.693 338.5H580.573V427H555.573V176ZM580.573 313.5H628.693C640.053 313.5 644.75 306.899 644.75 301.5V214.5C644.75 206.745 642.567 204.19 641.515 203.284C640.107 202.071 637.411 201 632.701 201H580.573V313.5Z" fill="#FF9829"/>
<path fill-rule="evenodd" clip-rule="evenodd" d="M657.996 428.892L610.903 330.392L633.458 319.608L680.551 418.108L657.996 428.892Z" fill="#FF9829"/>
<path fill-rule="evenodd" clip-rule="evenodd" d="M603.142 562C741.009 562 852.688 450.472 852.688 313C852.688 175.528 741.009 64 603.142 64C465.276 64 353.597 175.528 353.597 313C353.597 450.472 465.276 562 603.142 562ZM603.142 587C754.77 587 877.688 464.326 877.688 313C877.688 161.674 754.77 39 603.142 39C451.515 39 328.597 161.674 328.597 313C328.597 464.326 451.515 587 603.142 587Z" fill="#FF9829"/>
<path fill-rule="evenodd" clip-rule="evenodd" d="M603.143 499C706.146 499 789.562 415.678 789.562 313C789.562 210.322 706.146 127 603.143 127C500.139 127 416.723 210.322 416.723 313C416.723 415.678 500.139 499 603.143 499ZM603.143 524C719.907 524 814.562 429.532 814.562 313C814.562 196.468 719.907 102 603.143 102C486.379 102 391.723 196.468 391.723 313C391.723 429.532 486.379 524 603.143 524Z" fill="#FF9829"/>
</svg>
