<svg id="Layer_1" data-name="Layer 1" xmlns="http://www.w3.org/2000/svg" xmlns:xlink="http://www.w3.org/1999/xlink" viewBox="0 0 991.36 301.62"><defs><style>.cls-1{fill:none;}.cls-2{clip-path:url(#clip-path);}.cls-3{fill:#231f20;}.cls-4{fill:#76b643;}.cls-5{fill:#ed9e31;}</style><clipPath id="clip-path" transform="translate(-7 -7)"><rect class="cls-1" x="7" y="7" width="991.36" height="301.62"/></clipPath></defs><title>Vukilemali Logo_FINAL2018</title><g class="cls-2"><path class="cls-3" d="M550,253.05a9.06,9.06,0,0,0,15.7,6v2.52h4.07V244.24h-4.07v2.52a8.43,8.43,0,0,0-6.76-2.9,9.06,9.06,0,0,0-8.94,9.19m9.57,5.33a5.52,5.52,0,1,1,5.54-5.5,5.32,5.32,0,0,1-5.54,5.5m-26-10.53v13.72h4.07V247.85h4.07v-3.61h-4.07v-7.6H533.5v7.6h-2.35v3.61ZM500,253.05a9.05,9.05,0,0,0,15.69,6v2.52h4.07V244.24h-4.07v2.52a8.43,8.43,0,0,0-6.75-2.9,9.06,9.06,0,0,0-8.94,9.19m9.56,5.33a5.52,5.52,0,1,1,5.54-5.5,5.31,5.31,0,0,1-5.54,5.5m-38.27-1.09v-21.4h4.87c6,0,9.95,4.57,9.95,10.66s-3.91,10.74-9.95,10.74Zm19.1-10.74c0-8.36-5.58-14.94-14.23-14.94H467v30h9.15c8.65,0,14.23-6.67,14.23-15m-55.86,1.3v13.72h4.08V247.85h4.07v-3.61h-4.07v-7.6h-4.08v7.6H432.2v3.61Zm-30.38,5.07a8.74,8.74,0,0,0,8.94,9,8.37,8.37,0,0,0,7.18-3.61l-2.9-2.06a5.39,5.39,0,0,1-4.07,2c-3.4,0-5-2.26-5-5.07h13.76c0-5.63-3.82-9.28-8.94-9.28a9,9,0,0,0-8.94,9m13.52-2.3h-9.07a4.62,4.62,0,0,1,4.49-3.28,4.71,4.71,0,0,1,4.58,3.28m-35.17,7.76a5.52,5.52,0,1,1,5.54-5.5,5.32,5.32,0,0,1-5.54,5.5m6.13.67v2.52c0,2.94-1.85,4.82-5.79,4.82-2.94,0-4.33-1.25-4.66-2.26h-4.7c.8,3.06,3.86,6,9.27,6,5.79,0,10-3.23,10-8.56V244.24h-4.07v2.52a8.43,8.43,0,0,0-6.76-2.9,9.06,9.06,0,0,0-8.94,9.19,9.06,9.06,0,0,0,15.7,6M351,258.38a5.52,5.52,0,1,1,5.53-5.5,5.32,5.32,0,0,1-5.53,5.5m10.19-27.12h-4.07v15.5a8.43,8.43,0,0,0-6.75-2.9,9.06,9.06,0,0,0-8.94,9.19,9.05,9.05,0,0,0,15.69,6v2.52h4.07Zm-42.17,13H315v10.82c0,3.91,2.73,7,7.47,7s7.51-3.06,7.51-7V244.24h-4.07v10.7a3.14,3.14,0,0,1-3.44,3.44,3.1,3.1,0,0,1-3.4-3.44Zm-30.55,13.05V248.1h4.62c3,0,5.49,1.47,5.49,4.57s-2.64,4.62-5.49,4.62Zm0-13.47v-7.93h2.1c2.18,0,4.11,1.17,4.11,3.69a4,4,0,0,1-4.11,4.24Zm10.74-4.62c0-4.91-4.36-7.94-8.73-7.94H284.2v30.31h9.57c4.78,0,9.27-2.48,9.27-8.69a8.18,8.18,0,0,0-7.09-8c1.8-.92,3.27-2.35,3.27-5.71m-56.9,13.72a8.74,8.74,0,0,0,8.94,9,8.33,8.33,0,0,0,7.17-3.61l-2.89-2.06a5.39,5.39,0,0,1-4.07,2c-3.4,0-5-2.26-5-5.07H260.2c0-5.63-3.82-9.28-8.94-9.28a9,9,0,0,0-8.94,9m13.51-2.3h-9.06a4.62,4.62,0,0,1,4.49-3.28,4.7,4.7,0,0,1,4.57,3.28m-39.9,10.95H220V252a4,4,0,0,1,3.94-4.11c2.35,0,3.27,1.59,3.27,4v9.69h4.07V251.08c0-4-1.84-7.22-6.5-7.22-3.23,0-4.24,1.76-4.78,2.85v-2.47h-4.07Zm-12.34-23a2.56,2.56,0,1,0-2.56,2.56,2.55,2.55,0,0,0,2.56-2.56m-.51,5.67H199v17.33h4.07Zm-17.75-13h-4.07v30.31h4.07Zm-31.89,30.31h4.07V252a4,4,0,0,1,4-4.11c2.35,0,3.27,1.59,3.27,4v9.69h4.07V251.08c0-4-1.85-7.22-6.5-7.22a4.72,4.72,0,0,0-4.79,2.85v-2.47h-4.07Zm-27.15-3.86a11.08,11.08,0,1,1,11.12-11.08,10.82,10.82,0,0,1-11.12,11.08m15.4-11.08A15.38,15.38,0,1,0,126.29,262a15.18,15.18,0,0,0,15.4-15.36m-66.89-7,4.49,12h-9Zm-1.38-8-11.25,30h4.32l2.35-6H80.76l2.18,6h4.49l-11.28-30Zm-26.31,5.75,2.77-3.28a10.53,10.53,0,0,0-7.3-2.64c-4.79,0-8.19,3.36-8.19,7.76,0,4.87,3.11,6.67,7,8.27s5.63,3.44,5.63,5.75a4.62,4.62,0,0,1-4.87,4.32,7,7,0,0,1-6.13-3.27L33,257.2c1.42,2.19,4.44,4.62,9.4,4.62s9-3.1,9-8.6S46.73,245,43,243.57c-3.11-1.22-4.37-2.27-4.37-4.37,0-1.84,1.3-3.48,3.91-3.48a6.22,6.22,0,0,1,4.53,1.64" transform="translate(-7 -7)"/><path class="cls-4" d="M566.69,162.28c0-1.46-.09-2.93,0-4.39,1-13.29,3.17-26.41,8-38.86,4.12-10.69,8.88-21.14,13.68-31.54,1.5-3.25,4-6,6.09-9l1,.41C594.58,84,594,89.09,592.9,94.1c-3.61,16.43-9.46,32.14-15.84,47.65-2.44,5.93-5.28,11.7-8,17.51a8.78,8.78,0,0,1-2.37,3m-46.51-4.17c-6.25,6.11-9.47,14.77-14.33,22.37-2.6,4.06-5.37,8-9.44,10.72-.47.32-1,.59-1.86,1.11,0-2.69-.19-5,0-7.29,1-10.54,4-20.38,10.83-28.69a40.18,40.18,0,0,1,6.83-6.32c2.79-2.13,5.54-.66,6.08,2.78a32.87,32.87,0,0,0,1.86,5.32m477-6.31c-4.87-28.77-20.9-49.35-47.55-61.33-13.3-6-27.36-7.51-41.8-5.69a79,79,0,0,0-17.77,4.53c-1.07.4-1.62.25-2.12-.8-.74-1.57-1.63-3.08-2.48-4.59a151.93,151.93,0,0,0-34.88-41.86A150.18,150.18,0,0,0,744.5,7.33,153.75,153.75,0,0,0,719.58,11,151.08,151.08,0,0,0,624,81.34c-.75,1.25-1.4,2.56-2.27,4.17,1.14.07,1.83.15,2.52.15q9.1,0,18.21,0c5.49,0,5.6,0,7.56-5.14,3.42-9,9.09-15.63,18.67-18.53,12-3.64,23.79-8.17,35.94-11.2C724,46,743.76,43.38,763.83,45c8.37.66,16.72,1.67,25,2.75,10.29,1.34,20.2,4.33,30,7.52,8.5,2.77,16.91,5.84,25.3,8.92a18.15,18.15,0,0,1,8.94,7.24A60.19,60.19,0,0,1,861,89.09c3.08,11.3,5.76,22.7,8.61,34.06.14.53.31,1.06.46,1.59l.52.17a11.52,11.52,0,0,1,.8-1.17,65,65,0,0,1,20-15.66c8.86-4.33,18.25-6,28.11-5.92a58.48,58.48,0,0,1,40.17,15.65c13.9,12.56,21.16,28.21,20.72,47.09-.28,12.17-4.18,23-13.18,31.54-7.45,7.11-16.36,8.25-25.82,5.7-6.1-1.65-9.34-6.64-11.64-12.22-.95-2.3-.95-2.38-3.32-1.39A22,22,0,0,1,914.3,190a26.3,26.3,0,1,1,10.29-51.55l3.19.8c0-1.84,1.19-1.63,2.28-1.63h11.72c2.62,0,2.62,0,2.62,2.55q0,17.4,0,34.79a17.88,17.88,0,0,0,2.49,8.93c1.29,2.26,3,2.81,5.29,1.5a11.11,11.11,0,0,0,3.55-3,32.78,32.78,0,0,0,5.91-24.55,43.19,43.19,0,0,0-14.2-26.23c-9.69-8.87-21.18-12.22-34.09-10.88-10.68,1.11-19.4,6.08-26.79,13.81a42.77,42.77,0,0,0-6.73,49.5c11.07,20.36,33.59,28.55,54.5,20.41,1.16-.45,1.87-.36,2.49.8q3.58,6.76,7.3,13.47c.59,1.08.28,1.55-.78,2a62.24,62.24,0,0,1-39,3.66A57.36,57.36,0,0,1,873,205.84c-8.88-10-15.56-21.16-18.22-34.45-.39-1.94-.92-3.86-1.36-5.79a7.78,7.78,0,0,0-3.28-4.79c-5.55-3.9-11.93-5.14-18.47-5.1a38.68,38.68,0,0,0-22.91,7c-4,2.9-7.5,6.51-11.23,9.79-1,.88-2,1.75-3.44,3-.89-4-1.71-7.54-2.44-11q-3.21-15.44-6.35-30.89a15.07,15.07,0,0,0-8.87-11.3c-15.25-7-30.59-6.89-45.95-.41a15.46,15.46,0,0,0-9.57,11.62q-4.18,20.21-8.3,40.42c-.13.61-.31,1.22-.53,2.06-.85-.66-1.47-1.11-2.06-1.61-3.34-2.83-6.64-5.73-10-8.5-3.78-3.07-7.64-6-12.26-7.82-7.28-2.79-14.55-2.09-21.92-.14-6.1,1.62-9.76,5.12-11,11.42a60.83,60.83,0,0,1-9.67,22.93c-2.51,3.64-5.43,6.91-9.68,8.64-5.59,2.26-9.89.31-11.72-5.43-1.93-6-1.6-12.28-.9-18.41.83-7.27,2.36-14.45,3.49-21.69a11.57,11.57,0,0,0-.14-4.27c-.45-2-2.19-2.85-3.86-1.77s-3.62,2.43-4.3,4.12c-3.35,8.36-6.29,16.87-9.44,25.31a9.78,9.78,0,0,1-1.85,3.19c-4.94,5.34-10.84,9.49-17,13.25a27.4,27.4,0,0,1-8.15,3.68c-6.25,1.35-10.58.07-12.92-7.47a3.07,3.07,0,0,1-.14-.52c-.6-4.39-1.24-8.79-1.75-13.19a3,3,0,0,1,.87-1.84c3.36-4,7.08-7.7,10.09-11.93,6.92-9.73,12.23-20.38,16.84-31.38,6.61-15.77,12.12-31.89,15.14-48.78,1.16-6.53,1.09-13-1.77-19.25a9.9,9.9,0,0,0-7.06-5.85c-3.56-.86-6.63.14-9.62,1.91-7.65,4.51-13.34,10.93-17.75,18.53a151.38,151.38,0,0,0-15.27,38.59,222.12,222.12,0,0,0-5.79,33.88,142.35,142.35,0,0,0-.37,25.7,6.12,6.12,0,0,1-.81,3.7c-3.35,5-6.72,10-10.41,14.71a90.37,90.37,0,0,1-8.45,9.06,4,4,0,0,1-5,.82c-1.67-1-1.28-2.82-1-4.27.93-5.44,1.87-10.89,3.15-16.25,1.64-6.83,3.57-13.59,5.48-20.36,1.19-4.22-1.73-10.34-7-9.86-1.27.11-1.23-.66-1.17-1.63a12.89,12.89,0,0,0-15.59-13.89c-5.05.92-9.12,3.64-12.74,7.07-9.48,9-14.87,20.27-17.76,32.79a19.61,19.61,0,0,1-4.29,8.55,82,82,0,0,1-5.9,6.32,20.81,20.81,0,0,1-9.24,5.38c-1.36.36-2.4.08-2.91-1.32a20.62,20.62,0,0,1-1.69-5.1c-1.22-6.13-.66-12.31-.22-18.48.28-3.89.77-7.78.79-11.67a7,7,0,0,0-4.32-6.74c-2.75-1.21-5.22-.44-7.35,1.4a17.53,17.53,0,0,0-3.2,3.62c-1.94,3-3.7,6-5.56,9.06s-3.86,6.28-5.8,9.41l-.43-.17c.59-3,1.11-6,1.77-9,.9-4,2-8,2.8-12.09a27.1,27.1,0,0,0-.81-14.58c-2.19-5.91-8.92-8.09-13.8-4.12a30.25,30.25,0,0,0-6.91,7.72c-4.93,8.17-9.42,16.6-14.09,24.92l-1.29,2.29a5.13,5.13,0,0,1,.15-2.16c1.08-5,2.32-10.06,3.2-15.14a19.35,19.35,0,0,0-1-10.82c-1-2.51-2.42-2.79-4-.59a35.46,35.46,0,0,0-4.25,7.08,138.1,138.1,0,0,0-4.81,13.36c-2.78,9.07-5.51,18.16-7.93,27.32a31.72,31.72,0,0,0-.89,13.75c1.2,6.64,6.83,9,12.36,5.24a9.06,9.06,0,0,0,2.06-1.73c2.95-3.7,6.2-7.23,8.66-11.24,3.92-6.4,7.29-13.12,10.89-19.71.29-.51.6-1,.92-1.57,0,4.28-.18,8.35.07,12.4a33.22,33.22,0,0,0,1.52,8.09,8.07,8.07,0,0,0,7.91,6c3.34.08,6.74-.4,9.32-2.68a73.05,73.05,0,0,0,6.74-7.21c1.27-1.48,2.31-3.16,3.46-4.77.22.19.36.26.38.35.08.41.12.82.18,1.24.71,4.71,1.27,11.17,3.64,15.39,4.19,7.44,12.51,9.87,19.54,5.42,2.46-1.56,5.22-4.77,7.35-7.07s3.63-4,5.63-6.23c.36.91.62,1.5.84,2.1,2.8,7.81,12.44,11.45,19.27,7.2,1.83-1.14,3.72-2.21,5.45-3.49,2.68-2,5.25-4.13,8.12-6.4a38.38,38.38,0,0,0,.49,4.66c.8,3.42,1.35,7,2.74,10.18,2,4.54,5.87,6.28,10.69,5.16a25,25,0,0,0,6.79-2.74c7-4.09,12.06-10.18,16.59-16.76,1.41-2.05,2.84-4.09,4.4-6.35.78,1.94,1.35,3.58,2.08,5.15,1.83,3.89,4.08,7.51,7.53,10.2,5.6,4.37,11.86,4.51,18.32,2.51,8.32-2.57,15.26-7.48,21.75-13.11.55-.48,1.15-.9,2.1-1.63,0,1.88-.12,3.27,0,4.62,1,10.49,6.71,16.34,17.67,14.55,12.75-2.07,23.12-8.41,31.31-18.35,1.7-2.06,3.21-4.28,4.81-6.43a29.68,29.68,0,0,1-1.1,5.6c-1,3.64-2.13,7.26-3,10.93-.61,2.52.55,3.9,3.13,4.13.83.08,1.68,0,2.52.05,2.64.07,3.94,1.12,4.51,3.73.39,1.82.68,3.66,1.13,5.47,2,8,3.61,9,11.66,7.52a5.63,5.63,0,0,0,4.71-3.71,68.57,68.57,0,0,0,2.35-8.29c.76-3.65,1.73-4.64,5.36-4.7,4.85-.07,5.69-1.06,4.66-5.74-1.65-7.51-3.55-15-5-22.52-.52-2.72,0-5.64.07-8.94,1.38.69,2.18,1,2.93,1.48,5.74,3.4,11.46,6.83,17.19,10.24,4.37,2.6,6.55,1.88,8.53-2.81.1-.22.18-.45.27-.67q4.73-11.59,9.44-23.2c.38-.93.81-1.84,1.21-2.76.87,7.06,1.13,14,1.95,20.93,1.2,10.13,2.67,20.24,4.29,30.31.83,5.09,2.17,10.09,3.44,15.1a6.05,6.05,0,0,0,5.77,4.89c2.81.2,5.64.29,8.45.29,8.34,0,10.7-1.84,12.2-10,1.55-8.5,3-17,4.16-25.6,1.6-11.59,3.06-23.21,3.09-34.95,0-.57.08-1.14.12-1.7a12.32,12.32,0,0,1,1.92,3.45c3.31,8.25,6.54,16.54,10,24.74,1.52,3.66,3.78,4.24,7.24,2.33.37-.2.72-.44,1.08-.66q9.33-5.81,18.68-11.59a7.09,7.09,0,0,1,1.28-.47c.29,3.43.5,6.66.85,9.87,1,9.13,2,18.26,3.17,27.37.49,4,1.1,8,1.92,11.91.77,3.63,2.23,4.93,5.93,5.2a55.26,55.26,0,0,0,9.54-.08c4.25-.42,5.49-1.77,6.51-6a14,14,0,0,0,.34-1.59q2-15.16,3.91-30.35c.23-1.84.44-3.68.66-5.51,4,11.07,8.77,21.61,16,30.89a2.8,2.8,0,0,1,.4,2.17c-2.11,7.77-4.27,15.54-8.07,22.71-2,3.87-4.19,7.8-8.28,10a64.09,64.09,0,0,1-8.16,3.78c-20.38,7.33-40.93,13.93-62.67,16.06-12.27,1.2-24.5,2.16-36.82.89-14.65-1.52-29.26-3.24-43.33-7.88q-15.74-5.19-31.42-10.55a19.67,19.67,0,0,1-11.57-10c-1.65-3.27-3.25-6.57-4.62-10a2.75,2.75,0,0,0-3-2c-7.27.07-14.54,0-21.81,0-.59,0-1.18.06-2.2.11.54,1.06.87,1.81,1.28,2.52a151.09,151.09,0,0,0,34.09,40.66,149.7,149.7,0,0,0,102.1,35c5.09-.21,10.2-.55,15.25-1.24A149.66,149.66,0,0,0,825,290.91a152.13,152.13,0,0,0,33.56-24.4A146.45,146.45,0,0,0,882,237.58c.93-1.51,1.65-1.68,3.26-.93a76.35,76.35,0,0,0,45.16,6.42c24-3.85,42.69-16.15,55.67-36.7,10.55-16.71,14.44-35.11,11.15-54.57M621.38,133.18c0,2.73,2.83,5.79,5.42,5.81s5-2.59,5.05-5.55c0-3.31-1.83-5.25-5-5.29a5.16,5.16,0,0,0-5.43,5M656.71,132a19.49,19.49,0,0,0,19.66,19.71,19.94,19.94,0,0,0,20-20.13c-.14-10.69-8.94-19.27-20-19.43-10.82-.17-19.64,9-19.64,19.85m96.4-66.17a22.9,22.9,0,0,0-23.23,23c-.5,11.54,9.6,23.13,23.11,23.22a23.11,23.11,0,0,0,.12-46.21m78.31,45.8a19.94,19.94,0,0,0-19.71,19.58c0,11.91,8.12,20.18,19.77,20.17a20,20,0,0,0,19.65-19.87c0-10.71-9.11-19.89-19.71-19.88m96.49,52.48a9.74,9.74,0,0,0-9.3-9.44c-4.92-.11-9.48,4.43-9.49,9.43a9.4,9.4,0,0,0,18.79,0" transform="translate(-7 -7)"/><path class="cls-5" d="M368.28,213V155.63H351.45v3.49a26.56,26.56,0,0,0-3.16-2.29,22.07,22.07,0,0,0-5.69-2.29,29.9,29.9,0,0,0-6.55-.74,25.36,25.36,0,0,0-10.57,2.12,23.76,23.76,0,0,0-8.39,6.47,28.53,28.53,0,0,0-5.4,9.73,40.56,40.56,0,0,0-1.78,12.14,40.14,40.14,0,0,0,1.78,12.53,26.92,26.92,0,0,0,5.23,9.91,21.8,21.8,0,0,0,8.5,6.29,27.69,27.69,0,0,0,11,2.12,26.25,26.25,0,0,0,5.75-.63,23.12,23.12,0,0,0,5.23-1.83,22.63,22.63,0,0,0,4.08-2.75V213Zm-17.41-22.27a15.17,15.17,0,0,1-2.64,4.93,10,10,0,0,1-3.85,3,11.4,11.4,0,0,1-4.94,1,13.26,13.26,0,0,1-5.23-1,9.19,9.19,0,0,1-3.62-2.75,11.29,11.29,0,0,1-2.41-4.64,23,23,0,0,1-.87-6.75,22.28,22.28,0,0,1,.92-6.76,13.19,13.19,0,0,1,2.47-4.75,11.33,11.33,0,0,1,3.8-2.92,14.15,14.15,0,0,1,5.17-.91,13.35,13.35,0,0,1,5.17.91,11.76,11.76,0,0,1,3.68,2.75,13.77,13.77,0,0,1,2.41,4.64,23,23,0,0,1,.86,6.58,21.24,21.24,0,0,1-.92,6.58m-43.76,23.46-18.78-29.25,16.52-27.6H283l-13.66,24.16V131.28h-20v82.9h20V188.72l15.92,25.46Zm-97.34-41.81c5.23,0,9.39,2.73,10.46,8.29H199.78c1.43-5.21,5.23-8.29,10-8.29m27.1,20.37a48.32,48.32,0,0,0,.59-8.29c0-16.7-12-29-27.69-29S181,169.06,181,185.76,194.2,216,209.77,216c10.7,0,17.11-2.85,24.36-9.48l-7.72-10.78c-1.55,1.9-7.61,5.69-15.57,4.5a12.68,12.68,0,0,1-9.75-7.46Zm-85.34,21.44h20v-82.9h-20Zm-48,1.78a23,23,0,0,0,16.17-7.35v5.57h20V157.33h-20v34.23c-.24,6.39-5.83,8.64-9.51,8.64-3.45,0-8.44-2.48-8.44-9V157.33h-20v36.48C81.76,207.67,89,216,103.51,216M72.25,157.33h-22L39.57,189.78,29,157.33H7l23.06,56.85H49.19Z" transform="translate(-7 -7)"/></g></svg>