<?xml version="1.0" standalone="no"?>
<!DOCTYPE svg PUBLIC "-//W3C//DTD SVG 20010904//EN"
 "http://www.w3.org/TR/2001/REC-SVG-20010904/DTD/svg10.dtd">
<svg version="1.0" xmlns="http://www.w3.org/2000/svg"
 width="260.000000pt" height="260.000000pt" viewBox="0 0 260.000000 260.000000"
 preserveAspectRatio="xMidYMid meet">
<metadata>
Created by potrace 1.11, written by Peter Selinger 2001-2013
</metadata>
<g transform="translate(0.000000,260.000000) scale(0.100000,-0.100000)"
fill="#000000" stroke="none">
<path d="M805 2275 c-236 -43 -469 -190 -615 -389 -69 -95 -144 -259 -165
-361 -19 -92 -24 -134 -23 -228 3 -452 299 -835 735 -954 81 -22 120 -27 228
-27 155 -1 207 5 317 40 204 64 390 199 508 365 l46 67 32 -14 c57 -23 167
-42 228 -37 269 19 472 221 491 488 7 100 -21 223 -70 303 -121 201 -362 298
-587 238 -49 -14 -56 -13 -65 0 -83 130 -114 170 -176 232 -137 138 -312 233
-499 272 -101 21 -282 23 -385 5z m392 -249 c101 -15 324 -81 395 -117 48 -25
89 -107 124 -254 14 -60 28 -116 30 -124 3 -9 18 -1 48 27 177 164 458 136
601 -58 114 -155 99 -380 -32 -470 -69 -47 -177 -27 -210 40 -11 22 -18 24
-81 25 -60 0 -73 4 -106 29 -105 80 -83 250 38 296 31 11 207 17 223 7 6 -4
10 -65 10 -137 1 -103 4 -135 17 -155 14 -21 20 -24 37 -14 48 25 75 146 49
224 -70 215 -339 269 -490 98 -64 -73 -84 -204 -47 -293 25 -58 91 -125 149
-150 56 -25 158 -31 208 -12 23 8 27 5 52 -44 l27 -53 -42 -15 c-53 -21 -141
-26 -209 -14 -156 28 -292 171 -343 359 -12 47 -20 59 -47 72 -92 44 -205 20
-298 -62 -25 -21 -47 -38 -49 -36 -2 2 -10 35 -18 72 -8 37 -16 75 -18 83 -1
8 -9 43 -15 78 -15 74 -37 99 -109 123 -96 33 -255 9 -299 -44 -12 -14 -32
-86 -46 -162 -19 -110 -29 -155 -35 -155 -3 0 -19 12 -36 26 -16 14 -50 40
-75 58 -41 28 -52 31 -120 31 -102 0 -123 -14 -149 -103 -21 -70 -77 -169 -89
-157 -26 25 -41 308 -23 412 6 32 13 74 16 93 21 123 78 288 114 328 53 60
316 140 521 158 36 3 66 7 68 8 7 7 167 -4 259 -18z m-352 -797 c6 -90 42
-314 57 -351 11 -29 38 -38 106 -36 45 2 58 24 76 133 23 138 25 154 32 245 3
47 7 86 9 88 1 2 20 -40 41 -94 21 -53 44 -99 52 -101 7 -3 46 15 87 40 41 25
77 42 79 39 2 -4 7 -38 10 -77 3 -38 8 -79 10 -90 2 -11 7 -47 11 -79 12 -99
15 -103 77 -101 29 1 56 3 60 4 10 2 25 65 33 141 11 102 14 122 18 126 2 2
14 -22 27 -54 13 -31 36 -76 52 -99 27 -40 28 -46 18 -84 -18 -67 -55 -142
-82 -167 -42 -39 -300 -122 -428 -138 -30 -4 -66 -8 -80 -10 -32 -5 -217 -5
-250 0 -14 2 -47 7 -73 10 -70 9 -125 22 -235 57 -140 45 -186 67 -211 99 -22
31 -81 195 -81 226 0 11 14 29 31 40 16 12 41 36 55 55 l26 34 -8 -35 c-15
-68 -11 -93 16 -100 19 -4 29 -17 41 -55 14 -47 18 -50 51 -53 28 -2 40 2 52
20 9 12 16 32 16 43 0 26 18 45 42 45 29 0 31 23 13 107 -18 81 -22 120 -12
130 4 3 36 -13 73 -36 37 -23 74 -41 83 -39 9 2 32 41 56 100 22 53 41 95 43
94 1 -2 4 -36 7 -77z"/>
<path d="M950 1903 c-34 -6 -87 -48 -105 -83 -59 -114 60 -248 185 -208 116
37 137 205 35 268 -34 21 -77 29 -115 23z"/>
<path d="M1465 1602 c-36 -8 -68 -36 -85 -75 -41 -90 25 -189 121 -182 90 7
145 94 112 177 -24 59 -87 93 -148 80z"/>
<path d="M420 1587 c-35 -18 -70 -74 -70 -114 0 -73 61 -133 133 -133 61 0
127 70 127 135 0 89 -109 153 -190 112z"/>
<path d="M2027 1303 c-39 -45 -15 -103 43 -103 31 0 60 30 60 62 0 25 -36 58
-63 58 -13 0 -31 -8 -40 -17z"/>
</g>
</svg>
